<svg xmlns="http://www.w3.org/2000/svg" width="94.6" height="92.99" viewBox="0 0 94.6 92.99"><defs><style>.cls-1{fill:#020202;opacity:0.72;}.cls-2{fill:#847070;}</style></defs><title>Artboard 1</title><g id="Layer_8" data-name="Layer 8"><path class="cls-1" d="M94.6,53.26V40.7L80.75,38.53a32.7,32.7,0,0,0-3.45-8.31l8.27-11.33L76.69,10,65.35,18.27A33.07,33.07,0,0,0,57,14.82L54.87,1H42.31L40.14,14.82a33.07,33.07,0,0,0-8.31,3.45L20.5,10l-8.88,8.89,8.26,11.33a33,33,0,0,0-3.44,8.31L2.58,40.7V53.26l13.86,2.17a33,33,0,0,0,3.44,8.31L11.62,75.07,20.5,84l11.33-8.26a33,33,0,0,0,8.31,3.44L42.31,93H54.87L57,79.13a33,33,0,0,0,8.31-3.44L76.69,84l8.88-8.88L77.3,63.74a32.7,32.7,0,0,0,3.45-8.31Zm-46,11.84A18.11,18.11,0,1,1,66.7,47,18.11,18.11,0,0,1,48.59,65.1Z"/><path class="cls-2" d="M92,52.29V39.73L78.17,37.56a33.44,33.44,0,0,0-3.45-8.31L83,17.92,74.1,9,62.77,17.3a33.44,33.44,0,0,0-8.31-3.45L52.29,0H39.73L37.56,13.85a33.44,33.44,0,0,0-8.31,3.45L17.92,9,9,17.92,17.3,29.25a33.44,33.44,0,0,0-3.45,8.31L0,39.73V52.29l13.85,2.17a33.44,33.44,0,0,0,3.45,8.31L9,74.1,17.92,83l11.33-8.26a33.44,33.44,0,0,0,8.31,3.45L39.73,92H52.29l2.17-13.85a33.44,33.44,0,0,0,8.31-3.45L74.1,83,83,74.1,74.72,62.77a33.44,33.44,0,0,0,3.45-8.31ZM46,64.13A18.11,18.11,0,1,1,64.11,46,18.1,18.1,0,0,1,46,64.13Z"/></g></svg>