<svg xmlns="http://www.w3.org/2000/svg" width="80" height="90" viewBox="0 0 80 90"><defs><style>.cls-1{opacity:0.69;}.cls-2{fill:#847070;}.cls-3{fill:#fcfcfc;}</style></defs><title>close</title><g id="Layer_2" data-name="Layer 2"><rect class="cls-1" x="4.93" y="8.74" width="72.92" height="75.38" rx="21.9"/><rect class="cls-2" x="2.15" y="5.87" width="72.92" height="75.38" rx="21.9"/><path class="cls-3" d="M25.57,32.15C27,30.77,28,29.83,28.64,29.32a5.67,5.67,0,0,1,1.44-.93,5.35,5.35,0,0,1,3.83,2.07c1.07,1.63,2.13,3.25,3.2,4.86a16.62,16.62,0,0,0,2.07-4.12q1.23-3.15,2.43-3.15a2.42,2.42,0,0,1,1.63.83,2.67,2.67,0,0,0,1.87.82,2.92,2.92,0,0,0,1.55-.43A4.56,4.56,0,0,0,48,28.05h1q-.63,3.38-2.34,4.62a6.17,6.17,0,0,1-3.7,1.24,5.43,5.43,0,0,1-1.11-.09,5.25,5.25,0,0,1-.59-.15c-.29,0-.83.82-1.63,2.46a10.54,10.54,0,0,0-1.2,3.15l1.33,3.51a31.7,31.7,0,0,0,4.17,7.05q2.4,3,5.37,3v1l-4.47,3.3a35.53,35.53,0,0,1-5.57-4.44,7.61,7.61,0,0,1-1.51-3,11.55,11.55,0,0,0-1.92-3.81c-.87,1.88-1.67,3.64-2.4,5.26A9.55,9.55,0,0,1,31,54.63a21.41,21.41,0,0,1-4.83,2.56h-1.9v-1a9.57,9.57,0,0,0,5.37-3.86,29.88,29.88,0,0,0,3.76-6.79c.36-1.07.72-2.15,1.1-3.23-.38-.83-.8-1.75-1.26-2.78s-.89-1.9-1.27-2.65l-.85-1.69A5.47,5.47,0,0,0,30.39,34c-.32-.36-.62-.67-.88-.91a3.5,3.5,0,0,0-1-.6,3.89,3.89,0,0,0-1-.31,5.82,5.82,0,0,0-.95-.07Z"/></g></svg>
