<svg xmlns="http://www.w3.org/2000/svg" width="1920" height="1080" viewBox="0 0 1920 1080"><defs><style>.cls-1{fill:#50e2f9;}.cls-2{fill:#f40b0b;}.cls-3{opacity:0.46;}.cls-4{fill:#9e0d0d;}.cls-5{fill:#f9f9f9;}.cls-6{opacity:0.65;}.cls-7{fill:#ff1ab9;}.cls-8{fill:#b70000;}.cls-9{opacity:0.35;}.cls-10{opacity:0.34;}.cls-11{fill:#f7119a;}.cls-12{fill:#bc0a6c;}.cls-13{opacity:0.64;}.cls-14{fill:#f40824;}.cls-15{opacity:0.5;}.cls-16{fill:#f7f5f5;}</style></defs><title>figurer</title><g id="Layer_4" data-name="Layer 4"><rect class="cls-1" x="2" width="1920" height="1080"/></g><g id="Layer_5" data-name="Layer 5"><path class="cls-2" d="M121.68,294.28,368,327.72a9,9,0,0,1,5.89,14.37L221.78,538.71a9,9,0,0,1-15.38-2.08L112.18,306.56A9,9,0,0,1,121.68,294.28Z"/><g class="cls-3"><path class="cls-4" d="M351.76,330.55,277.65,394a3.86,3.86,0,0,1-4.5.36L121.38,301.42a3.84,3.84,0,0,1,2.5-7.09l225.88,29.5A3.83,3.83,0,0,1,351.76,330.55Z"/></g><path class="cls-2" d="M777.47,254.13,753,470.07a18,18,0,0,1-28.57,12.44L549.63,353.32a18,18,0,0,1,3.51-31l199.27-86.75A18,18,0,0,1,777.47,254.13Z"/><g class="cls-3"><path class="cls-4" d="M534.58,493.51,486.91,357.73a6.79,6.79,0,0,1,3.7-8.49l263-114.48a6.81,6.81,0,0,1,7.88,10.68L546.16,495.69A6.8,6.8,0,0,1,534.58,493.51Z"/></g><ellipse class="cls-2" cx="484.03" cy="529.16" rx="302.66" ry="228.36" transform="translate(-38.73 38.23) rotate(-4.35)"/><ellipse class="cls-5" cx="696" cy="493.5" rx="65" ry="77.5" transform="translate(-139.14 318.84) rotate(-23.53)"/><g class="cls-6"><ellipse class="cls-7" cx="515" cy="574.5" rx="106.5" ry="77" transform="translate(-62 62.3) rotate(-6.53)"/></g><ellipse cx="472.76" cy="574.81" rx="15" ry="27" transform="translate(-62.31 57.5) rotate(-6.53)"/><ellipse cx="546.78" cy="566.33" rx="15.5" ry="27" transform="translate(-60.86 65.86) rotate(-6.53)"/><path d="M279.26,482.41l108.54-8.25a20.94,20.94,0,0,1,20.47,29.95l-47.13,98.12A20.94,20.94,0,0,1,325,605l-61.41-89.87A20.94,20.94,0,0,1,279.26,482.41Z"/><path d="M390.94,493.29h-2.39l0-4h2.34c141.75,0,257.05-70.39,257.53-157.59l4,0c-.24,43.76-27.94,84.66-78,115.15C525.28,476.84,460.18,493.29,390.94,493.29Z"/><path d="M226.83,519.2c-13.27,0-28.33-.31-44-.91l.15-4c52.45,2,84.56.31,87.57-1.7a1.44,1.44,0,0,0-.48,1l4,.15c-.09,2.46-3.18,3.3-8.83,4-4.56.55-11.06,1-19.31,1.19C240.17,519.12,233.74,519.2,226.83,519.2Z"/><path d="M126.94,353.71c-6.06,0-12.22-4.53-15-11.59-3.38-8.74-.28-18.12,6.92-20.91l.36.93c-6.68,2.59-9.53,11.39-6.35,19.62s11.22,12.81,17.9,10.23l.36.93A11.79,11.79,0,0,1,126.94,353.71Z"/><path d="M774.53,288.85c-.36,0-.72,0-1.09-.05l.1-1c7.13.67,13.61-5.93,14.43-14.72a17.94,17.94,0,0,0-2.76-11.66,11.83,11.83,0,0,0-8.69-5.48l.1-1a12.8,12.8,0,0,1,9.42,5.93A18.9,18.9,0,0,1,789,273.18C788.13,282.07,781.77,288.85,774.53,288.85Z"/><rect x="263.5" y="560.24" width="1" height="79.51" transform="translate(-365.65 417.69) rotate(-50.1)"/><rect x="288.98" y="630" width="10.05" height="1" transform="translate(-362.65 860.24) rotate(-84.28)"/><rect x="303.5" y="626.39" width="1" height="21.21" transform="translate(-369.59 847.86) rotate(-81.87)"/><rect x="319" y="637.82" width="1" height="37.36" transform="matrix(0.96, -0.27, 0.27, 0.96, -164.05, 109.46)"/><rect x="454.45" y="393.5" width="46.1" height="1" transform="translate(-132.4 500.13) rotate(-49.4)"/><rect x="461.5" y="393.49" width="1" height="18.03" transform="translate(-21.62 26.25) rotate(-3.18)"/><rect x="438.05" y="402" width="26.91" height="1" transform="translate(-153.36 405.41) rotate(-41.99)"/><rect x="426.49" y="395.5" width="31.02" height="1" transform="translate(31.96 825) rotate(-88.15)"/><rect x="397.2" y="395.5" width="50.61" height="1" transform="translate(-154.03 341.82) rotate(-37.78)"/><rect x="457.94" y="224.5" width="216.12" height="4" transform="translate(97.14 616.15) rotate(-61.54)"/><rect x="606.07" y="147" width="28.86" height="4" transform="translate(-17.61 154.87) rotate(-14.03)"/><rect x="601.5" y="124.57" width="4" height="28.86" transform="translate(-15.79 141.87) rotate(-13.24)"/><rect x="610.19" y="140" width="20.62" height="4" transform="translate(-15.91 154.66) rotate(-14.03)"/><rect x="606.5" y="123.69" width="4" height="20.62" transform="translate(-14.52 142.9) rotate(-13.24)"/><ellipse class="cls-8" cx="515" cy="322.26" rx="11" ry="8.74"/><rect x="614.4" y="133.5" width="10.2" height="4" transform="translate(-14.37 154.22) rotate(-14.03)"/><rect x="612" y="128.47" width="4" height="9.05" transform="translate(-14.14 144.12) rotate(-13.24)"/><path d="M692.34,518.57l-21.93-25a7.22,7.22,0,0,1,4-11.84L707,475.26a7.22,7.22,0,0,1,8.25,9.39L704.6,516.12A7.22,7.22,0,0,1,692.34,518.57Z"/><g class="cls-9"><path d="M643,430.5h-1c0-23.43,17.72-42.5,39.5-42.5v1C660.27,389,643,407.62,643,430.5Z"/><path d="M644,431.5h-3v-1c0-24,18.17-43.5,40.5-43.5h1v3h-1c-20.68,0-37.5,18.17-37.5,40.5Z"/></g><g class="cls-9"><path d="M588.67,447.48l-1,0c.4-10.37,24.65-17.57,55.17-16.4l0,1C613.34,430.91,589,437.83,588.67,447.48Z"/><path d="M589.63,448.51l-3-.11,0-1c.21-5.48,6.24-10.25,17-13.45,10.41-3.09,24.33-4.48,39.2-3.9l1,0-.11,3-1,0c-28.44-1.1-52.75,5.54-53.1,14.47Z"/></g><g class="cls-10"><path d="M330,469.74l-.91-.41c9.63-21.36,33.63-31.45,53.48-22.5l-.41.92C362.84,439,339.44,448.88,330,469.74Z"/><path d="M330.53,471.06l-2.74-1.23.41-.91a44.91,44.91,0,0,1,23.44-23.13,38.87,38.87,0,0,1,31.37.13l.91.41-1.23,2.74-.91-.41a35.9,35.9,0,0,0-29-.09,41.86,41.86,0,0,0-21.83,21.58Z"/></g><g class="cls-10"><path d="M329.21,471.07c-26.4-13.16-51.38-16.84-55.68-8.2l-.9-.44c4.63-9.29,29.68-5.89,57,7.74Z"/><path d="M329.66,472.41l-.89-.45c-12.68-6.31-25.4-10.64-35.83-12.17-9.93-1.46-16.67-.18-18.52,3.53l-.44.89-2.69-1.33.45-.9c2.44-4.9,9.9-6.77,21-5.26,10.76,1.46,24,5.92,37.35,12.56l.89.44Z"/></g><path class="cls-11" d="M1047.68,389.28,1294,422.72a9,9,0,0,1,5.89,14.37L1147.78,633.71a9,9,0,0,1-15.38-2.08l-94.22-230.07A9,9,0,0,1,1047.68,389.28Z"/><g class="cls-3"><path class="cls-12" d="M1277.76,425.55,1203.65,489a3.86,3.86,0,0,1-4.5.36l-151.77-92.93a3.84,3.84,0,0,1,2.5-7.09l225.88,29.5A3.83,3.83,0,0,1,1277.76,425.55Z"/></g><path class="cls-11" d="M1703.57,348.2,1678.86,566a17.46,17.46,0,0,1-27.72,12.07L1474.88,447.76a17.45,17.45,0,0,1,3.41-30l201-87.5A17.45,17.45,0,0,1,1703.57,348.2Z"/><g class="cls-3"><path class="cls-12" d="M1460.89,589.39l-48.15-137.13a6.26,6.26,0,0,1,3.41-7.82l265.58-115.62a6.26,6.26,0,0,1,7.25,9.83L1471.55,591.4A6.27,6.27,0,0,1,1460.89,589.39Z"/></g><ellipse class="cls-11" cx="1413.03" cy="625.16" rx="302.66" ry="228.36" transform="translate(-43.34 108.94) rotate(-4.35)"/><ellipse class="cls-5" cx="1612" cy="588.5" rx="65" ry="77.5" transform="translate(-100.92 692.36) rotate(-23.53)"/><g class="cls-6"><ellipse class="cls-7" cx="1430" cy="669.5" rx="106.5" ry="77" transform="translate(-66.86 166.98) rotate(-6.53)"/></g><ellipse cx="1387.76" cy="669.81" rx="15" ry="27" transform="translate(-67.17 162.18) rotate(-6.53)"/><ellipse cx="1461.78" cy="661.33" rx="15.5" ry="27" transform="translate(-65.73 170.54) rotate(-6.53)"/><ellipse cx="1612.73" cy="588.01" rx="34.5" ry="52.34" transform="translate(-103.73 567.49) rotate(-19.35)"/><ellipse class="cls-5" cx="1245" cy="617.5" rx="77.5" ry="65" transform="translate(584.33 1840.14) rotate(-88)"/><g class="cls-13"><circle class="cls-14" cx="1285.5" cy="767.5" r="54.5"/></g><g class="cls-13"><circle class="cls-14" cx="1581.5" cy="734.5" r="54.5"/></g><g class="cls-15"><path d="M1285.05,522c-3.35-6.13-10.9-9.78-21.26-10.25-11.54-.54-24.76,2.92-37.22,9.73l-6.24-11.41c14.53-7.93,30.17-11.95,44.06-11.31,15.07.7,26.45,6.74,32.07,17Z"/></g><g class="cls-15"><path d="M1556.17,508.1l-8.94-9.44c12-11.38,26.13-19.25,39.72-22.17,14.74-3.17,27.29-.23,35.34,8.27l-9.44,8.93c-4.81-5.07-13-6.67-23.17-4.49C1578.38,491.63,1566.48,498.34,1556.17,508.1Z"/></g><circle class="cls-16" cx="1604" cy="547" r="10"/><circle class="cls-16" cx="1254" cy="574" r="10"/><ellipse cx="1244.73" cy="617.01" rx="52.34" ry="34.5" transform="translate(371.43 1697.47) rotate(-77.42)"/><circle class="cls-16" cx="1254" cy="575" r="10"/></g></svg>
