<svg xmlns="http://www.w3.org/2000/svg" width="680" height="350" viewBox="0 0 680 350"><defs><style>.cls-1{opacity:0.72;}.cls-2{fill:#847070;}.cls-3{fill:#f91919;}.cls-4{fill:#f7f5f5;}</style></defs><title>gameover</title><g id="Layer_2" data-name="Layer 2"><g class="cls-1"><rect x="10" y="4.9" width="666.19" height="341.27" rx="47.56"/></g><rect class="cls-2" x="3.81" y="3.83" width="664.25" height="333.32" rx="47.56"/><path class="cls-3" d="M88.14,88.47c0,3-1.68,6.21-5,9.45s-7.8,4.87-13.34,4.87a17.34,17.34,0,0,1-10.31-3.34A27,27,0,0,1,52,91.55Q49.19,87,49.19,83.94a18.65,18.65,0,0,1,2.41-8.29,23.22,23.22,0,0,1,7.52-8.3,21.07,21.07,0,0,1,12.46-3.6A29.84,29.84,0,0,1,80,65a34.36,34.36,0,0,1,7.76,3.27c-.48.92-1.07,2-1.79,3.13A20,20,0,0,1,83,75q-2.06-2.39-4-4.82a12.57,12.57,0,0,0-8.74-3.25q-6.35,0-9,4.59a21.92,21.92,0,0,0-2.64,11.12q0,9.16,2.69,13.08t8.52,3.91c3.44,0,5.94-1.21,7.52-3.63a15.17,15.17,0,0,0,2.36-8.49,9.47,9.47,0,0,0-1.74-5.61,5,5,0,0,0-4.08-2.46,4.71,4.71,0,0,0-2.51,1.15,3.17,3.17,0,0,0-1.55,2.48,2.78,2.78,0,0,0,1,1.57,11.45,11.45,0,0,0,2.14,1.77Q70.63,89.9,69.76,91c-.57.71-1,1.07-1.33,1.07q-1.68,0-3.3-2.74a9.53,9.53,0,0,1-1.62-4.47,7.58,7.58,0,0,1,2.93-6,11.77,11.77,0,0,1,7.81-2.46A14,14,0,0,1,84,80.12Q88.13,83.89,88.14,88.47Z"/><path class="cls-3" d="M113.2,95.3c0,.44.45,1.1,1.36,2a8.62,8.62,0,0,1,1.36,1.45,16,16,0,0,1-2.27,2,14.08,14.08,0,0,1-2.5,1.84,18,18,0,0,1-2.58-2,4,4,0,0,1-1.29-3.06l-1-.38q-.7.67-3.6,2.86a21.11,21.11,0,0,1-3.13,2.2c-1.84,0-3.81-1.2-5.89-3.61a11.59,11.59,0,0,1-3.13-7.75,11.44,11.44,0,0,1,1.15-5.3,15,15,0,0,1,2.5-3.63,69.25,69.25,0,0,1,5.33-4.55q4-3.18,4.48-3.18l5.78,3.25,3.63,1.91c1.11.7,1.67,1.22,1.67,1.57s-.35.85-1,1.48a2.75,2.75,0,0,0-1,2v7.39c-.1.61-.19,1.23-.27,1.87a12.29,12.29,0,0,0-.12,1.38c0,.45.07.67.2.67s.13-.05.21-.15A1.87,1.87,0,0,0,113.2,95.3Zm-6.4-2.39V83.7a10.55,10.55,0,0,0-2.76-2c-1-.55-2-1-2.85-1.44q-1.72,0-3.19,3.06a12.12,12.12,0,0,0-1.46,4.58,7.56,7.56,0,0,0,2.11,5.39q2.11,2.25,3.93,2.25a4.74,4.74,0,0,0,3.17-.91A2.42,2.42,0,0,0,106.8,92.91Z"/><path class="cls-3" d="M156.73,102.36h-5.68V88.42a10.67,10.67,0,0,0-.89-5.06c-.58-1-1.9-1.52-3.93-1.52-1.85,0-3.08.25-3.7.76a3.1,3.1,0,0,0-.93,2.53c0,.67.05,1.61.16,2.84s.17,2,.17,2.31v12.08h-6V85.23a3.1,3.1,0,0,0-1.4-2.63,5.43,5.43,0,0,0-3.23-1c-.15,0-.89.15-2.19.45a10.76,10.76,0,0,0-2.34.69v19.62h-5.68V86.18c0-2.23-.26-3.74-.79-4.53s-1.64-1.2-3.36-1.2V80a4.9,4.9,0,0,1,1.79-2c1.06-.83,2.14-1.62,3.22-2.39,1.24,0,2.42.8,3.53,2.39.48.89,1,1.79,1.48,2.68h.53a34.77,34.77,0,0,1,3.72-2.85,16.23,16.23,0,0,1,3.58-2.22,9,9,0,0,1,3.08.88A7.16,7.16,0,0,1,140.4,78a6.63,6.63,0,0,1,.82,1.65c.25.72.57,1.08.95,1.08a44.41,44.41,0,0,0,3.72-2.54q3.59-2.54,4.2-2.53a6.87,6.87,0,0,1,4.44,1.84c1.46,1.22,2.2,3.27,2.2,6.13Z"/><path class="cls-3" d="M177,95.49q-1.19,2.37-2.48,4.74t-2.1,2.37a17,17,0,0,1-4-.77,12.19,12.19,0,0,1-5.47-3.65c-1.81-1.92-2.72-4.77-2.72-8.52q0-4,1-5.66a22.51,22.51,0,0,1,3.65-4.39c1.8-1.8,3-3,3.48-3.46a2.19,2.19,0,0,1,1.31-.77q2.25,1.58,4.54,3.32a8,8,0,0,1,2.63,2.71L166,92a6.56,6.56,0,0,0,2.86,3.22,10.79,10.79,0,0,0,4.25.69,11.52,11.52,0,0,0,3.44-.38Zm-11.33-5.84,5.12-5a4.56,4.56,0,0,0-1.6-1.76,15.79,15.79,0,0,0-1.88-1c-.67,0-1.31.56-1.93,1.69a7.21,7.21,0,0,0-.93,3.51A2.73,2.73,0,0,0,165.68,89.65Z"/><path class="cls-3" d="M225.17,90.43a9,9,0,0,1-2.6,6.44,20.88,20.88,0,0,1-5.7,4.3,18.07,18.07,0,0,1-3.53,1.57q-3.54,0-7-4.84a16.66,16.66,0,0,1-3.49-9.76,9.45,9.45,0,0,1,2.7-6.78,20.9,20.9,0,0,1,5.9-4.39,18.21,18.21,0,0,1,3.67-1.58q3.19,0,6.64,4.54A16.89,16.89,0,0,1,225.17,90.43Zm-3.43,1.38c0-2-1-4.09-3-6.37A9.32,9.32,0,0,0,211.47,82a5.81,5.81,0,0,0-3.6,1.26,3.78,3.78,0,0,0-1.65,3.08c0,1.81,1.05,3.86,3.13,6.13a9.27,9.27,0,0,0,6.94,3.42,7.55,7.55,0,0,0,4-.91A3.46,3.46,0,0,0,221.74,91.81Z"/><path class="cls-3" d="M252.86,84.46a11.9,11.9,0,0,1-.81,4.58,26.38,26.38,0,0,1-2.34,4.25,32.31,32.31,0,0,1-2.8,3.7l-2.64,2.94a24.38,24.38,0,0,1-1.37,2,2,2,0,0,1-1.59,1q-1.86,0-4.4-8.45a83.38,83.38,0,0,0-4.29-12,11.48,11.48,0,0,0-4.73-5.18V75.92H236a31.37,31.37,0,0,1,1.55,2.84,5.59,5.59,0,0,0,1.36,2q1.66-1.68,3.41-3.58c1.17-1.27,2-1.91,2.51-1.91,1.53,0,3.25.78,5.18,2.34A8.34,8.34,0,0,1,252.86,84.46Zm-4.59,3.91a6.72,6.72,0,0,0-1.5-4.34,4.72,4.72,0,0,0-3.84-1.86,5.86,5.86,0,0,0-1.74.26l-1.51.46v.66L245,96.73a30.53,30.53,0,0,0,2.41-4.35A9.82,9.82,0,0,0,248.27,88.37Z"/><path class="cls-3" d="M272.09,95.49q-1.18,2.37-2.48,4.74t-2.1,2.37a17,17,0,0,1-4-.77A12.14,12.14,0,0,1,258,98.18c-1.81-1.92-2.72-4.77-2.72-8.52q0-4,1-5.66a22.51,22.51,0,0,1,3.65-4.39c1.79-1.8,3-3,3.48-3.46a2.19,2.19,0,0,1,1.31-.77q2.25,1.58,4.54,3.32a7.84,7.84,0,0,1,2.62,2.71L261.07,92a6.56,6.56,0,0,0,2.86,3.22,10.79,10.79,0,0,0,4.25.69,11.4,11.4,0,0,0,3.43-.38Zm-11.33-5.84,5.12-5a4.64,4.64,0,0,0-1.6-1.76,15.79,15.79,0,0,0-1.88-1c-.67,0-1.31.56-1.93,1.69a7.21,7.21,0,0,0-.93,3.51A2.73,2.73,0,0,0,260.76,89.65Z"/><path class="cls-3" d="M292.47,82.06c0,.64-.71,1.66-2.12,3a11.11,11.11,0,0,1-3.89,2.72c0-.32-.09-1-.13-2s-.06-1.91-.06-2.67V81.87h-1a1.79,1.79,0,0,0-1.24.48,1.44,1.44,0,0,0-.52,1.09v19h-5.68V87.73a11.9,11.9,0,0,0-.84-5c-.55-1.14-1.76-2-3.6-2.43v-.47a27.4,27.4,0,0,1,2.65-2.15,11.08,11.08,0,0,1,2.6-1.71,3.54,3.54,0,0,1,2.72,1.69l2.15,2.84,3.77-3a8.75,8.75,0,0,1,2.15-1.5c.41,0,1,.59,1.81,1.78A7.75,7.75,0,0,1,292.47,82.06Z"/><path class="cls-3" d="M304,98.43a5.54,5.54,0,0,1-1.2,1.82,16.46,16.46,0,0,1-2.24,2.34c-1-.86-2-1.75-3-2.68S296.1,98.36,296.1,98c.7-.92,1.45-1.84,2.24-2.76s1.44-1.39,1.91-1.39c.64,0,1.42.6,2.34,1.79A5.42,5.42,0,0,1,304,98.43Zm-2-18.06v5.72L301.4,89l-2,1.15-1.71,2.29-1.44,1.43.62-9.82.53-6.2-.29-4.86-.57-6.58,6.87-2.86-.57,8.58a33.28,33.28,0,0,1-.29,4.22C302.35,77.77,302.16,79.13,302,80.37Z"/><path class="cls-4" d="M365.21,65,350.7,104v.53a3.17,3.17,0,0,0,.86,2.22c.58.62,1.78.93,3.63.93a10.76,10.76,0,0,0,4.56-1.48,17.55,17.55,0,0,1,3.84-1.67,9.51,9.51,0,0,1-4.41,6.54,12.61,12.61,0,0,1-6.71,2.48,6.09,6.09,0,0,1-4.56-1.79,6.26,6.26,0,0,1-1.74-4.56,9.71,9.71,0,0,1,.43-2.29c.29-1,.59-2.08.91-3.1q-1-3-2.27-6.61t-4-11.24q-2.76-7.64-4.17-11T333,69.57l-3.15,1.34-.29-1.72.29-1.43a10.32,10.32,0,0,1,2.72-3.27,6.36,6.36,0,0,1,3.58-.84,6.27,6.27,0,0,1,5.15,2.05q1.29,2,2.58,3.87A18.08,18.08,0,0,0,347,65.68c1-1.64,1.79-2.46,2.36-2.46a11.32,11.32,0,0,1,3.53,1.6,10.52,10.52,0,0,0,5.11,1.6,5.29,5.29,0,0,0,5-2.77h2.29Zm-6.43,7c-.74.23-1.54.45-2.4.67a5.45,5.45,0,0,1-1.92.24,19.66,19.66,0,0,1-5-1c-.67-.35-1.32-.71-2-1.09a2.65,2.65,0,0,0-1.57.66l-1.15.91A34.69,34.69,0,0,1,346.57,77q1.4,3.84,2.82,7.73a45.29,45.29,0,0,0,2.2,5.27l5.75-14.22Z"/><path class="cls-4" d="M389.94,90.43a9,9,0,0,1-2.6,6.44,21.08,21.08,0,0,1-5.71,4.3,17.52,17.52,0,0,1-3.53,1.57q-3.53,0-7-4.84a16.65,16.65,0,0,1-3.48-9.76,9.45,9.45,0,0,1,2.7-6.78A20.86,20.86,0,0,1,376.19,77a18.16,18.16,0,0,1,3.68-1.58q3.19,0,6.63,4.54A16.9,16.9,0,0,1,389.94,90.43Zm-3.44,1.38q0-3-3-6.37A9.3,9.3,0,0,0,376.24,82a5.78,5.78,0,0,0-3.6,1.26A3.78,3.78,0,0,0,371,86.37c0,1.81,1,3.86,3.13,6.13a9.25,9.25,0,0,0,6.94,3.42,7.58,7.58,0,0,0,4-.91A3.46,3.46,0,0,0,386.5,91.81Z"/><path class="cls-4" d="M415,94.77a2.55,2.55,0,0,0,1.36,2.36c.9.53,1.36,1,1.36,1.51,0,.32-.69,1-2.05,2.19a11.43,11.43,0,0,1-2.3,1.72c-1.11,0-2.14-.79-3.1-2.39-.76-1.68-1.18-2.57-1.24-2.67a23.36,23.36,0,0,0-4.06,2.79c-1.91,1.52-3.08,2.27-3.53,2.27s-1.89-.71-4.06-2.12-3.24-2.84-3.24-4.28V86.7a3.43,3.43,0,0,1-.14-.83,8.55,8.55,0,0,1-.05-.93v-2a4.87,4.87,0,0,0-1.36-2.08c-.78-.81-1.17-1.34-1.17-1.6.82-.89,1.67-1.77,2.53-2.62s1.46-1.29,1.81-1.29a.91.91,0,0,1,.69.33,7.58,7.58,0,0,0,.65.62,6.62,6.62,0,0,1,2.48,2.58,10.19,10.19,0,0,1,.53,3.77V92.67a3.43,3.43,0,0,0,1.57,2.67,4.92,4.92,0,0,0,3,1.24,5.59,5.59,0,0,0,2.22-.57,10.26,10.26,0,0,0,2.36-1.48V76.25l2.62-.55a14.37,14.37,0,0,0,1.72-.4h1.63V87.23c0,1,0,2.2-.1,3.65S415,93.63,415,94.77Z"/><path class="cls-4" d="M467.5,88.24a10.75,10.75,0,0,1-1.43,4.94,12.84,12.84,0,0,1-3.44,4.26q-2,1.55-5,3.62a14.18,14.18,0,0,1-3.46,2.06l-8.45-6.67c0-.16-.08-1.27-.14-3.34s-.09-4.38-.09-7V72.37c-.55-1.33-1-2.32-1.32-3s-.66-1.24-1-1.81c0-.22.77-.7,2.3-1.43a34.84,34.84,0,0,0,4.34-2.48H451V80.64h1c.06,0,1-.78,2.77-2.26s2.85-2.22,3.2-2.22c2.22,0,4.38,1.26,6.46,3.8A12.76,12.76,0,0,1,467.5,88.24Zm-4.58,2.08a8,8,0,0,0-7.11-8,4.68,4.68,0,0,0-3.3,1c-.7.66-1.05,1.85-1.05,3.55a17.88,17.88,0,0,0,1.08,6.83c.71,1.71,2.33,2.56,4.84,2.56a4.82,4.82,0,0,0,4.08-1.92A6.54,6.54,0,0,0,462.92,90.32Z"/><path class="cls-4" d="M486.59,95.49q-1.18,2.37-2.48,4.74T482,102.6a17,17,0,0,1-4-.77,12.14,12.14,0,0,1-5.47-3.65c-1.81-1.92-2.72-4.77-2.72-8.52q0-4,1-5.66a22.51,22.51,0,0,1,3.65-4.39c1.79-1.8,3-3,3.48-3.46a2.19,2.19,0,0,1,1.31-.77q2.25,1.58,4.54,3.32a7.84,7.84,0,0,1,2.62,2.71L475.57,92a6.56,6.56,0,0,0,2.86,3.22,10.79,10.79,0,0,0,4.25.69,11.4,11.4,0,0,0,3.43-.38Zm-11.33-5.84,5.12-5a4.64,4.64,0,0,0-1.6-1.76,15.79,15.79,0,0,0-1.88-1c-.67,0-1.31.56-1.93,1.69A7.21,7.21,0,0,0,474,87,2.73,2.73,0,0,0,475.26,89.65Z"/><path class="cls-4" d="M499.48,99.24c0,.23-.69.82-2.08,1.77a8.36,8.36,0,0,1-2.5,1.43q-.39,0-2.58-2.1c-1.46-1.4-2.2-2.31-2.2-2.72V73.25a7.69,7.69,0,0,0-.55-3,9.49,9.49,0,0,0-1.74-2.63v-.72l7.31-3.92h.95V92.55q0,3.35,1.69,4.71C498.91,98.17,499.48,98.83,499.48,99.24Z"/><path class="cls-4" d="M523.87,90.43a9,9,0,0,1-2.6,6.44,21.08,21.08,0,0,1-5.71,4.3,17.79,17.79,0,0,1-3.53,1.57q-3.52,0-7-4.84a16.59,16.59,0,0,1-3.49-9.76,9.45,9.45,0,0,1,2.7-6.78A21,21,0,0,1,510.12,77a18.16,18.16,0,0,1,3.68-1.58q3.19,0,6.63,4.54A16.9,16.9,0,0,1,523.87,90.43Zm-3.44,1.38q0-3-3-6.37A9.34,9.34,0,0,0,510.17,82a5.76,5.76,0,0,0-3.6,1.26,3.78,3.78,0,0,0-1.65,3.08c0,1.81,1,3.86,3.13,6.13A9.25,9.25,0,0,0,515,95.92a7.55,7.55,0,0,0,4-.91A3.46,3.46,0,0,0,520.43,91.81Z"/><path class="cls-4" d="M550.55,101.79a3.64,3.64,0,0,1-1.48.24c-.25,0-1,0-2.17-.12s-2-.12-2.55-.12V86.46a6.61,6.61,0,0,0-.86-3.92,3.89,3.89,0,0,0-3.2-1.1,8.86,8.86,0,0,0-3.15.62c-1.08.42-1.62.89-1.62,1.44v18.72h-5.78v-19a2.1,2.1,0,0,0-1.1-1.77A15.8,15.8,0,0,0,525.4,80v-.67l5.25-3.86a11.82,11.82,0,0,1,3.72,2.34c.51.73,1,1.46,1.57,2.19L543,75.24a15,15,0,0,1,5.89,2.62q1.65,1.48,1.65,5.11Z"/><path class="cls-4" d="M578.38,81.6c0,.35-.35.84-1,1.48a2.71,2.71,0,0,0-1.05,2v7.4a9.37,9.37,0,0,0-.15,1.46c0,.65,0,1,0,1a21.88,21.88,0,0,0,.94,5.68,21,21,0,0,1,.93,4.58c0,2-1.12,4-3.34,6.11a12.22,12.22,0,0,1-8.74,3.15,13.32,13.32,0,0,1-7.33-2.13,11.66,11.66,0,0,1-4.7-5.94l5.59-2.28h.67a11,11,0,0,0,2,4.9,4.79,4.79,0,0,0,4,2,6.21,6.21,0,0,0,4.15-1.36,4.58,4.58,0,0,0,1.62-3.7,21,21,0,0,0-.81-3,17.26,17.26,0,0,1-.81-5.1h-.67c-.47.44-1.68,1.41-3.6,2.89a21.77,21.77,0,0,1-3.13,2.21c-1.84,0-3.81-1.2-5.89-3.61a11.62,11.62,0,0,1-3.13-7.77,11.41,11.41,0,0,1,1.15-5.3,14.85,14.85,0,0,1,2.5-3.64c.91-.92,2.68-2.44,5.33-4.56s4.13-3.18,4.48-3.18l5.78,3.24L576.71,80C577.82,80.72,578.38,81.25,578.38,81.6Zm-8.31,12V84.41a10.78,10.78,0,0,0-2.76-2c-1-.54-2-1-2.85-1.43q-1.73,0-3.19,3a12.21,12.21,0,0,0-1.46,4.59A7.58,7.58,0,0,0,561.92,94c1.4,1.5,2.72,2.24,3.93,2.24a4.8,4.8,0,0,0,3.17-.9A2.46,2.46,0,0,0,570.07,93.63Z"/><path class="cls-4" d="M65.18,136.92H59.45v14A3.53,3.53,0,0,0,61,154.08a6.52,6.52,0,0,0,3.73,1V156q-2.39,1.89-3.74,2.82a4.8,4.8,0,0,1-1.75.94c-.92,0-2.1-.62-3.55-1.88a5.57,5.57,0,0,1-2.17-4.31v-16a3.33,3.33,0,0,0-1.91-.62H49.29v-2.48l8.35-7.36h1.57c0,.74,0,1.4.08,2s.11,1.21.16,1.81a10.25,10.25,0,0,1-.24,2.1h6Z"/><path class="cls-4" d="M89.67,147.7a9,9,0,0,1-2.61,6.45,21,21,0,0,1-5.7,4.29A18.5,18.5,0,0,1,77.83,160q-3.54,0-7-4.85a16.62,16.62,0,0,1-3.48-9.76A9.45,9.45,0,0,1,70,138.64a21.08,21.08,0,0,1,5.9-4.4,18.08,18.08,0,0,1,3.67-1.57q3.21,0,6.64,4.53A16.94,16.94,0,0,1,89.67,147.7Zm-3.44,1.39c0-2-1-4.1-3-6.37A9.31,9.31,0,0,0,76,139.3a5.82,5.82,0,0,0-3.61,1.27,3.78,3.78,0,0,0-1.64,3.08c0,1.81,1,3.86,3.12,6.13a9.28,9.28,0,0,0,7,3.41,7.54,7.54,0,0,0,4-.9A3.47,3.47,0,0,0,86.23,149.09Z"/><path class="cls-4" d="M131.43,136.92H125.7v14a3.53,3.53,0,0,0,1.52,3.13,6.5,6.5,0,0,0,3.73,1V156q-2.38,1.89-3.74,2.82a4.8,4.8,0,0,1-1.75.94c-.92,0-2.1-.62-3.55-1.88a5.57,5.57,0,0,1-2.17-4.31v-16a3.33,3.33,0,0,0-1.91-.62h-2.29v-2.48l8.35-7.36h1.57c0,.74,0,1.4.08,2s.11,1.21.16,1.81a10.25,10.25,0,0,1-.24,2.1h6Z"/><path class="cls-4" d="M141.45,133.39v3.48h.67a17.54,17.54,0,0,0,2.82-2.05,9.4,9.4,0,0,1,2.72-1.86c2.22,0,4.47,1.22,6.73,3.67a12.75,12.75,0,0,1,3.39,9,15.32,15.32,0,0,1-1.27,5.82,16.78,16.78,0,0,1-3.67,5.46q-2.4,2.42-3.55,3.39c-.76.65-1.24,1-1.44,1a11.75,11.75,0,0,1-1.43-1.39,34.34,34.34,0,0,0,5.07-6.94,12.1,12.1,0,0,0,1-5,10.12,10.12,0,0,0-1.85-5.87,6,6,0,0,0-5.29-2.67,6.12,6.12,0,0,0-2.83.48,1.91,1.91,0,0,0-.87,1.86v17.9a22.28,22.28,0,0,1-3.55.19c-.47,0-.89,0-1.25,0a6.2,6.2,0,0,1-1.16-.16V130.9a8.92,8.92,0,0,0-.62-3.58q-.72-1.18-1.44-2.43c0-.19,1.06-.84,3.18-2s3.43-1.83,3.94-2.15h1.38a32.11,32.11,0,0,0-.24,3.68c0,1-.07,2.59-.21,4.82S141.45,132.88,141.45,133.39Z"/><path class="cls-4" d="M176.58,152.76c-.79,1.58-1.62,3.17-2.48,4.75s-1.56,2.37-2.1,2.37a17,17,0,0,1-4-.77,12.36,12.36,0,0,1-5.47-3.65q-2.72-2.9-2.72-8.53,0-4,1-5.65a22.51,22.51,0,0,1,3.65-4.4q2.7-2.7,3.48-3.46a2.16,2.16,0,0,1,1.31-.76q2.25,1.58,4.54,3.32a7.84,7.84,0,0,1,2.62,2.7l-10.78,10.55a6.51,6.51,0,0,0,2.86,3.22,10.78,10.78,0,0,0,4.25.7,11.13,11.13,0,0,0,3.44-.39Zm-11.33-5.84,5.12-5a4.75,4.75,0,0,0-1.6-1.77,19.22,19.22,0,0,0-1.88-1.05c-.67,0-1.31.57-1.93,1.7a7.2,7.2,0,0,0-.93,3.5A2.71,2.71,0,0,0,165.25,146.92Z"/><path class="cls-4" d="M241.16,159.64h-5.68V145.7a10.69,10.69,0,0,0-.88-5.06c-.59-1-1.9-1.53-3.94-1.53-1.84,0-3.08.26-3.7.77a3.1,3.1,0,0,0-.93,2.53c0,.66.06,1.61.17,2.84s.16,2,.16,2.31v12.08h-6V142.5a3.07,3.07,0,0,0-1.41-2.62,5.41,5.41,0,0,0-3.22-1c-.16,0-.89.16-2.2.46a11.19,11.19,0,0,0-2.34.69v19.62h-5.68V143.46c0-2.23-.26-3.74-.78-4.54s-1.65-1.19-3.37-1.19v-.48a5,5,0,0,1,1.79-2c1.07-.83,2.14-1.63,3.22-2.39,1.24,0,2.42.79,3.54,2.39.47.89,1,1.78,1.48,2.68H212a32.12,32.12,0,0,1,3.72-2.85,16.49,16.49,0,0,1,3.58-2.22,8.9,8.9,0,0,1,3.08.88,7.08,7.08,0,0,1,2.51,1.46,6.65,6.65,0,0,1,.81,1.65c.25.72.57,1.08.95,1.08q.15,0,3.73-2.54t4.2-2.53a7,7,0,0,1,4.44,1.83q2.19,1.85,2.19,6.14Z"/><path class="cls-4" d="M267.46,152.05a2.55,2.55,0,0,0,1.36,2.36c.91.53,1.36,1,1.36,1.5,0,.32-.68,1.05-2.05,2.2a11.56,11.56,0,0,1-2.29,1.72c-1.12,0-2.15-.8-3.11-2.39-.76-1.68-1.17-2.58-1.24-2.67a23.81,23.81,0,0,0-4.05,2.79c-1.91,1.51-3.09,2.27-3.54,2.27s-1.89-.71-4.05-2.13-3.25-2.84-3.25-4.27V144a4,4,0,0,1-.14-.83c0-.37-.05-.68-.05-.93v-2.06a4.91,4.91,0,0,0-1.36-2.07c-.78-.82-1.17-1.35-1.17-1.6.83-.89,1.67-1.77,2.53-2.63s1.46-1.29,1.82-1.29a1,1,0,0,1,.69.34,7.47,7.47,0,0,0,.64.62,6.54,6.54,0,0,1,2.48,2.58,10.16,10.16,0,0,1,.53,3.77V150a3.46,3.46,0,0,0,1.57,2.67,4.94,4.94,0,0,0,3,1.24,5.51,5.51,0,0,0,2.22-.57,10.61,10.61,0,0,0,2.36-1.48V133.53c.86-.19,1.74-.38,2.63-.55a12.43,12.43,0,0,0,1.72-.41h1.62v11.94c0,1,0,2.2-.1,3.65S267.49,150.9,267.46,152.05Z"/><path class="cls-4" d="M297.15,156.25a28.81,28.81,0,0,0-3.17,2.38c-1,.86-1.61,1.29-1.87,1.29-.89,0-2-.68-3.31-2s-1.8-2.19-1.87-2.29c-.38.32-1.47,1.12-3.28,2.41a12.62,12.62,0,0,1-3.14,1.93q-2,0-5.42-3.48a12.59,12.59,0,0,1-3.48-9.31,12.19,12.19,0,0,1,2.17-7,22.83,22.83,0,0,1,4.73-5.16c1.7-1.32,2.74-2,3.13-2a10.08,10.08,0,0,1,2,.84,20.34,20.34,0,0,1,2.75,1.88h.52V131a16.56,16.56,0,0,0-.47-4.53l-1.15-2.1c0-.19.68-.68,2-1.46a53.33,53.33,0,0,1,4.8-2.41h.47v31.26c.54.86,1.1,1.72,1.67,2.58a3.87,3.87,0,0,0,2.87.86Zm-10.22-6.11V144a5.12,5.12,0,0,0-2-3.7,5.84,5.84,0,0,0-3.69-1.84,4.94,4.94,0,0,0-3.46,2,6.39,6.39,0,0,0-1.79,4.44c0,1.15.62,2.84,1.88,5.08s2.84,3.37,4.75,3.37a4.55,4.55,0,0,0,3.2-1A2.94,2.94,0,0,0,286.93,150.14Z"/><path class="cls-4" d="M305,147.93l4.2,5.36-4.59,6.12-5.34-6.12Z"/><path class="cls-4" d="M320.63,147.93l4.2,5.36-4.58,6.12-5.35-6.12Z"/><path class="cls-4" d="M388.17,147.58c0,1-.71,2.58-2.12,4.69a21.07,21.07,0,0,1-5.78,5.65,14.1,14.1,0,0,1-8.09,2.48c-2-.46-4.15-.87-6.32-1.21a35.82,35.82,0,0,0-5.23-.51,10.91,10.91,0,0,0-3.72.56c-1.09.53-1.91.91-2.49,1.16v-1.33a31,31,0,0,1,1.75-3,7.92,7.92,0,0,0,1.36-4.06V135.18a9.81,9.81,0,0,0-.79-4.15,5.38,5.38,0,0,0-2.75-2.57v-1.29a54,54,0,0,0,10.77-3.62A19.52,19.52,0,0,1,373,121.4a14.33,14.33,0,0,1,7.56,2.17,6.61,6.61,0,0,1,3.56,5.84,5,5,0,0,1-2,4q-1.95,1.62-3.81,3.1,3.53,2.72,7.11,5.43A7.28,7.28,0,0,1,388.17,147.58Zm-24-14.62v8a4.92,4.92,0,0,1,.67-.17.27.27,0,0,1,.29.17,61.19,61.19,0,0,1,6.7-4.3q5.7-3.39,5.71-7.21a5.05,5.05,0,0,0-1.6-3.84,5.32,5.32,0,0,0-3.75-1.5,8.42,8.42,0,0,0-5.73,2.19,6.76,6.76,0,0,0-2.48,5.21c0,.22,0,.42,0,.59S364.07,132.54,364.16,133Zm16,17.72a7.07,7.07,0,0,0-2.91-5.61,45.32,45.32,0,0,0-5.92-4.14c-.86,0-2.27.69-4.22,2.09s-2.94,2.32-2.94,2.76a16,16,0,0,0,2,8,6.87,6.87,0,0,0,6.47,3.5,9.09,9.09,0,0,0,4.77-1.83A5.54,5.54,0,0,0,380.15,150.68Z"/><path class="cls-4" d="M406.83,152.76c-.79,1.58-1.62,3.17-2.48,4.75s-1.56,2.37-2.1,2.37a17,17,0,0,1-4-.77,12.36,12.36,0,0,1-5.47-3.65q-2.72-2.9-2.72-8.53,0-4,1-5.65a22.51,22.51,0,0,1,3.65-4.4q2.7-2.7,3.48-3.46a2.15,2.15,0,0,1,1.32-.76q2.24,1.58,4.53,3.32a7.84,7.84,0,0,1,2.62,2.7l-10.78,10.55a6.51,6.51,0,0,0,2.86,3.22,10.78,10.78,0,0,0,4.25.7,11.13,11.13,0,0,0,3.44-.39Zm-11.33-5.84,5.12-5a4.75,4.75,0,0,0-1.6-1.77,19.22,19.22,0,0,0-1.88-1.05c-.67,0-1.31.57-1.93,1.7a7.2,7.2,0,0,0-.93,3.5A2.71,2.71,0,0,0,395.5,146.92Z"/><path class="cls-4" d="M424.59,136.92h-5.73v14a3.53,3.53,0,0,0,1.51,3.13,6.55,6.55,0,0,0,3.74,1V156q-2.39,1.89-3.75,2.82a4.71,4.71,0,0,1-1.74.94c-.92,0-2.11-.62-3.55-1.88a5.58,5.58,0,0,1-2.18-4.31v-16a3.14,3.14,0,0,0-1-.48,3.3,3.3,0,0,0-.94-.14h-2.29v-2.48l8.36-7.36h1.57c0,.74,0,1.4.08,2s.11,1.21.16,1.81a10.25,10.25,0,0,1-.24,2.1h6Z"/><path class="cls-4" d="M442.53,136.92h-5.72v14a3.53,3.53,0,0,0,1.51,3.13,6.53,6.53,0,0,0,3.74,1V156q-2.38,1.89-3.75,2.82a4.87,4.87,0,0,1-1.74.94c-.92,0-2.11-.62-3.56-1.88a5.57,5.57,0,0,1-2.17-4.31v-16a3.33,3.33,0,0,0-1.91-.62h-2.29v-2.48l8.35-7.36h1.58c0,.74,0,1.4.08,2s.1,1.21.16,1.81a10.25,10.25,0,0,1-.24,2.1h6Z"/><path class="cls-4" d="M461.63,152.76c-.8,1.58-1.63,3.17-2.49,4.75s-1.56,2.37-2.1,2.37a17.1,17.1,0,0,1-4-.77,12.28,12.28,0,0,1-5.46-3.65c-1.82-1.93-2.72-4.77-2.72-8.53,0-2.64.31-4.52.95-5.65a22.88,22.88,0,0,1,3.65-4.4q2.7-2.7,3.49-3.46a2.14,2.14,0,0,1,1.31-.76c1.49,1.05,3,2.16,4.53,3.32a7.9,7.9,0,0,1,2.63,2.7L450.6,149.23a6.52,6.52,0,0,0,2.87,3.22,10.72,10.72,0,0,0,4.24.7,11.09,11.09,0,0,0,3.44-.39Zm-11.33-5.84,5.11-5a4.72,4.72,0,0,0-1.59-1.77,19.32,19.32,0,0,0-1.89-1.05c-.66,0-1.31.57-1.93,1.7a7.2,7.2,0,0,0-.93,3.5A2.69,2.69,0,0,0,450.3,146.92Z"/><path class="cls-4" d="M482,139.34c0,.64-.71,1.65-2.13,3a11.16,11.16,0,0,1-3.89,2.72q-.06-.48-.12-2c-.05-1-.07-1.9-.07-2.66v-1.29h-.95a1.77,1.77,0,0,0-1.24.48,1.43,1.43,0,0,0-.53,1.09v19H467.4V145a12.05,12.05,0,0,0-.83-5,5.15,5.15,0,0,0-3.61-2.43v-.48a29.6,29.6,0,0,1,2.65-2.14,11.33,11.33,0,0,1,2.6-1.72,3.54,3.54,0,0,1,2.72,1.7c.86,1.13,1.58,2.07,2.15,2.84l3.77-3a8.63,8.63,0,0,1,2.15-1.51c.41,0,1,.6,1.81,1.79A7.63,7.63,0,0,1,482,139.34Z"/><path class="cls-4" d="M518.62,156.52c0,.22-.7.81-2.08,1.77a8.48,8.48,0,0,1-2.51,1.43c-.25,0-1.11-.7-2.57-2.1s-2.2-2.31-2.2-2.72V130.53a7.71,7.71,0,0,0-.55-3.06,9.45,9.45,0,0,0-1.74-2.62v-.72l7.3-3.92h1v29.62q0,3.34,1.69,4.71C518.05,155.44,518.62,156.11,518.62,156.52Z"/><path class="cls-4" d="M543.63,152.05a2.55,2.55,0,0,0,1.36,2.36c.9.53,1.36,1,1.36,1.5,0,.32-.69,1.05-2.05,2.2a11.43,11.43,0,0,1-2.3,1.72c-1.11,0-2.14-.8-3.1-2.39-.76-1.68-1.18-2.58-1.24-2.67a23.36,23.36,0,0,0-4.06,2.79c-1.91,1.51-3.08,2.27-3.53,2.27s-1.89-.71-4.06-2.13-3.24-2.84-3.24-4.27V144a3.43,3.43,0,0,1-.14-.83,8.55,8.55,0,0,1,0-.93v-2.06a4.91,4.91,0,0,0-1.36-2.07c-.78-.82-1.17-1.35-1.17-1.6.82-.89,1.67-1.77,2.53-2.63s1.46-1.29,1.81-1.29a.92.92,0,0,1,.69.34,7.58,7.58,0,0,0,.65.62,6.62,6.62,0,0,1,2.48,2.58,10.19,10.19,0,0,1,.52,3.77V150a3.47,3.47,0,0,0,1.58,2.67,4.92,4.92,0,0,0,3,1.24,5.59,5.59,0,0,0,2.22-.57,10.61,10.61,0,0,0,2.36-1.48V133.53c.86-.19,1.73-.38,2.62-.55a12,12,0,0,0,1.72-.41h1.63v11.94c0,1,0,2.2-.1,3.65S543.66,150.9,543.63,152.05Z"/><path class="cls-4" d="M565.53,152.57a37.72,37.72,0,0,1-3.19,5.42c-.93,1.23-2.72,1.84-5.4,1.84a9.38,9.38,0,0,1-8.87-8.45V140.73c0-.61.54-1.23,1.62-1.87s2.79-1.74,5.13-3.31a21.23,21.23,0,0,1,3.89-2.37c1.24.83,2.54,1.69,3.89,2.56a19,19,0,0,1,2.7,2,14.59,14.59,0,0,1-1.65,2.43c-1,1.28-1.55,1.91-1.74,1.91a13.54,13.54,0,0,1-3-2c-1.75-1.35-3-2-3.87-2a1.32,1.32,0,0,0-.91.52,1.6,1.6,0,0,0-.47,1.05v10a4.32,4.32,0,0,0,1.43,3.11,4.87,4.87,0,0,0,3.58,1.43,7.9,7.9,0,0,0,3.32-.84,9.3,9.3,0,0,0,2.84-1.93h.66Z"/><path class="cls-4" d="M591.26,159.59h-6.4a15.59,15.59,0,0,0-2.07-7.9,6.39,6.39,0,0,0-5.75-3.6,1.24,1.24,0,0,0-1.15.47,3.39,3.39,0,0,0-.28,1.63v9.4H570V130.23a5.12,5.12,0,0,0-.81-2.29c-.54-1-1.11-1.86-1.72-2.72,0-.16,1.09-.85,3.25-2.07a46.34,46.34,0,0,1,5-2.56q.09.19.48,0c-.15.67-.29,1.36-.4,2.08a10.43,10.43,0,0,0-.17,1.6v13.27c.83.13,2.09-.64,3.79-2.29s2.74-2.49,3.12-2.49c1.7,0,3.44,1,5.22,3a10.35,10.35,0,0,1,2.66,7.07c0,.79-.74,1.47-2.22,2a14.87,14.87,0,0,0-2.65,1.17,24,24,0,0,1,4.35,7.07q1.1,3.57,1.38,4.44Zm-7.35-17.9a2.91,2.91,0,0,0-1-1.91,3.24,3.24,0,0,0-2.34-1.05,5.14,5.14,0,0,0-3.12,1.08,3.76,3.76,0,0,0-1.46,3.26v1.34a2.51,2.51,0,0,0,.12.88c.08.21.27.31.59.31q3.47,0,4.93-1.29A12.07,12.07,0,0,0,583.91,141.69Z"/><path class="cls-4" d="M74,216.34a3.64,3.64,0,0,1-1.48.24c-.25,0-1,0-2.17-.12s-2-.12-2.55-.12V201a6.63,6.63,0,0,0-.86-3.92c-.57-.73-1.64-1.09-3.2-1.09a8.64,8.64,0,0,0-3.15.62c-1.08.41-1.62.89-1.62,1.43v18.72H53.15v-19a2,2,0,0,0-1.1-1.76,15.8,15.8,0,0,0-3.24-1.48v-.67L54.06,190a12.07,12.07,0,0,1,3.72,2.34c.51.73,1,1.46,1.58,2.2l7.06-4.79c2.83.77,4.8,1.64,5.9,2.63S74,195.11,74,197.53Z"/><path class="cls-4" d="M94.1,210q-1.18,2.37-2.48,4.74t-2.1,2.37a16.87,16.87,0,0,1-4-.76A12.36,12.36,0,0,1,80,212.74q-2.72-2.9-2.72-8.53,0-4,1-5.66a22.51,22.51,0,0,1,3.65-4.39q2.7-2.7,3.48-3.46a2.21,2.21,0,0,1,1.32-.77c1.49,1.06,3,2.16,4.53,3.33a7.91,7.91,0,0,1,2.63,2.7L83.08,206.51a6.51,6.51,0,0,0,2.86,3.22,10.79,10.79,0,0,0,4.25.69,11.19,11.19,0,0,0,3.44-.38ZM82.78,204.2l5.11-5a4.59,4.59,0,0,0-1.6-1.77,18.12,18.12,0,0,0-1.88-1.05c-.67,0-1.31.57-1.93,1.7a7.14,7.14,0,0,0-.93,3.5A2.7,2.7,0,0,0,82.78,204.2Z"/><path class="cls-4" d="M120.36,196.15c0,.19-.53.81-1.58,1.86s-1.69,1.58-1.91,1.58a4.79,4.79,0,0,1-2.17-1,4.91,4.91,0,0,0-2.6-1,2,2,0,0,0-1.67.79,5.18,5.18,0,0,0-.62,3v.77q0,5.91,2.07,6.54a72.13,72.13,0,0,0,8,1.52V211a18.46,18.46,0,0,1-3,3.92,34.76,34.76,0,0,1-2.67,2.29L106.8,211l-8.88,8.26a1.88,1.88,0,0,0-1,.26,2.18,2.18,0,0,1-.46.25c-.38-.28-.74-.57-1.09-.86s-.53-.54-.53-.76.88-1.5,2.65-3.65a69.56,69.56,0,0,0,4.6-6.22,10.06,10.06,0,0,0,2-5.25,5.24,5.24,0,0,0-2-4.49l-6.2-2.67,3.48-6h.67l7.3,6.49,7.16-6.21a21.79,21.79,0,0,1,3.34,2.79C119.48,194.66,120.36,195.71,120.36,196.15Z"/><path class="cls-4" d="M138.59,194.19h-5.73v14a3.52,3.52,0,0,0,1.51,3.12,6.48,6.48,0,0,0,3.74,1v.87q-2.38,1.88-3.75,2.82a4.89,4.89,0,0,1-1.74.94c-.92,0-2.11-.63-3.55-1.88a5.59,5.59,0,0,1-2.17-4.31v-16a3.26,3.26,0,0,0-1-.47,3.32,3.32,0,0,0-.93-.15h-2.3v-2.48l8.36-7.35h1.57c0,.73,0,1.4.08,2s.11,1.21.16,1.81a10.25,10.25,0,0,1-.24,2.1h6Z"/><path class="cls-4" d="M180.4,194.19h-5.73v14a3.51,3.51,0,0,0,1.52,3.12,6.43,6.43,0,0,0,3.73,1v.87q-2.38,1.88-3.74,2.82a5,5,0,0,1-1.75.94c-.92,0-2.1-.63-3.55-1.88a5.59,5.59,0,0,1-2.17-4.31v-16a3.26,3.26,0,0,0-1-.47,3.32,3.32,0,0,0-.93-.15h-2.29v-2.48l8.35-7.35h1.57c0,.73,0,1.4.08,2s.11,1.21.16,1.81a10.25,10.25,0,0,1-.24,2.1h6Z"/><path class="cls-4" d="M196.87,214.05a32.23,32.23,0,0,1-2.89,1.79,12.91,12.91,0,0,1-2.89,1.46c-1-.77-1.92-1.59-2.89-2.46s-1.45-1.6-1.45-2.17V198.39a3.12,3.12,0,0,0-1.86-2.76q-1.86-1-1.86-1.44c.89-.86,1.81-1.71,2.75-2.57s1.56-1.29,1.85-1.29A27.3,27.3,0,0,1,191,193a4.72,4.72,0,0,1,1.67,3.51v8.55a20.12,20.12,0,0,0,.64,6.06c.43,1.18,1.6,1.84,3.52,2Zm-3.39-34.61v1.87a1.57,1.57,0,0,1-1.14,1.57q-3,.85-6.45,1.91a2.26,2.26,0,0,1-.1-.57v-1.05a3.07,3.07,0,0,1,1.92-2.67l4.91-2.68h.72a4.34,4.34,0,0,1,.14,1v.66Z"/><path class="cls-4" d="M237.06,216.91h-5.68V203a10.64,10.64,0,0,0-.89-5.06q-.88-1.53-3.93-1.53c-1.85,0-3.08.26-3.7.76a3.08,3.08,0,0,0-.93,2.53c0,.67,0,1.62.16,2.84s.17,2,.17,2.32v12.07h-6V199.78a3.09,3.09,0,0,0-1.41-2.63,5.38,5.38,0,0,0-3.22-1,21.85,21.85,0,0,0-2.19.45,11.15,11.15,0,0,0-2.34.7v19.61h-5.68V200.73c0-2.22-.26-3.74-.79-4.53S199,195,197.3,195v-.48a4.83,4.83,0,0,1,1.79-2c1.06-.82,2.14-1.62,3.22-2.39,1.24,0,2.42.8,3.53,2.39.48.9,1,1.79,1.48,2.68h.52a35.64,35.64,0,0,1,3.73-2.84,16.06,16.06,0,0,1,3.58-2.23,9,9,0,0,1,3.08.89,7.11,7.11,0,0,1,2.5,1.46,6,6,0,0,1,.81,1.65c.26.72.58,1.07,1,1.07q.13,0,3.72-2.53t4.2-2.54a6.93,6.93,0,0,1,4.44,1.84c1.46,1.23,2.2,3.27,2.2,6.14Z"/><path class="cls-4" d="M257.34,210q-1.18,2.37-2.48,4.74t-2.1,2.37a16.87,16.87,0,0,1-4-.76,12.31,12.31,0,0,1-5.47-3.65q-2.72-2.9-2.72-8.53a12.36,12.36,0,0,1,1-5.66,23,23,0,0,1,3.66-4.39c1.79-1.8,3-2.95,3.48-3.46a2.19,2.19,0,0,1,1.31-.77c1.5,1.06,3,2.16,4.54,3.33a7.75,7.75,0,0,1,2.62,2.7l-10.78,10.55a6.51,6.51,0,0,0,2.86,3.22,10.79,10.79,0,0,0,4.25.69,11.08,11.08,0,0,0,3.43-.38ZM246,204.2l5.12-5a4.67,4.67,0,0,0-1.6-1.77,19.22,19.22,0,0,0-1.88-1.05c-.67,0-1.31.57-1.93,1.7a7.14,7.14,0,0,0-.93,3.5A2.72,2.72,0,0,0,246,204.2Z"/><path class="cls-4" d="M265.45,205.21l4.21,5.35-4.59,6.13-5.34-6.13Z"/></g></svg>
