<svg xmlns="http://www.w3.org/2000/svg" width="70" height="60" viewBox="0 0 70 60"><defs><style>.cls-1{fill:#f7119a;}.cls-2{opacity:0.46;}.cls-3{fill:#bc0a6c;}.cls-4{fill:#f9f9f9;}.cls-5{opacity:0.65;}.cls-6{fill:#ff1ab9;}.cls-7{opacity:0.64;}.cls-8{fill:#f40824;}.cls-9{opacity:0.5;}.cls-10{fill:#f7f5f5;}</style></defs><title>godkarakter--</title><g id="Layer_2" data-name="Layer 2"><path class="cls-1" d="M19.78,11.51l3.76.86a3,3,0,0,1,1.51,4.91l-8.32,9a3,3,0,0,1-5-1.15l-1.13-3.68A7.8,7.8,0,0,1,19.78,11.51Z"/><g class="cls-2"><path class="cls-3" d="M16.14,18.22h0a3,3,0,0,1-3.47,0h0a3,3,0,0,1,2.41-5.25h0A3,3,0,0,1,16.14,18.22Z"/></g><path class="cls-1" d="M58.13,19.91l-1.28,6.26a2.61,2.61,0,0,1-4.29,1.43l-10.07-9a2.61,2.61,0,0,1,.9-4.42l6.07-2A6.69,6.69,0,0,1,58.13,19.91Z"/><ellipse class="cls-1" cx="35.41" cy="30.32" rx="18.38" ry="24.36" transform="translate(4.61 65.3) rotate(-89.21)"/><ellipse class="cls-4" cx="50.9" cy="28.09" rx="5.23" ry="6.24" transform="translate(-6.26 17.49) rotate(-18.38)"/><g class="cls-5"><ellipse class="cls-6" cx="35.73" cy="33.27" rx="8.57" ry="6.2" transform="translate(-0.8 0.88) rotate(-1.39)"/></g><ellipse cx="32.34" cy="32.99" rx="1.21" ry="2.17" transform="translate(-0.79 0.79) rotate(-1.39)"/><ellipse cx="38.34" cy="32.85" rx="1.25" ry="2.17" transform="translate(-0.79 0.94) rotate(-1.39)"/><ellipse cx="50.97" cy="28.06" rx="2.78" ry="4.21" transform="translate(-5.33 13.37) rotate(-14.21)"/><ellipse class="cls-4" cx="22" cy="28.49" rx="6.24" ry="5.23" transform="translate(-9.01 46.77) rotate(-82.85)"/><g class="cls-7"><circle class="cls-8" cx="23.44" cy="40.09" r="4.39"/></g><g class="cls-7"><circle class="cls-8" cx="47.41" cy="39.58" r="4.39"/></g><g class="cls-9"><path d="M25.9,21.12a2,2,0,0,0-1.63-1,5.81,5.81,0,0,0-3.06.51l-.34-.78a.2.2,0,0,1,.11-.26,6.91,6.91,0,0,1,3.43-.51,2.94,2.94,0,0,1,2.45,1.6Z"/></g><g class="cls-9"><path d="M47.73,22l-.53-.67a.21.21,0,0,1,0-.28,6.88,6.88,0,0,1,3.18-1.37,3,3,0,0,1,2.78.92l-.82.65a2,2,0,0,0-1.83-.53A6,6,0,0,0,47.73,22Z"/></g><ellipse cx="21.98" cy="28.45" rx="4.21" ry="2.78" transform="translate(-11.81 40.73) rotate(-72.28)"/><circle class="cls-10" cx="22.31" cy="24.43" r="0.8"/><g class="cls-2"><path class="cls-3" d="M55.67,18.22h0a2.94,2.94,0,0,1-3.46,0h0a3,3,0,0,1,2.4-5.25h0A3,3,0,0,1,55.67,18.22Z"/></g><circle class="cls-10" cx="50.34" cy="24.43" r="0.8"/></g></svg>
