<svg xmlns="http://www.w3.org/2000/svg" width="680" height="350" viewBox="0 0 680 350"><defs><style>.cls-1{opacity:0.72;}.cls-2{fill:#847070;}.cls-3{fill:#fffdfd;}.cls-4{fill:#fff;}</style></defs><title>howtoplay</title><g id="Layer_2" data-name="Layer 2"><g class="cls-1"><rect x="10" y="4.9" width="666.19" height="341.27" rx="47.56"/></g><rect class="cls-2" x="3.81" y="3.83" width="664.25" height="333.32" rx="47.56"/><path class="cls-3" d="M82.55,76a24,24,0,0,1-2.25,1.34c-1,.58-2.76,1.47-5.15,2.68a17.14,17.14,0,0,0-2.79-4.54,5.22,5.22,0,0,0-4-1.72A3.47,3.47,0,0,0,65.41,75a15.55,15.55,0,0,0-2,3.68v5.77H78.16c-.23.51-.45,1-.67,1.63a8.41,8.41,0,0,0-.34,2.86c-.12,0-1.38.07-3.77.22s-4.12.21-5.2.21c-1.31,0-2.24,0-2.79-.07a12.33,12.33,0,0,1-1.94-.36A98.34,98.34,0,0,1,63,99.46a30.52,30.52,0,0,1-2.79,9.65,16.18,16.18,0,0,1-7.11,7.56v-1q1.58-5,2.53-8.21a19.4,19.4,0,0,0,1-5.2V89.37H51.62c0-.41,0-.94.05-1.58s0-1.08,0-1.33v-.57c0-.16,0-.5-.09-1h4.91V83.16c-.22-.6-.5-1.56-.83-2.89s-.71-2.6-1.12-3.84l18.09-9.84a19.76,19.76,0,0,1,4.84,3.61Q79.4,72.18,82.55,76Z"/><path class="cls-3" d="M97.63,102.5a32.23,32.23,0,0,1-2.89,1.79,12.61,12.61,0,0,1-2.89,1.45q-1.42-1.14-2.88-2.46c-1-.87-1.46-1.6-1.46-2.17V86.84a3.13,3.13,0,0,0-1.86-2.77c-1.24-.7-1.86-1.17-1.86-1.43q1.33-1.29,2.76-2.58c.94-.86,1.55-1.29,1.84-1.29a28.37,28.37,0,0,1,3.41,2.7A4.67,4.67,0,0,1,93.48,85v8.54a20.11,20.11,0,0,0,.63,6.06c.43,1.18,1.6,1.85,3.52,2ZM94.24,67.89v1.86a1.58,1.58,0,0,1-1.14,1.58q-3,.86-6.45,1.91a2.84,2.84,0,0,1-.09-.58v-1a3.07,3.07,0,0,1,1.92-2.67l4.91-2.67h.71a4.35,4.35,0,0,1,.14,1v.67Z"/><path class="cls-3" d="M123.64,104.79a3.64,3.64,0,0,1-1.48.24c-.25,0-1,0-2.17-.12s-2-.12-2.55-.12V89.46a6.61,6.61,0,0,0-.86-3.92c-.57-.73-1.64-1.1-3.2-1.1a8.86,8.86,0,0,0-3.15.62c-1.08.42-1.62.89-1.62,1.44v18.72h-5.78v-19a2.07,2.07,0,0,0-1.1-1.77A15.8,15.8,0,0,0,98.49,83v-.67l5.25-3.86a11.7,11.7,0,0,1,3.72,2.34c.51.73,1,1.46,1.58,2.19l7.06-4.78a15.1,15.1,0,0,1,5.9,2.62q1.64,1.48,1.64,5.11Z"/><path class="cls-3" d="M151.8,102a28.77,28.77,0,0,0-3.16,2.39c-1,.86-1.62,1.29-1.87,1.29-.9,0-2-.69-3.31-2.06s-1.81-2.19-1.87-2.29c-.38.32-1.48,1.12-3.29,2.41a12.65,12.65,0,0,1-3.14,1.94c-1.3,0-3.1-1.17-5.42-3.49a12.57,12.57,0,0,1-3.47-9.31,12.11,12.11,0,0,1,2.17-7,22.74,22.74,0,0,1,4.72-5.15c1.71-1.32,2.75-2,3.13-2a10.72,10.72,0,0,1,2,.83,21.66,21.66,0,0,1,2.74,1.89h.53V76.67a16.1,16.1,0,0,0-.48-4.53L140,70c0-.19.67-.68,2-1.46s2.95-1.58,4.8-2.41h.48V97.44c.54.86,1.1,1.71,1.67,2.57a3.81,3.81,0,0,0,2.86.86Zm-10.21-6.11V89.7a5.16,5.16,0,0,0-2-3.7,5.84,5.84,0,0,0-3.7-1.83,4.94,4.94,0,0,0-3.46,2,6.44,6.44,0,0,0-1.79,4.44c0,1.15.63,2.84,1.89,5.09S135.34,99,137.24,99a4.55,4.55,0,0,0,3.2-1.05A2.92,2.92,0,0,0,141.59,95.86Z"/><path class="cls-3" d="M193.14,82.64h-5.73v14a3.52,3.52,0,0,0,1.51,3.13,6.56,6.56,0,0,0,3.74,1v.86q-2.39,1.89-3.75,2.82a4.89,4.89,0,0,1-1.74.95c-.92,0-2.11-.63-3.56-1.89a5.6,5.6,0,0,1-2.17-4.31v-16a3.43,3.43,0,0,0-1-.48,3.56,3.56,0,0,0-.93-.14h-2.29V80.16l8.36-7.35h1.57c0,.73,0,1.4.08,2s.11,1.21.16,1.82a10.4,10.4,0,0,1-.24,2.1h6Z"/><path class="cls-3" d="M203.16,79.11v3.48h.67a16.54,16.54,0,0,0,2.81-2,9.7,9.7,0,0,1,2.72-1.86c2.23,0,4.48,1.22,6.73,3.67a12.75,12.75,0,0,1,3.39,9,15.05,15.05,0,0,1-1.27,5.82,16.9,16.9,0,0,1-3.66,5.47Q212.15,105,211,106a4.21,4.21,0,0,1-1.44,1,12.51,12.51,0,0,1-1.44-1.38,34.38,34.38,0,0,0,5.08-6.94,12.11,12.11,0,0,0,1-5,10.12,10.12,0,0,0-1.85-5.87,6.05,6.05,0,0,0-5.3-2.67,6.17,6.17,0,0,0-2.83.48,1.94,1.94,0,0,0-.86,1.86v17.9a21.11,21.11,0,0,1-3.55.19l-1.26,0a6.38,6.38,0,0,1-1.16-.17V76.63a8.68,8.68,0,0,0-.62-3.58c-.47-.8-.95-1.61-1.43-2.44,0-.19,1.06-.84,3.18-2s3.42-1.82,3.93-2.14h1.39a31.94,31.94,0,0,0-.24,3.67c0,1-.07,2.6-.22,4.82S203.16,78.6,203.16,79.11Z"/><path class="cls-3" d="M238.29,98.49c-.8,1.58-1.62,3.16-2.48,4.74s-1.56,2.37-2.1,2.37a17.07,17.07,0,0,1-4-.77,12.12,12.12,0,0,1-5.46-3.65c-1.81-1.92-2.72-4.77-2.72-8.52a12.36,12.36,0,0,1,.95-5.66,23.28,23.28,0,0,1,3.65-4.39q2.7-2.7,3.49-3.47a2.19,2.19,0,0,1,1.31-.76q2.25,1.58,4.54,3.32a7.94,7.94,0,0,1,2.62,2.71L227.26,95a6.57,6.57,0,0,0,2.87,3.22,10.76,10.76,0,0,0,4.25.69,11.44,11.44,0,0,0,3.43-.38ZM227,92.65l5.12-5a4.72,4.72,0,0,0-1.6-1.76,15.79,15.79,0,0,0-1.88-1c-.67,0-1.31.56-1.93,1.69a7.21,7.21,0,0,0-.93,3.51A2.71,2.71,0,0,0,227,92.65Z"/><path class="cls-4" d="M274.09,105.12l-2,.1-1.57,0c-.64,0-1.16,0-1.56,0a1.39,1.39,0,0,1-.78-.24V83.07h-4.16V79.16h2.3c1.24,0,1.86-.22,1.86-.67a13.65,13.65,0,0,0-.58-4.29c-.44-1.07-.87-2.14-1.28-3.21,0-.34,1.47-1.15,4.43-2.4s4.78-1.89,5.45-1.89,1.68.68,2.67,2A6.37,6.37,0,0,1,280.39,72c0,.19-.22.45-.65.78s-1.6,1.14-3.5,2.41c-.42-.7-.8-1.36-1.15-2s-.8-1.35-1.34-2.15h-.52v1l.86,6.59c.06.19.26.33.58.42a3.59,3.59,0,0,0,1.07.15h3.69V82.7a4.24,4.24,0,0,1-1.55.37,2.37,2.37,0,0,1-.83-.17,2,2,0,0,0-.63-.16,4,4,0,0,0-2.33.67v21.71Z"/><path class="cls-4" d="M301.25,85.06c0,.64-.71,1.65-2.13,3a11,11,0,0,1-3.89,2.72c0-.32-.08-1-.13-2s-.06-1.91-.06-2.67V84.87h-1a1.77,1.77,0,0,0-1.24.48,1.41,1.41,0,0,0-.53,1.09v19h-5.68V90.73a12.08,12.08,0,0,0-.83-5,5.15,5.15,0,0,0-3.61-2.43v-.47a28.87,28.87,0,0,1,2.65-2.15,11.08,11.08,0,0,1,2.6-1.71,3.52,3.52,0,0,1,2.72,1.69l2.15,2.84,3.77-3a8.75,8.75,0,0,1,2.15-1.5c.41,0,1,.59,1.81,1.78A7.67,7.67,0,0,1,301.25,85.06Z"/><path class="cls-4" d="M317.38,102.5a32.23,32.23,0,0,1-2.89,1.79,12.61,12.61,0,0,1-2.89,1.45q-1.43-1.14-2.88-2.46c-1-.87-1.46-1.6-1.46-2.17V86.84a3.13,3.13,0,0,0-1.86-2.77c-1.24-.7-1.86-1.17-1.86-1.43q1.33-1.29,2.76-2.58c.94-.86,1.55-1.29,1.84-1.29a28.37,28.37,0,0,1,3.41,2.7A4.67,4.67,0,0,1,313.23,85v8.54a20.11,20.11,0,0,0,.63,6.06c.43,1.18,1.6,1.85,3.52,2ZM314,67.89v1.86a1.58,1.58,0,0,1-1.14,1.58q-3,.86-6.45,1.91a2.84,2.84,0,0,1-.09-.58v-1a3.07,3.07,0,0,1,1.92-2.67l4.91-2.67h.71a4.35,4.35,0,0,1,.14,1v.67Z"/><path class="cls-4" d="M335.75,98.49q-1.19,2.37-2.48,4.74t-2.1,2.37a17,17,0,0,1-4-.77,12.19,12.19,0,0,1-5.47-3.65c-1.81-1.92-2.72-4.77-2.72-8.52q0-4,1-5.66a22.51,22.51,0,0,1,3.65-4.39L327,79.14a2.23,2.23,0,0,1,1.32-.76q2.24,1.58,4.53,3.32a8,8,0,0,1,2.63,2.71L324.73,95a6.56,6.56,0,0,0,2.86,3.22,10.79,10.79,0,0,0,4.25.69,11.47,11.47,0,0,0,3.44-.38Zm-11.32-5.84,5.11-5a4.56,4.56,0,0,0-1.6-1.76,15,15,0,0,0-1.88-1c-.67,0-1.31.56-1.93,1.69A7.21,7.21,0,0,0,323.2,90,2.71,2.71,0,0,0,324.43,92.65Z"/><path class="cls-4" d="M362.29,104.79a3.64,3.64,0,0,1-1.48.24c-.25,0-1,0-2.17-.12s-2-.12-2.55-.12V89.46a6.61,6.61,0,0,0-.86-3.92c-.57-.73-1.64-1.1-3.2-1.1a8.86,8.86,0,0,0-3.15.62c-1.08.42-1.62.89-1.62,1.44v18.72h-5.78v-19a2.07,2.07,0,0,0-1.1-1.77A15.8,15.8,0,0,0,337.14,83v-.67l5.25-3.86a11.7,11.7,0,0,1,3.72,2.34c.51.73,1,1.46,1.58,2.19l7.06-4.78a15.1,15.1,0,0,1,5.9,2.62q1.64,1.48,1.64,5.11Z"/><path class="cls-4" d="M390.45,102a28.77,28.77,0,0,0-3.16,2.39c-1,.86-1.62,1.29-1.87,1.29-.9,0-2-.69-3.31-2.06s-1.81-2.19-1.87-2.29c-.38.32-1.48,1.12-3.28,2.41a13.06,13.06,0,0,1-3.14,1.94c-1.31,0-3.11-1.17-5.43-3.49a12.57,12.57,0,0,1-3.47-9.31,12.11,12.11,0,0,1,2.17-7,22.74,22.74,0,0,1,4.72-5.15c1.71-1.32,2.75-2,3.13-2a10.72,10.72,0,0,1,2,.83,21.66,21.66,0,0,1,2.74,1.89h.53V76.67a16.1,16.1,0,0,0-.48-4.53L378.62,70c0-.19.67-.68,2-1.46s3-1.58,4.8-2.41h.48V97.44c.54.86,1.1,1.71,1.67,2.57a3.81,3.81,0,0,0,2.86.86Zm-10.21-6.11V89.7a5.16,5.16,0,0,0-2-3.7,5.84,5.84,0,0,0-3.7-1.83,4.94,4.94,0,0,0-3.46,2,6.44,6.44,0,0,0-1.79,4.44c0,1.15.63,2.84,1.89,5.09S374,99,375.9,99A4.54,4.54,0,0,0,379.09,98,2.92,2.92,0,0,0,380.24,95.86Z"/><path class="cls-4" d="M403.05,102.24q0,.35-2.07,1.77a8.35,8.35,0,0,1-2.51,1.43q-.37,0-2.58-2.1c-1.46-1.4-2.19-2.31-2.19-2.72V76.25a7.69,7.69,0,0,0-.55-3,10,10,0,0,0-1.74-2.63v-.72l7.3-3.92h1V95.55q0,3.35,1.69,4.71C402.49,101.17,403.05,101.83,403.05,102.24Z"/><path class="cls-4" d="M428.92,87.46q0,3.58-3,8a129.93,129.93,0,0,1-9,11.36q-6,6.9-7.83,9.57h-3.92l-.43-.24V116l11.17-12.79q-.81-1.86-3.89-10.57t-7.28-12.91V79a9,9,0,0,1,2.49-.33,13.64,13.64,0,0,1,2.1.17c.76.11,1.2.16,1.33.16,1.88,0,3,.58,3.25,1.72a5.3,5.3,0,0,0,1.29,2.58q1.62-1.73,3.31-3.46t2.22-1.74a8.46,8.46,0,0,1,5.4,2.43A8.67,8.67,0,0,1,428.92,87.46Zm-4.63,3.44A7.11,7.11,0,0,0,423,86.51a4.28,4.28,0,0,0-3.65-1.77,9.49,9.49,0,0,0-1.72.1,4.73,4.73,0,0,0-1.48.76l4.77,12.79a8.61,8.61,0,0,0,2.34-3.48A11,11,0,0,0,424.29,90.9Z"/><path class="cls-3" d="M478.9,90.35a17,17,0,0,1-3.49,10.49q-3.48,4.62-8.16,4.62a4.84,4.84,0,0,1-2.29-1,29.37,29.37,0,0,0-2.53-1.55v13.46H457V100.83c0-2.55,0-4.48-.05-5.8s-.1-2.51-.19-3.56a19.88,19.88,0,0,0-.76-6.25c-.58-.86-1.15-1.74-1.72-2.63q0-.61,2.31-1.62a45.7,45.7,0,0,0,5.18-2.72h.67v4.58a6.84,6.84,0,0,0,3.72-2.43c1.31-1.44,2.34-2.15,3.11-2.15,2,0,4.15,1.08,6.34,3.25A11.87,11.87,0,0,1,478.9,90.35ZM474.55,94a8.64,8.64,0,0,0-2.74-6.54q-2.74-2.61-5.28-2.61a6.93,6.93,0,0,0-1.43.22,14.11,14.11,0,0,0-2.38.88v7.38c0,2.46.71,4.16,2.14,5.12a7.3,7.3,0,0,0,4,1.44A5,5,0,0,0,473.24,98,6.93,6.93,0,0,0,474.55,94Z"/><path class="cls-3" d="M495.6,102.5a30.64,30.64,0,0,1-2.89,1.79,12.88,12.88,0,0,1-2.88,1.45c-1-.76-1.92-1.58-2.89-2.46s-1.46-1.6-1.46-2.17V86.84a3.13,3.13,0,0,0-1.86-2.77c-1.24-.7-1.86-1.17-1.86-1.43q1.33-1.29,2.76-2.58c.94-.86,1.56-1.29,1.84-1.29a27.61,27.61,0,0,1,3.41,2.7A4.67,4.67,0,0,1,491.45,85v8.54a19.71,19.71,0,0,0,.64,6.06q.63,1.77,3.51,2Zm-3.39-34.61v1.86a1.58,1.58,0,0,1-1.14,1.58q-3,.86-6.45,1.91a2.84,2.84,0,0,1-.09-.58v-1a3.07,3.07,0,0,1,1.92-2.67l4.91-2.67h.71a3.81,3.81,0,0,1,.14,1v.67Z"/><path class="cls-3" d="M521.66,84.6c0,.35-.35.84-1,1.48a2.71,2.71,0,0,0-1.05,2v7.4a11.18,11.18,0,0,0-.14,1.46c0,.65,0,1,0,1a21.81,21.81,0,0,0,.93,5.68,21,21,0,0,1,.93,4.58c0,2-1.11,4-3.34,6.11a12.22,12.22,0,0,1-8.73,3.15,13.27,13.27,0,0,1-7.33-2.13,11.61,11.61,0,0,1-4.7-5.94l5.58-2.28h.67a11.17,11.17,0,0,0,2,4.9,4.77,4.77,0,0,0,4,2,6.23,6.23,0,0,0,4.15-1.36,4.58,4.58,0,0,0,1.62-3.7,20.67,20.67,0,0,0-.81-3,17.26,17.26,0,0,1-.81-5.1h-.67c-.48.44-1.68,1.41-3.6,2.89a21.77,21.77,0,0,1-3.13,2.21q-2.77,0-5.89-3.61a11.8,11.8,0,0,1-2-13.07,14.87,14.87,0,0,1,2.51-3.64q1.37-1.38,5.32-4.56t4.49-3.18l5.77,3.24L520,83C521.11,83.72,521.66,84.25,521.66,84.6Zm-8.3,12V87.41a10.78,10.78,0,0,0-2.76-2c-1-.54-2-1-2.85-1.43q-1.74,0-3.19,3a12.08,12.08,0,0,0-1.47,4.59A7.62,7.62,0,0,0,505.2,97c1.41,1.5,2.72,2.24,3.94,2.24a4.77,4.77,0,0,0,3.16-.9A2.44,2.44,0,0,0,513.36,96.63Z"/><path class="cls-3" d="M543.81,95.48a9.7,9.7,0,0,1-3,7.11,10,10,0,0,1-7.35,3,13.29,13.29,0,0,1-7.09-2.53c-2.59-1.69-3.89-3.29-3.89-4.82,0-.29.69-.79,2.08-1.5a32.63,32.63,0,0,1,3.6-1.65v2.29a5,5,0,0,0,1.5,3.75,5.63,5.63,0,0,0,7.52,0,4.7,4.7,0,0,0,1.53-3.58,5.9,5.9,0,0,0-1.36-3.7,4,4,0,0,0-3.22-1.74,12.58,12.58,0,0,0-4.58,1.24,16.25,16.25,0,0,1-3.44,1.24,22.24,22.24,0,0,1-2-3.08,9.21,9.21,0,0,1-1-4.51,7.89,7.89,0,0,1,3.13-6.34,10.39,10.39,0,0,1,6.75-2.58,12.22,12.22,0,0,1,5.73,1.76,8.38,8.38,0,0,1,4.1,4.2l-5.77,3.2a25.18,25.18,0,0,0-1.48-4.58Q534.89,81,532.11,81a3.6,3.6,0,0,0-2.76,1.24,4.14,4.14,0,0,0-1.15,2.91,4.83,4.83,0,0,0,1.29,3.34,3.78,3.78,0,0,0,2.86,1.43,12.69,12.69,0,0,0,5-1.48c2.1-1,3.2-1.48,3.29-1.48a18.81,18.81,0,0,1,2.12,3.08A11.08,11.08,0,0,1,543.81,95.48Z"/><path class="cls-3" d="M75,155.57c0,.45.45,1.11,1.36,2A8.42,8.42,0,0,1,77.68,159a16.79,16.79,0,0,1-2.27,2,14.08,14.08,0,0,1-2.5,1.84,17.4,17.4,0,0,1-2.58-2,4,4,0,0,1-1.29-3l-1-.38c-.47.44-1.67,1.4-3.6,2.86a21.46,21.46,0,0,1-3.13,2.2c-1.84,0-3.81-1.2-5.89-3.61a11.73,11.73,0,0,1-2-13.05A14.35,14.35,0,0,1,56,142.16c.9-.92,2.68-2.44,5.32-4.56s4.13-3.17,4.48-3.17l5.78,3.24,3.63,1.91c1.11.7,1.67,1.23,1.67,1.58s-.35.84-1.05,1.48a2.71,2.71,0,0,0-1,2V152q-.15.92-.27,1.86a12.61,12.61,0,0,0-.12,1.39c0,.44.07.66.2.66s.13,0,.21-.14A1,1,0,0,0,75,155.57Zm-6.4-2.38V144a10.78,10.78,0,0,0-2.76-2.05c-1-.54-2-1-2.85-1.43q-1.73,0-3.19,3a12.21,12.21,0,0,0-1.46,4.59,7.58,7.58,0,0,0,2.11,5.39c1.41,1.5,2.72,2.24,3.93,2.24a4.8,4.8,0,0,0,3.17-.9A2.44,2.44,0,0,0,68.56,153.19Z"/><path class="cls-3" d="M104.31,162.06a3.64,3.64,0,0,1-1.48.24c-.25,0-1,0-2.17-.12s-2-.12-2.55-.12V146.73a6.6,6.6,0,0,0-.86-3.91,3.89,3.89,0,0,0-3.2-1.1,8.86,8.86,0,0,0-3.15.62c-1.08.41-1.62.89-1.62,1.43v18.72H83.5v-19a2.06,2.06,0,0,0-1.1-1.76,15.8,15.8,0,0,0-3.24-1.48v-.67l5.25-3.87a12.07,12.07,0,0,1,3.72,2.34c.51.74,1,1.47,1.58,2.2l7.06-4.79c2.83.77,4.8,1.64,5.9,2.63s1.64,2.69,1.64,5.11Z"/><path class="cls-3" d="M132.47,159.25a28.69,28.69,0,0,0-3.16,2.38c-1,.86-1.62,1.29-1.87,1.29-.9,0-2-.68-3.31-2s-1.81-2.2-1.87-2.29c-.38.32-1.48,1.12-3.29,2.41a12.43,12.43,0,0,1-3.14,1.93c-1.3,0-3.1-1.16-5.42-3.48a12.59,12.59,0,0,1-3.47-9.31,12.11,12.11,0,0,1,2.17-7,22.59,22.59,0,0,1,4.72-5.16c1.71-1.32,2.75-2,3.13-2a10.16,10.16,0,0,1,2,.84,20.37,20.37,0,0,1,2.74,1.88h.53V134a16.05,16.05,0,0,0-.48-4.53c-.38-.7-.76-1.4-1.15-2.1,0-.19.68-.68,2-1.46s3-1.58,4.8-2.41h.48v31.26c.54.86,1.1,1.72,1.67,2.58a3.85,3.85,0,0,0,2.86.86Zm-10.21-6.11V147a5.16,5.16,0,0,0-2-3.7,5.86,5.86,0,0,0-3.7-1.84,5,5,0,0,0-3.46,2,6.44,6.44,0,0,0-1.79,4.44q0,1.72,1.89,5.08c1.25,2.25,2.84,3.37,4.74,3.37a4.55,4.55,0,0,0,3.2-1A2.92,2.92,0,0,0,122.26,153.14Z"/><path class="cls-3" d="M173.81,139.92h-5.73v14a3.53,3.53,0,0,0,1.51,3.13,6.55,6.55,0,0,0,3.74,1V159c-1.59,1.25-2.84,2.2-3.75,2.82a4.79,4.79,0,0,1-1.74.94c-.92,0-2.11-.62-3.56-1.88a5.6,5.6,0,0,1-2.17-4.31v-16a3.33,3.33,0,0,0-1.91-.62h-2.29v-2.49l8.36-7.35h1.57c0,.74,0,1.4.08,2s.11,1.21.16,1.81a10.25,10.25,0,0,1-.24,2.1h6Z"/><path class="cls-3" d="M194.38,142.34c0,.64-.71,1.65-2.13,3a11.16,11.16,0,0,1-3.89,2.72q-.06-.48-.12-2c-.05-1-.07-1.9-.07-2.66v-1.29h-.95a1.77,1.77,0,0,0-1.24.48,1.43,1.43,0,0,0-.53,1.09v19h-5.68V148a12.05,12.05,0,0,0-.83-5,5.15,5.15,0,0,0-3.61-2.43v-.48a29.6,29.6,0,0,1,2.65-2.14,11.33,11.33,0,0,1,2.6-1.72,3.52,3.52,0,0,1,2.72,1.7c.86,1.13,1.58,2.07,2.15,2.84l3.77-3a8.63,8.63,0,0,1,2.15-1.51c.41,0,1,.6,1.82,1.79A7.7,7.7,0,0,1,194.38,142.34Z"/><path class="cls-3" d="M220,144.74c0,2.38-1,5.07-3,8a130,130,0,0,1-9,11.36q-6,6.9-7.83,9.57h-3.91l-.43-.24v-.19L207,160.49q-.81-1.86-3.89-10.57T195.81,137v-.72a8.91,8.91,0,0,1,2.48-.33,14.69,14.69,0,0,1,2.1.16c.77.11,1.21.17,1.34.17,1.88,0,3,.57,3.24,1.72a5.58,5.58,0,0,0,1.29,2.58c1.08-1.15,2.19-2.3,3.32-3.47s1.87-1.74,2.22-1.74a8.39,8.39,0,0,1,5.39,2.44A8.64,8.64,0,0,1,220,144.74Zm-4.63,3.43a7.19,7.19,0,0,0-1.31-4.39,4.32,4.32,0,0,0-3.65-1.76,10.89,10.89,0,0,0-1.72.09,5.07,5.07,0,0,0-1.48.77L212,155.67a8.59,8.59,0,0,0,2.34-3.49A10.94,10.94,0,0,0,215.38,148.17Z"/><path class="cls-3" d="M270.6,162.06a3.64,3.64,0,0,1-1.48.24c-.25,0-1,0-2.17-.12s-2-.12-2.55-.12V146.73a6.6,6.6,0,0,0-.86-3.91c-.57-.73-1.64-1.1-3.2-1.1a8.86,8.86,0,0,0-3.15.62c-1.08.41-1.62.89-1.62,1.43v18.72h-5.78v-19a2.06,2.06,0,0,0-1.1-1.76,15.8,15.8,0,0,0-3.24-1.48v-.67l5.25-3.87a12.07,12.07,0,0,1,3.72,2.34c.51.74,1,1.47,1.58,2.2l7.06-4.79c2.83.77,4.8,1.64,5.9,2.63s1.64,2.69,1.64,5.11Z"/><path class="cls-3" d="M296.14,150.7a9,9,0,0,1-2.6,6.45,21.24,21.24,0,0,1-5.71,4.29A18.21,18.21,0,0,1,284.3,163q-3.53,0-7-4.85a16.62,16.62,0,0,1-3.48-9.76,9.41,9.41,0,0,1,2.7-6.77,20.9,20.9,0,0,1,5.89-4.4,17.78,17.78,0,0,1,3.68-1.57q3.19,0,6.63,4.53A16.94,16.94,0,0,1,296.14,150.7Zm-3.44,1.39c0-2-1-4.1-3-6.37a9.31,9.31,0,0,0-7.25-3.42,5.77,5.77,0,0,0-3.6,1.27,3.77,3.77,0,0,0-1.65,3.08c0,1.81,1,3.86,3.13,6.13a9.24,9.24,0,0,0,6.94,3.41,7.56,7.56,0,0,0,4-.9A3.47,3.47,0,0,0,292.7,152.09Z"/><path class="cls-3" d="M314,139.92h-5.73v14a3.53,3.53,0,0,0,1.51,3.13,6.55,6.55,0,0,0,3.74,1V159c-1.59,1.25-2.84,2.2-3.75,2.82a4.71,4.71,0,0,1-1.74.94c-.92,0-2.11-.62-3.55-1.88a5.58,5.58,0,0,1-2.18-4.31v-16a3.08,3.08,0,0,0-1-.48,3.18,3.18,0,0,0-.93-.14h-2.29v-2.49l8.36-7.35h1.57c0,.74,0,1.4.08,2s.11,1.21.16,1.81a10.25,10.25,0,0,1-.24,2.1h6Z"/><path class="cls-3" d="M355.85,139.92h-5.73v14a3.55,3.55,0,0,0,1.51,3.13,6.55,6.55,0,0,0,3.74,1V159c-1.59,1.25-2.84,2.2-3.75,2.82a4.71,4.71,0,0,1-1.74.94c-.92,0-2.11-.62-3.55-1.88a5.58,5.58,0,0,1-2.18-4.31v-16a3.14,3.14,0,0,0-1-.48,3.28,3.28,0,0,0-.93-.14H340v-2.49l8.36-7.35h1.57c0,.74,0,1.4.08,2s.11,1.21.16,1.81a10.25,10.25,0,0,1-.24,2.1h6Z"/><path class="cls-3" d="M380.33,150.7a9,9,0,0,1-2.6,6.45,21,21,0,0,1-5.7,4.29A18.5,18.5,0,0,1,368.5,163q-3.54,0-7-4.85a16.62,16.62,0,0,1-3.48-9.76,9.45,9.45,0,0,1,2.69-6.77,21.08,21.08,0,0,1,5.9-4.4,17.83,17.83,0,0,1,3.67-1.57c2.13,0,4.35,1.51,6.64,4.53A16.94,16.94,0,0,1,380.33,150.7Zm-3.43,1.39c0-2-1-4.1-3-6.37a9.31,9.31,0,0,0-7.25-3.42,5.82,5.82,0,0,0-3.61,1.27,3.75,3.75,0,0,0-1.64,3.08c0,1.81,1,3.86,3.12,6.13a9.28,9.28,0,0,0,6.95,3.41,7.54,7.54,0,0,0,4-.9A3.47,3.47,0,0,0,376.9,152.09Z"/><path class="cls-3" d="M431.26,159.25a28.69,28.69,0,0,0-3.16,2.38c-1,.86-1.62,1.29-1.87,1.29-.9,0-2-.68-3.31-2s-1.81-2.2-1.87-2.29c-.38.32-1.48,1.12-3.29,2.41a12.43,12.43,0,0,1-3.14,1.93c-1.3,0-3.1-1.16-5.42-3.48a12.59,12.59,0,0,1-3.47-9.31,12.11,12.11,0,0,1,2.17-7,22.59,22.59,0,0,1,4.72-5.16c1.71-1.32,2.75-2,3.13-2a10.16,10.16,0,0,1,2,.84,20.37,20.37,0,0,1,2.74,1.88h.53V134a16.05,16.05,0,0,0-.48-4.53l-1.14-2.1c0-.19.67-.68,2-1.46s3-1.58,4.8-2.41h.48v31.26c.54.86,1.1,1.72,1.67,2.58a3.85,3.85,0,0,0,2.86.86Zm-10.21-6.11V147a5.16,5.16,0,0,0-2-3.7,5.86,5.86,0,0,0-3.7-1.84,5,5,0,0,0-3.46,2,6.44,6.44,0,0,0-1.79,4.44q0,1.72,1.89,5.08c1.25,2.25,2.84,3.37,4.74,3.37a4.55,4.55,0,0,0,3.2-1A2.92,2.92,0,0,0,421.05,153.14Z"/><path class="cls-3" d="M447.25,159.77a27.23,27.23,0,0,1-2.89,1.79,13.19,13.19,0,0,1-2.88,1.46c-1-.77-1.92-1.58-2.89-2.46s-1.46-1.6-1.46-2.17V144.12a3.13,3.13,0,0,0-1.86-2.77c-1.24-.7-1.86-1.18-1.86-1.43q1.35-1.29,2.76-2.58c.94-.86,1.56-1.29,1.85-1.29a26.44,26.44,0,0,1,3.4,2.7,4.67,4.67,0,0,1,1.68,3.51v8.54a19.79,19.79,0,0,0,.64,6.06q.63,1.77,3.51,2Zm-3.39-34.6V127a1.57,1.57,0,0,1-1.14,1.57c-2,.58-4.14,1.21-6.45,1.91a2.67,2.67,0,0,1-.09-.57v-1.05a3.07,3.07,0,0,1,1.92-2.67l4.91-2.67h.71a3.81,3.81,0,0,1,.14,1v.67Z"/><path class="cls-3" d="M469.4,152.76a9.71,9.71,0,0,1-3,7.11,10,10,0,0,1-7.35,3A13.37,13.37,0,0,1,452,160.3q-3.88-2.53-3.89-4.82c0-.29.69-.79,2.08-1.51a34.29,34.29,0,0,1,3.6-1.64v2.29a5,5,0,0,0,1.5,3.74,5.61,5.61,0,0,0,7.52,0,4.71,4.71,0,0,0,1.53-3.58,5.88,5.88,0,0,0-1.36-3.7,4,4,0,0,0-3.22-1.74,12.58,12.58,0,0,0-4.58,1.24,16.25,16.25,0,0,1-3.44,1.24,22.85,22.85,0,0,1-2-3.08,9.35,9.35,0,0,1-1-4.51,7.93,7.93,0,0,1,3.13-6.35,10.39,10.39,0,0,1,6.75-2.58,12.1,12.1,0,0,1,5.73,1.77,8.38,8.38,0,0,1,4.1,4.2l-5.77,3.2a25.18,25.18,0,0,0-1.48-4.58c-.51-1.08-1.69-1.63-3.54-1.63a3.61,3.61,0,0,0-2.76,1.25,4.1,4.1,0,0,0-1.15,2.91,4.85,4.85,0,0,0,1.29,3.34,3.81,3.81,0,0,0,2.86,1.43,12.69,12.69,0,0,0,5-1.48c2.1-1,3.2-1.48,3.29-1.48a18.39,18.39,0,0,1,2.12,3.08A11.05,11.05,0,0,1,469.4,152.76Z"/><path class="cls-3" d="M495.56,147.62a17,17,0,0,1-3.49,10.5q-3.48,4.6-8.16,4.61a4.9,4.9,0,0,1-2.29-1c-1-.68-1.86-1.2-2.53-1.56v13.46h-5.44V158.1c0-2.54,0-4.48,0-5.8s-.1-2.5-.19-3.55a19.65,19.65,0,0,0-.77-6.26c-.57-.85-1.14-1.73-1.71-2.62,0-.41.77-1,2.31-1.62a46.56,46.56,0,0,0,5.18-2.72h.67v4.58a6.81,6.81,0,0,0,3.72-2.44c1.31-1.43,2.34-2.14,3.1-2.14q3.06,0,6.35,3.25T495.56,147.62Zm-4.35,3.69a8.64,8.64,0,0,0-2.74-6.54q-2.75-2.61-5.28-2.61a6.3,6.3,0,0,0-1.43.22,13.61,13.61,0,0,0-2.39.88v7.38q0,3.68,2.15,5.12a7.25,7.25,0,0,0,4,1.44,5,5,0,0,0,4.42-1.94A7,7,0,0,0,491.21,151.31Z"/><path class="cls-3" d="M520.28,150.7a9,9,0,0,1-2.6,6.45,21.24,21.24,0,0,1-5.71,4.29,17.92,17.92,0,0,1-3.53,1.58q-3.53,0-7-4.85a16.57,16.57,0,0,1-3.49-9.76,9.41,9.41,0,0,1,2.7-6.77,21,21,0,0,1,5.89-4.4,17.78,17.78,0,0,1,3.68-1.57q3.2,0,6.63,4.53A16.94,16.94,0,0,1,520.28,150.7Zm-3.44,1.39c0-2-1-4.1-3-6.37a9.35,9.35,0,0,0-7.26-3.42,5.8,5.8,0,0,0-3.6,1.27,3.77,3.77,0,0,0-1.65,3.08c0,1.81,1,3.86,3.13,6.13a9.26,9.26,0,0,0,6.94,3.41,7.56,7.56,0,0,0,4-.9A3.47,3.47,0,0,0,516.84,152.09Z"/><path class="cls-3" d="M543.09,152.76a9.68,9.68,0,0,1-3,7.11,10,10,0,0,1-7.35,3,13.34,13.34,0,0,1-7.08-2.53c-2.6-1.69-3.89-3.3-3.89-4.82,0-.29.69-.79,2.07-1.51a35.29,35.29,0,0,1,3.61-1.64v2.29a5,5,0,0,0,1.5,3.74,5.2,5.2,0,0,0,3.79,1.46,5.27,5.27,0,0,0,3.73-1.43,4.7,4.7,0,0,0,1.52-3.58,5.88,5.88,0,0,0-1.36-3.7,4,4,0,0,0-3.22-1.74,12.63,12.63,0,0,0-4.58,1.24,16.05,16.05,0,0,1-3.44,1.24,25,25,0,0,1-2-3.08,9.35,9.35,0,0,1-1-4.51,8,8,0,0,1,3.13-6.35,10.41,10.41,0,0,1,6.76-2.58,12.1,12.1,0,0,1,5.72,1.77,8.45,8.45,0,0,1,4.11,4.2l-5.78,3.2a25.18,25.18,0,0,0-1.48-4.58c-.51-1.08-1.68-1.63-3.53-1.63a3.65,3.65,0,0,0-2.77,1.25,4.14,4.14,0,0,0-1.14,2.91,4.85,4.85,0,0,0,1.29,3.34,3.79,3.79,0,0,0,2.86,1.43,12.65,12.65,0,0,0,5-1.48c2.1-1,3.2-1.48,3.3-1.48a19,19,0,0,1,2.12,3.08A11.06,11.06,0,0,1,543.09,152.76Z"/><path class="cls-3" d="M562.23,155.76q-1.18,2.37-2.48,4.75t-2.1,2.37a17,17,0,0,1-4-.77,12.36,12.36,0,0,1-5.47-3.65q-2.71-2.9-2.72-8.53,0-4,1-5.65a22.51,22.51,0,0,1,3.65-4.4q2.7-2.7,3.48-3.46a2.18,2.18,0,0,1,1.32-.76q2.24,1.58,4.53,3.32a8,8,0,0,1,2.63,2.7l-10.79,10.55a6.51,6.51,0,0,0,2.86,3.22,10.78,10.78,0,0,0,4.25.7,11.13,11.13,0,0,0,3.44-.39Zm-11.32-5.84,5.11-5a4.66,4.66,0,0,0-1.6-1.77,18.12,18.12,0,0,0-1.88-1.05c-.67,0-1.31.57-1.93,1.7a7.2,7.2,0,0,0-.93,3.5A2.69,2.69,0,0,0,550.91,149.92Z"/><path class="cls-3" d="M68.18,197.19H62.45v14A3.51,3.51,0,0,0,64,214.35a6.43,6.43,0,0,0,3.73,1v.87q-2.39,1.88-3.74,2.82a5,5,0,0,1-1.75.94c-.92,0-2.1-.63-3.55-1.88a5.59,5.59,0,0,1-2.17-4.31v-16a3.26,3.26,0,0,0-1-.47,3.32,3.32,0,0,0-.93-.15H52.29v-2.48l8.35-7.35h1.57c0,.73,0,1.4.08,2s.11,1.21.16,1.81a10.25,10.25,0,0,1-.24,2.1h6Z"/><path class="cls-3" d="M78.2,193.66v3.49h.67a17.93,17.93,0,0,0,2.82-2.06,9.4,9.4,0,0,1,2.72-1.86c2.22,0,4.47,1.23,6.73,3.68a12.73,12.73,0,0,1,3.39,9,15.32,15.32,0,0,1-1.27,5.82,17,17,0,0,1-3.67,5.46c-1.6,1.61-2.78,2.73-3.55,3.39s-1.24,1-1.44,1a12.05,12.05,0,0,1-1.43-1.38,34.63,34.63,0,0,0,5.07-6.94,12.11,12.11,0,0,0,1-5,10.09,10.09,0,0,0-1.85-5.86,6,6,0,0,0-5.29-2.67,6.28,6.28,0,0,0-2.83.47,1.93,1.93,0,0,0-.87,1.86v17.9a21.11,21.11,0,0,1-3.55.19c-.47,0-.89,0-1.25,0a6.25,6.25,0,0,1-1.16-.17V191.18a8.88,8.88,0,0,0-.62-3.58c-.48-.8-1-1.61-1.43-2.43,0-.2,1.05-.85,3.17-2s3.43-1.83,3.94-2.15h1.38a32,32,0,0,0-.24,3.68c0,1-.07,2.59-.21,4.82S78.2,193.15,78.2,193.66Z"/><path class="cls-3" d="M113.33,213q-1.18,2.37-2.48,4.74t-2.1,2.37a16.87,16.87,0,0,1-4-.76,12.36,12.36,0,0,1-5.47-3.65q-2.72-2.9-2.72-8.53,0-4,1-5.66a22.51,22.51,0,0,1,3.65-4.39q2.7-2.7,3.48-3.46a2.19,2.19,0,0,1,1.31-.77c1.5,1.06,3,2.16,4.54,3.33a7.75,7.75,0,0,1,2.62,2.7l-10.78,10.55a6.51,6.51,0,0,0,2.86,3.22,10.79,10.79,0,0,0,4.25.69,11.19,11.19,0,0,0,3.44-.38ZM102,207.2l5.12-5a4.67,4.67,0,0,0-1.6-1.77,19.22,19.22,0,0,0-1.88-1.05c-.67,0-1.31.57-1.93,1.7a7.14,7.14,0,0,0-.93,3.5A2.72,2.72,0,0,0,102,207.2Z"/><path class="cls-4" d="M163.07,205.79a10.82,10.82,0,0,1-1.43,5A12.9,12.9,0,0,1,158.2,215q-2,1.55-5,3.62c-2,1.38-3.14,2.07-3.46,2.07L141.3,214c0-.16-.08-1.27-.14-3.33s-.1-4.39-.1-7V189.93c-.54-1.34-1-2.32-1.31-3s-.66-1.24-1-1.81c0-.22.77-.7,2.29-1.43a34.25,34.25,0,0,0,4.35-2.48h1.14V198.2h1c.06,0,1-.79,2.77-2.27s2.84-2.22,3.19-2.22q3.34,0,6.47,3.8A12.76,12.76,0,0,1,163.07,205.79Zm-4.58,2.09a8,8,0,0,0-7.12-8,4.67,4.67,0,0,0-3.29,1,4.82,4.82,0,0,0-1.05,3.56,18,18,0,0,0,1.07,6.82c.72,1.71,2.33,2.56,4.85,2.56a4.82,4.82,0,0,0,4.08-1.92A6.54,6.54,0,0,0,158.49,207.88Z"/><path class="cls-4" d="M187.79,212.85c0,.45.46,1.11,1.36,2a7.94,7.94,0,0,1,1.36,1.46,17.06,17.06,0,0,1-2.26,2,14.12,14.12,0,0,1-2.51,1.83,17.3,17.3,0,0,1-2.58-2,4,4,0,0,1-1.29-3.06l-1-.38c-.48.45-1.68,1.4-3.6,2.87a21.44,21.44,0,0,1-3.13,2.19c-1.85,0-3.81-1.2-5.9-3.6a11.8,11.8,0,0,1-2-13.06,14.72,14.72,0,0,1,2.51-3.62,70,70,0,0,1,5.32-4.56q4-3.18,4.49-3.18L184.4,195l3.63,1.91c1.11.7,1.67,1.23,1.67,1.57s-.35.85-1,1.48a2.75,2.75,0,0,0-1.05,2v7.4c-.09.6-.18,1.22-.26,1.86a12.68,12.68,0,0,0-.12,1.38c0,.45.06.67.19.67a.31.31,0,0,0,.21-.14A1.59,1.59,0,0,0,187.79,212.85Zm-6.39-2.39v-9.21a10.55,10.55,0,0,0-2.76-2.05c-1-.54-2-1-2.85-1.43q-1.74,0-3.19,3a12.1,12.1,0,0,0-1.47,4.58,7.64,7.64,0,0,0,2.11,5.4q2.12,2.23,3.94,2.24a4.71,4.71,0,0,0,3.16-.91A2.44,2.44,0,0,0,181.4,210.46Z"/><path class="cls-4" d="M217.53,216.52a30.21,30.21,0,0,0-3.17,2.39c-1,.86-1.61,1.29-1.87,1.29-.89,0-2-.68-3.31-2s-1.8-2.2-1.87-2.29c-.38.31-1.47,1.12-3.28,2.41a12.82,12.82,0,0,1-3.14,1.93q-1.95,0-5.42-3.48a12.61,12.61,0,0,1-3.48-9.31,12.14,12.14,0,0,1,2.17-7,22.62,22.62,0,0,1,4.73-5.16c1.7-1.32,2.74-2,3.13-2a10.08,10.08,0,0,1,2,.84,20.34,20.34,0,0,1,2.75,1.88h.52v-4.77a16.59,16.59,0,0,0-.47-4.54c-.39-.7-.77-1.4-1.15-2.1,0-.19.68-.67,2-1.45a50.81,50.81,0,0,1,4.8-2.41H213V212c.54.86,1.1,1.72,1.67,2.58a3.87,3.87,0,0,0,2.87.86Zm-10.22-6.1v-6.16a5.11,5.11,0,0,0-2-3.7,5.79,5.79,0,0,0-3.69-1.84,4.9,4.9,0,0,0-3.46,2,6.36,6.36,0,0,0-1.79,4.44c0,1.14.62,2.84,1.88,5.08s2.84,3.37,4.75,3.37a4.57,4.57,0,0,0,3.2-1A2.94,2.94,0,0,0,207.31,210.42Z"/><path class="cls-3" d="M265.4,208a9,9,0,0,1-2.6,6.44,21,21,0,0,1-5.7,4.3,18.14,18.14,0,0,1-3.54,1.58q-3.52,0-7-4.85a16.57,16.57,0,0,1-3.49-9.76,9.45,9.45,0,0,1,2.7-6.78,20.9,20.9,0,0,1,5.9-4.39,17.83,17.83,0,0,1,3.67-1.57q3.19,0,6.64,4.53A16.89,16.89,0,0,1,265.4,208ZM262,209.36c0-2-1-4.09-3-6.37a9.37,9.37,0,0,0-7.26-3.41,5.76,5.76,0,0,0-3.6,1.27,3.75,3.75,0,0,0-1.65,3.07c0,1.82,1,3.86,3.13,6.14a9.29,9.29,0,0,0,6.94,3.41,7.46,7.46,0,0,0,4-.91A3.46,3.46,0,0,0,262,209.36Z"/><path class="cls-3" d="M292.08,219.34a3.64,3.64,0,0,1-1.48.24c-.25,0-1,0-2.17-.12s-2-.12-2.55-.12V204a6.63,6.63,0,0,0-.86-3.92c-.57-.73-1.64-1.09-3.2-1.09a8.64,8.64,0,0,0-3.15.62c-1.08.41-1.62.89-1.62,1.43v18.72h-5.78v-19a2,2,0,0,0-1.1-1.76,15.8,15.8,0,0,0-3.24-1.48v-.67l5.25-3.87a11.88,11.88,0,0,1,3.72,2.34c.51.73,1,1.46,1.58,2.2l7.06-4.79c2.83.77,4.8,1.64,5.9,2.63s1.64,2.69,1.64,5.11Z"/><path class="cls-3" d="M312.22,213q-1.19,2.37-2.48,4.74t-2.1,2.37a16.87,16.87,0,0,1-4-.76,12.36,12.36,0,0,1-5.47-3.65q-2.72-2.9-2.72-8.53,0-4,1-5.66a22.51,22.51,0,0,1,3.65-4.39q2.7-2.7,3.48-3.46a2.21,2.21,0,0,1,1.32-.77c1.49,1.06,3,2.16,4.53,3.33A7.91,7.91,0,0,1,312,199L301.2,209.51a6.51,6.51,0,0,0,2.86,3.22,10.79,10.79,0,0,0,4.25.69,11.19,11.19,0,0,0,3.44-.38ZM300.9,207.2l5.11-5a4.59,4.59,0,0,0-1.6-1.77,18.12,18.12,0,0,0-1.88-1.05c-.67,0-1.31.57-1.93,1.7a7.14,7.14,0,0,0-.93,3.5A2.7,2.7,0,0,0,300.9,207.2Z"/><path class="cls-3" d="M334.9,210a9.74,9.74,0,0,1-3,7.12,10,10,0,0,1-7.35,2.95,13.26,13.26,0,0,1-7.09-2.53c-2.6-1.68-3.89-3.29-3.89-4.82q0-.42,2.07-1.5a35.63,35.63,0,0,1,3.61-1.65v2.29a5,5,0,0,0,1.5,3.75,5.61,5.61,0,0,0,7.52,0,4.71,4.71,0,0,0,1.53-3.58,5.94,5.94,0,0,0-1.36-3.7,4,4,0,0,0-3.22-1.75,12.68,12.68,0,0,0-4.59,1.25,16.73,16.73,0,0,1-3.43,1.24,22.85,22.85,0,0,1-2-3.08,9.26,9.26,0,0,1-1-4.51,7.93,7.93,0,0,1,3.12-6.35,10.43,10.43,0,0,1,6.76-2.58,12.1,12.1,0,0,1,5.72,1.77,8.41,8.41,0,0,1,4.11,4.2l-5.78,3.2a24.55,24.55,0,0,0-1.48-4.59c-.5-1.08-1.68-1.62-3.53-1.62a3.64,3.64,0,0,0-2.77,1.24,4.17,4.17,0,0,0-1.14,2.91,4.81,4.81,0,0,0,1.29,3.34,3.79,3.79,0,0,0,2.86,1.44,12.83,12.83,0,0,0,5-1.48c2.11-1,3.2-1.48,3.3-1.48a18,18,0,0,1,2.12,3.08A11,11,0,0,1,334.9,210Z"/><path class="cls-3" d="M346.78,216a5.62,5.62,0,0,1-1.19,1.81,16,16,0,0,1-2.25,2.34c-1-.86-2-1.75-2.95-2.67s-1.48-1.56-1.48-1.91c.7-.92,1.44-1.85,2.24-2.77s1.43-1.38,1.91-1.38,1.41.59,2.34,1.79A5.32,5.32,0,0,1,346.78,216Zm-2-18.06v5.72l-.58,2.86-2,1.14-1.72,2.29-1.43,1.43.62-9.82.52-6.2-.28-4.86-.57-6.58,6.87-2.86-.57,8.58a33.28,33.28,0,0,1-.29,4.22Q345.07,196.07,344.78,197.93Z"/><path class="cls-3" d="M408,182.59l-14.51,38.95v.52a3.17,3.17,0,0,0,.86,2.22q.86.93,3.63.93a10.62,10.62,0,0,0,4.55-1.48,18.89,18.89,0,0,1,3.85-1.67A9.49,9.49,0,0,1,402,228.6a12.58,12.58,0,0,1-6.7,2.48,6,6,0,0,1-4.56-1.79,6.27,6.27,0,0,1-1.75-4.56,10.37,10.37,0,0,1,.43-2.29c.29-1.05.59-2.08.91-3.1-.7-2-1.45-4.21-2.27-6.61s-2.14-6.15-4-11.24-3.24-8.76-4.18-11-2.3-3.37-4.08-3.37l-3.15,1.34-.29-1.72.29-1.43a10.69,10.69,0,0,1,2.72-3.27,6.38,6.38,0,0,1,3.58-.84,6.28,6.28,0,0,1,5.16,2.06c.86,1.3,1.71,2.59,2.57,3.86a17.54,17.54,0,0,0,3.08-3.89q1.5-2.46,2.37-2.46a11.7,11.7,0,0,1,3.53,1.6,10.48,10.48,0,0,0,5.1,1.6,5.31,5.31,0,0,0,5-2.77H408Zm-6.44,7c-.73.22-1.53.44-2.39.66a5,5,0,0,1-1.92.24,20.31,20.31,0,0,1-5-.95c-.66-.35-1.32-.72-1.95-1.1a2.63,2.63,0,0,0-1.58.67l-1.14.9a36.35,36.35,0,0,1,1.81,4.51q1.38,3.84,2.82,7.73a44,44,0,0,0,2.19,5.27l5.76-14.21Z"/><path class="cls-3" d="M432.74,208a9,9,0,0,1-2.6,6.44,20.88,20.88,0,0,1-5.7,4.3,18.5,18.5,0,0,1-3.53,1.58q-3.54,0-7-4.85a16.62,16.62,0,0,1-3.48-9.76,9.45,9.45,0,0,1,2.69-6.78,21,21,0,0,1,5.9-4.39,17.83,17.83,0,0,1,3.67-1.57c2.13,0,4.35,1.51,6.64,4.53A16.89,16.89,0,0,1,432.74,208Zm-3.43,1.38c0-2-1-4.09-3-6.37a9.34,9.34,0,0,0-7.25-3.41,5.76,5.76,0,0,0-3.61,1.27,3.74,3.74,0,0,0-1.64,3.07c0,1.82,1,3.86,3.12,6.14a9.31,9.31,0,0,0,6.95,3.41,7.45,7.45,0,0,0,4-.91A3.46,3.46,0,0,0,429.31,209.36Z"/><path class="cls-3" d="M457.8,212.32a2.59,2.59,0,0,0,1.36,2.37c.91.52,1.36,1,1.36,1.5,0,.32-.68,1.05-2,2.2a11.72,11.72,0,0,1-2.29,1.71c-1.11,0-2.15-.79-3.1-2.38-.77-1.69-1.18-2.58-1.24-2.68a24.23,24.23,0,0,0-4.06,2.8c-1.91,1.51-3.09,2.26-3.53,2.26s-1.9-.7-4.06-2.12-3.25-2.84-3.25-4.27v-9.45a4,4,0,0,1-.14-.84c0-.36-.05-.67-.05-.93v-2.05a4.83,4.83,0,0,0-1.36-2.08c-.78-.81-1.17-1.34-1.17-1.6.83-.89,1.67-1.76,2.53-2.62s1.47-1.29,1.82-1.29a.94.94,0,0,1,.69.33,7.42,7.42,0,0,0,.64.62,6.79,6.79,0,0,1,2.49,2.58,10.27,10.27,0,0,1,.52,3.77v10.07a3.48,3.48,0,0,0,1.58,2.68,4.92,4.92,0,0,0,3,1.24,5.51,5.51,0,0,0,2.22-.57,11,11,0,0,0,2.36-1.48V193.8c.86-.19,1.74-.37,2.63-.54a14.19,14.19,0,0,0,1.72-.41H458v11.93c0,1,0,2.21-.09,3.65S457.83,211.18,457.8,212.32Z"/><path class="cls-3" d="M494.27,193.66v3.49h.67a18.08,18.08,0,0,0,2.81-2.06,9.7,9.7,0,0,1,2.72-1.86q3.34,0,6.73,3.68a12.73,12.73,0,0,1,3.39,9,15.13,15.13,0,0,1-1.27,5.82,17,17,0,0,1-3.67,5.46c-1.59,1.61-2.78,2.73-3.54,3.39a4.1,4.1,0,0,1-1.44,1,12.51,12.51,0,0,1-1.44-1.38,34.38,34.38,0,0,0,5.08-6.94,12.11,12.11,0,0,0,1-5,10.08,10.08,0,0,0-1.84-5.86,6.05,6.05,0,0,0-5.3-2.67,6.34,6.34,0,0,0-2.83.47,1.94,1.94,0,0,0-.86,1.86v17.9a21.19,21.19,0,0,1-3.55.19c-.48,0-.89,0-1.26,0a6.38,6.38,0,0,1-1.16-.17V191.18a8.71,8.71,0,0,0-.62-3.58c-.48-.8-.95-1.61-1.43-2.43,0-.2,1.06-.85,3.17-2s3.43-1.83,3.94-2.15h1.39a32,32,0,0,0-.24,3.68c0,1-.07,2.59-.22,4.82S494.27,193.15,494.27,193.66Z"/><path class="cls-3" d="M535,212.85c0,.45.45,1.11,1.36,2a7.94,7.94,0,0,1,1.36,1.46,17.7,17.7,0,0,1-2.27,2,13.87,13.87,0,0,1-2.5,1.83,17.3,17.3,0,0,1-2.58-2,4,4,0,0,1-1.29-3.06l-1-.38c-.48.45-1.68,1.4-3.61,2.87a21.1,21.1,0,0,1-3.12,2.19c-1.85,0-3.81-1.2-5.9-3.6a11.8,11.8,0,0,1-2-13.06,14.46,14.46,0,0,1,2.51-3.62,68,68,0,0,1,5.32-4.56c2.64-2.12,4.13-3.18,4.49-3.18l5.77,3.25,3.63,1.91c1.11.7,1.67,1.23,1.67,1.57s-.35.85-1.05,1.48a2.75,2.75,0,0,0-1,2v7.4c-.1.6-.19,1.22-.26,1.86a12.68,12.68,0,0,0-.12,1.38c0,.45.06.67.19.67s.13,0,.21-.14A1.59,1.59,0,0,0,535,212.85Zm-6.4-2.39v-9.21a10.5,10.5,0,0,0-2.75-2.05c-1-.54-2-1-2.86-1.43q-1.72,0-3.19,3a12.22,12.22,0,0,0-1.46,4.58,7.6,7.6,0,0,0,2.11,5.4q2.12,2.23,3.93,2.24a4.72,4.72,0,0,0,3.17-.91A2.42,2.42,0,0,0,528.63,210.46Z"/><path class="cls-3" d="M565.39,202a11.79,11.79,0,0,1-.82,4.59,25.45,25.45,0,0,1-2.33,4.24,31.45,31.45,0,0,1-2.8,3.7c-.84.94-1.72,1.92-2.65,2.94a22,22,0,0,1-1.36,2.05,2,2,0,0,1-1.59,1q-1.87,0-4.4-8.44a83.16,83.16,0,0,0-4.29-12,11.48,11.48,0,0,0-4.73-5.18v-1.43h8.07c.51.83,1,1.78,1.55,2.84a5.4,5.4,0,0,0,1.36,2c1.11-1.11,2.25-2.31,3.41-3.58s2-1.91,2.51-1.91c1.53,0,3.25.78,5.18,2.34A8.34,8.34,0,0,1,565.39,202Zm-4.59,3.92a6.7,6.7,0,0,0-1.5-4.34,4.7,4.7,0,0,0-3.84-1.87,5.56,5.56,0,0,0-1.74.27l-1.51.45v.67l5.3,13.17a31,31,0,0,0,2.41-4.34A9.89,9.89,0,0,0,560.8,205.93Z"/><path class="cls-3" d="M584.62,213q-1.18,2.37-2.48,4.74t-2.1,2.37a16.87,16.87,0,0,1-4-.76,12.31,12.31,0,0,1-5.47-3.65q-2.71-2.9-2.72-8.53,0-4,1-5.66a22.51,22.51,0,0,1,3.65-4.39c1.79-1.8,3-2.95,3.48-3.46a2.19,2.19,0,0,1,1.31-.77c1.5,1.06,3,2.16,4.54,3.33a7.75,7.75,0,0,1,2.62,2.7L573.6,209.51a6.51,6.51,0,0,0,2.86,3.22,10.79,10.79,0,0,0,4.25.69,11.08,11.08,0,0,0,3.43-.38Zm-11.33-5.84,5.12-5a4.67,4.67,0,0,0-1.6-1.77,19.22,19.22,0,0,0-1.88-1.05c-.67,0-1.31.57-1.93,1.7a7.14,7.14,0,0,0-.93,3.5A2.72,2.72,0,0,0,573.29,207.2Z"/><path class="cls-3" d="M78.68,267.6a46.17,46.17,0,0,1-4.44,6.27q-2.67,3.22-3.77,3.22H51.62v-1.57A66.16,66.16,0,0,0,57,270.36,84.17,84.17,0,0,0,64.29,262q3.22-4.28,3.22-6.66a3.81,3.81,0,0,0-1.88-3.63,9.14,9.14,0,0,0-4.51-1,13.3,13.3,0,0,0-5.92,1.58v-1a53.4,53.4,0,0,0,3.08-5.8q2.07-4.32,3.5-4.32a14.1,14.1,0,0,1,8.71,3.06,9.6,9.6,0,0,1,4,8q0,4.82-4.82,9.73-3.87,3.59-7.73,7.12H63.6l14.27-1.48Z"/><path class="cls-3" d="M104.31,260.87q0,5.82-2.55,9.16a17.73,17.73,0,0,1-7.33,5.39q-.62.52-1.5,1.2a2.71,2.71,0,0,1-1.41.67q-3.34,0-7-5.28t-3.65-13.63a16.22,16.22,0,0,1,2.79-9.68,21,21,0,0,1,5.94-5.85c2.1-1.29,3.37-1.93,3.82-1.93q1.18,0,3.87,2.31a20.91,20.91,0,0,1,4.84,6.83A24.67,24.67,0,0,1,104.31,260.87ZM101,262.92q0-3.72-3.51-8.4t-7.85-4.68a5.23,5.23,0,0,0-4,1.74A6.13,6.13,0,0,0,84,255.9q0,3.43,3.55,8t7.76,4.56a6.86,6.86,0,0,0,4.08-1.15C100.44,266.55,101,265.08,101,262.92Z"/><path class="cls-3" d="M151.18,267.31a9.66,9.66,0,0,1-3,7.11,9.94,9.94,0,0,1-7.35,3,13.26,13.26,0,0,1-7.08-2.53c-2.6-1.68-3.89-3.29-3.89-4.82q0-.43,2.07-1.5a33.54,33.54,0,0,1,3.61-1.65v2.29a5,5,0,0,0,1.5,3.75,5.63,5.63,0,0,0,7.52,0,4.72,4.72,0,0,0,1.52-3.58,5.92,5.92,0,0,0-1.36-3.7,4,4,0,0,0-3.22-1.74,12.84,12.84,0,0,0-4.58,1.24,16.05,16.05,0,0,1-3.44,1.24,22.24,22.24,0,0,1-2-3.08,9.32,9.32,0,0,1-1-4.51,7.92,7.92,0,0,1,3.13-6.34,10.41,10.41,0,0,1,6.75-2.58,12.19,12.19,0,0,1,5.73,1.76,8.45,8.45,0,0,1,4.11,4.2l-5.78,3.2a25.18,25.18,0,0,0-1.48-4.58c-.51-1.08-1.69-1.62-3.53-1.62a3.62,3.62,0,0,0-2.77,1.24,4.17,4.17,0,0,0-1.14,2.91,4.87,4.87,0,0,0,1.28,3.34,3.8,3.8,0,0,0,2.87,1.43,12.65,12.65,0,0,0,5-1.48c2.1-1,3.2-1.48,3.3-1.48a20.15,20.15,0,0,1,2.12,3.08A11.09,11.09,0,0,1,151.18,267.31Z"/><path class="cls-3" d="M170.32,270.32q-1.19,2.37-2.48,4.74t-2.1,2.37a17.4,17.4,0,0,1-4-.76,12.31,12.31,0,0,1-5.47-3.66q-2.72-2.88-2.72-8.52,0-4,1-5.66a22.51,22.51,0,0,1,3.65-4.39c1.8-1.8,3-3,3.48-3.46a2.18,2.18,0,0,1,1.32-.77q2.23,1.57,4.53,3.32a8,8,0,0,1,2.63,2.71L159.3,266.79a6.56,6.56,0,0,0,2.86,3.22,10.79,10.79,0,0,0,4.25.69,11.52,11.52,0,0,0,3.44-.38ZM159,264.48l5.12-5a4.56,4.56,0,0,0-1.6-1.76,15.79,15.79,0,0,0-1.88-1c-.67,0-1.31.56-1.93,1.69a7.21,7.21,0,0,0-.93,3.51A2.73,2.73,0,0,0,159,264.48Z"/><path class="cls-3" d="M189.46,270.13a38.08,38.08,0,0,1-3.19,5.41q-1.4,1.84-5.4,1.84a9.38,9.38,0,0,1-8.88-8.45V258.28c0-.6.54-1.22,1.63-1.86s2.79-1.74,5.13-3.32a20.79,20.79,0,0,1,3.89-2.36c1.24.82,2.53,1.68,3.89,2.56a18.35,18.35,0,0,1,2.69,2,13.92,13.92,0,0,1-1.64,2.44c-1,1.27-1.55,1.91-1.74,1.91a14,14,0,0,1-3-2c-1.75-1.36-3-2-3.87-2a1.3,1.3,0,0,0-.91.52,1.55,1.55,0,0,0-.47,1.05v10a4.32,4.32,0,0,0,1.43,3.1,4.87,4.87,0,0,0,3.58,1.43,8,8,0,0,0,3.31-.83,9.37,9.37,0,0,0,2.85-1.94h.66Z"/><path class="cls-3" d="M214.09,265.26a9,9,0,0,1-2.6,6.44,21,21,0,0,1-5.7,4.3,17.73,17.73,0,0,1-3.54,1.57q-3.52,0-7-4.84a16.59,16.59,0,0,1-3.49-9.76,9.45,9.45,0,0,1,2.7-6.78,20.9,20.9,0,0,1,5.9-4.39,18.21,18.21,0,0,1,3.67-1.58q3.19,0,6.63,4.54A16.84,16.84,0,0,1,214.09,265.26Zm-3.44,1.38q0-3-3-6.37a9.37,9.37,0,0,0-7.26-3.41,5.81,5.81,0,0,0-3.6,1.26,3.78,3.78,0,0,0-1.65,3.08c0,1.81,1,3.86,3.13,6.13a9.27,9.27,0,0,0,6.94,3.42,7.55,7.55,0,0,0,4-.91A3.46,3.46,0,0,0,210.65,266.64Z"/><path class="cls-3" d="M240.77,276.62a3.64,3.64,0,0,1-1.48.24c-.25,0-1,0-2.17-.12s-2-.12-2.55-.12V261.29a6.61,6.61,0,0,0-.86-3.92c-.57-.73-1.64-1.1-3.2-1.1a8.86,8.86,0,0,0-3.15.62c-1.08.42-1.62.89-1.62,1.44v18.72H220V258.1a2.07,2.07,0,0,0-1.1-1.77,15.8,15.8,0,0,0-3.24-1.48v-.67l5.25-3.86a11.7,11.7,0,0,1,3.72,2.34c.51.73,1,1.46,1.58,2.19l7.06-4.78a15.1,15.1,0,0,1,5.9,2.62q1.63,1.49,1.64,5.11Z"/><path class="cls-3" d="M268.93,273.8a28.77,28.77,0,0,0-3.16,2.39c-1,.86-1.62,1.29-1.87,1.29-.9,0-2-.69-3.31-2.06s-1.81-2.19-1.87-2.29c-.38.32-1.48,1.12-3.28,2.41a13.06,13.06,0,0,1-3.14,1.94c-1.31,0-3.11-1.16-5.43-3.49a12.56,12.56,0,0,1-3.47-9.3,12.12,12.12,0,0,1,2.17-7,22.74,22.74,0,0,1,4.72-5.15c1.71-1.32,2.75-2,3.13-2a10.72,10.72,0,0,1,2,.83,21.66,21.66,0,0,1,2.74,1.89h.53V248.5a16.1,16.1,0,0,0-.48-4.53l-1.14-2.1c0-.19.67-.68,2-1.46s3-1.58,4.8-2.41h.48v31.27c.54.86,1.1,1.72,1.67,2.57a3.81,3.81,0,0,0,2.86.86Zm-10.21-6.11v-6.16a5.12,5.12,0,0,0-2-3.69A5.81,5.81,0,0,0,253,256a4.92,4.92,0,0,0-3.46,2,6.39,6.39,0,0,0-1.79,4.43c0,1.15.63,2.84,1.89,5.09s2.84,3.36,4.75,3.36a4.54,4.54,0,0,0,3.19-1A2.92,2.92,0,0,0,258.72,267.69Z"/><path class="cls-3" d="M291.32,267.31a9.7,9.7,0,0,1-3,7.11,9.94,9.94,0,0,1-7.35,3,13.29,13.29,0,0,1-7.09-2.53Q270,272.33,270,270c0-.29.69-.79,2.08-1.5a32.63,32.63,0,0,1,3.6-1.65v2.29a5,5,0,0,0,1.5,3.75,5.63,5.63,0,0,0,7.52,0,4.7,4.7,0,0,0,1.53-3.58,5.92,5.92,0,0,0-1.36-3.7,4,4,0,0,0-3.22-1.74,12.79,12.79,0,0,0-4.58,1.24,16.25,16.25,0,0,1-3.44,1.24,22.24,22.24,0,0,1-2-3.08,9.32,9.32,0,0,1-1-4.51,7.89,7.89,0,0,1,3.13-6.34,10.39,10.39,0,0,1,6.75-2.58,12.22,12.22,0,0,1,5.73,1.76,8.38,8.38,0,0,1,4.1,4.2l-5.77,3.2a25.18,25.18,0,0,0-1.48-4.58q-.77-1.62-3.54-1.62a3.6,3.6,0,0,0-2.76,1.24,4.14,4.14,0,0,0-1.15,2.91,4.83,4.83,0,0,0,1.29,3.34,3.78,3.78,0,0,0,2.86,1.43,12.69,12.69,0,0,0,5-1.48c2.1-1,3.2-1.48,3.29-1.48a18.81,18.81,0,0,1,2.12,3.08A11.08,11.08,0,0,1,291.32,267.31Z"/><path class="cls-3" d="M303.2,273.26a5.42,5.42,0,0,1-1.19,1.82,17,17,0,0,1-2.24,2.34c-1-.86-2-1.75-3-2.68s-1.48-1.55-1.48-1.9c.7-.93,1.45-1.85,2.24-2.77s1.43-1.39,1.91-1.39c.64,0,1.42.6,2.34,1.79A5.38,5.38,0,0,1,303.2,273.26Zm-2-18.06v5.72l-.57,2.86-2,1.15-1.72,2.29-1.43,1.43.62-9.82.53-6.2-.29-4.86-.57-6.58,6.87-2.86-.57,8.58a33.28,33.28,0,0,1-.29,4.22C301.58,252.6,301.39,254,301.2,255.2Z"/></g></svg>
