<svg xmlns="http://www.w3.org/2000/svg" width="660" height="340" viewBox="0 0 660 340"><defs><style>.cls-1{opacity:0.72;}.cls-2{fill:#847070;}.cls-3{fill:#0ee222;}.cls-4{fill:#fffdfd;}</style></defs><title>levelcomplete</title><g id="Layer_2" data-name="Layer 2"><g class="cls-1"><rect x="7.3" y="3.66" width="651.44" height="333.72" rx="47.56"/></g><rect class="cls-2" x="1.25" y="2.62" width="649.55" height="325.94" rx="47.56"/><path class="cls-3" d="M62.92,101.11l-3.75-.19-3.38.18-2.57.35a.91.91,0,0,0-.28.38.21.21,0,0,1-.23.15h-2.3a1.8,1.8,0,0,1-1.13-.25.8.8,0,0,1-.3-.63.8.8,0,0,1,.05-.33.56.56,0,0,1,.09-.14,6.84,6.84,0,0,1,1.54-3,8.45,8.45,0,0,0,1.54-5.08V78.75a8.62,8.62,0,0,0-.84-4.2c-.62-.84-1.23-1.68-1.82-2.52q0-.61,4-2.71A91.17,91.17,0,0,1,62,65.38q4.55-1.84,6.32-1.84,4.75,0,6.21,3.15c1,2.1,1.73,3.78,2.28,5.06A14.76,14.76,0,0,1,74,73.22l-3.66,1.47a27.6,27.6,0,0,0-2.83-5.3,4.34,4.34,0,0,0-3.71-1.89c-2,0-3.37.68-4,2a14.29,14.29,0,0,0-1,6.09c0,.81,0,2.16.14,4.06s.14,3.39.14,4.48a33.49,33.49,0,0,1-.65,7,13.3,13.3,0,0,1-2.62,5.46,7.35,7.35,0,0,0,3-.56,11.46,11.46,0,0,1,2.2-.77A16.92,16.92,0,0,1,62.89,95a14,14,0,0,1,1.68-.12,9.92,9.92,0,0,1,3.85.59,11,11,0,0,1,2.17,1.19c1.09-.56,2.24-1.22,3.45-2a17.44,17.44,0,0,0,3.22-2.52h1.31v1.35a7.93,7.93,0,0,1-2.79,5.86A10.46,10.46,0,0,1,68.31,102a31.74,31.74,0,0,1-3.19-.09A10.75,10.75,0,0,1,62.92,101.11Z"/><path class="cls-3" d="M97.8,95.18c-.78,1.55-1.59,3.09-2.43,4.64s-1.52,2.32-2.05,2.32a16.53,16.53,0,0,1-3.94-.75A12.08,12.08,0,0,1,84,97.82Q81.38,95,81.37,89.48c0-2.58.31-4.43.94-5.53a22,22,0,0,1,3.57-4.3c1.75-1.76,2.89-2.89,3.4-3.38a2.15,2.15,0,0,1,1.29-.75q2.19,1.55,4.43,3.25a7.74,7.74,0,0,1,2.57,2.64L87,91.73a6.37,6.37,0,0,0,2.8,3.15,10.54,10.54,0,0,0,4.15.67,11,11,0,0,0,3.36-.37ZM86.72,89.47l5-4.89a4.69,4.69,0,0,0-1.56-1.73,18.55,18.55,0,0,0-1.85-1c-.65,0-1.28.56-1.89,1.66a7.09,7.09,0,0,0-.9,3.43A2.64,2.64,0,0,0,86.72,89.47Z"/><path class="cls-3" d="M124.73,84.4a11.64,11.64,0,0,1-.79,4.48A24.11,24.11,0,0,1,121.65,93a30.72,30.72,0,0,1-2.73,3.62c-.82.92-1.69,1.88-2.59,2.87a23.27,23.27,0,0,1-1.33,2,2,2,0,0,1-1.56,1q-1.83,0-4.3-8.26a82.83,82.83,0,0,0-4.2-11.74,11.25,11.25,0,0,0-4.62-5.07V76h7.89c.5.81,1,1.74,1.52,2.78a5.21,5.21,0,0,0,1.33,1.94q1.64-1.64,3.33-3.5c1.14-1.25,2-1.87,2.45-1.87q2.25,0,5.07,2.29T124.73,84.4Zm-4.48,3.83A6.56,6.56,0,0,0,118.78,84,4.63,4.63,0,0,0,115,82.16a5.39,5.39,0,0,0-1.7.26l-1.47.44v.65L117,96.39a30.13,30.13,0,0,0,2.36-4.24A9.78,9.78,0,0,0,120.25,88.23Z"/><path class="cls-3" d="M143.54,95.18c-.78,1.55-1.58,3.09-2.42,4.64s-1.53,2.32-2.06,2.32a16.53,16.53,0,0,1-3.94-.75,12.08,12.08,0,0,1-5.35-3.57q-2.66-2.83-2.66-8.34c0-2.58.31-4.43.94-5.53a22,22,0,0,1,3.57-4.3c1.76-1.76,2.89-2.89,3.41-3.38a2.11,2.11,0,0,1,1.28-.75q2.19,1.55,4.43,3.25a7.74,7.74,0,0,1,2.57,2.64L132.76,91.73a6.41,6.41,0,0,0,2.8,3.15,10.56,10.56,0,0,0,4.16.67,11.07,11.07,0,0,0,3.36-.37Zm-11.08-5.71,5-4.89a4.69,4.69,0,0,0-1.56-1.73,17.5,17.5,0,0,0-1.85-1c-.65,0-1.28.56-1.88,1.66a7,7,0,0,0-.91,3.43A2.66,2.66,0,0,0,132.46,89.47Z"/><path class="cls-3" d="M156.14,98.85c0,.22-.67.8-2,1.73a8.09,8.09,0,0,1-2.45,1.4,9.44,9.44,0,0,1-2.52-2c-1.43-1.37-2.14-2.26-2.14-2.66V73.44a7.57,7.57,0,0,0-.54-3,9.75,9.75,0,0,0-1.7-2.57v-.7l7.14-3.83h.93v29c0,2.18.55,3.72,1.66,4.6S156.14,98.45,156.14,98.85Z"/><path class="cls-3" d="M198.29,95a35.76,35.76,0,0,1-3.13,5.3q-1.35,1.8-5.27,1.8a9.17,9.17,0,0,1-8.68-8.27V83.41c0-.59.53-1.2,1.58-1.82s2.74-1.7,5-3.25A20.92,20.92,0,0,1,191.62,76q1.81,1.22,3.8,2.51a17.91,17.91,0,0,1,2.64,1.94,14.66,14.66,0,0,1-1.61,2.38q-1.42,1.86-1.71,1.86a14,14,0,0,1-2.89-2q-2.57-2-3.78-2a1.28,1.28,0,0,0-.89.51,1.54,1.54,0,0,0-.46,1v9.8a4.2,4.2,0,0,0,1.4,3,4.72,4.72,0,0,0,3.5,1.4,7.8,7.8,0,0,0,3.24-.81,9.4,9.4,0,0,0,2.78-1.89h.65Z"/><path class="cls-3" d="M222.37,90.23a8.78,8.78,0,0,1-2.54,6.3,20.47,20.47,0,0,1-5.58,4.2,17.36,17.36,0,0,1-3.45,1.54c-2.3,0-4.59-1.57-6.86-4.73A16.27,16.27,0,0,1,200.53,88a9.25,9.25,0,0,1,2.64-6.63,20.65,20.65,0,0,1,5.76-4.29,17.35,17.35,0,0,1,3.6-1.54q3.12,0,6.48,4.43A16.55,16.55,0,0,1,222.37,90.23ZM219,91.59q0-2.9-2.94-6.23A9.11,9.11,0,0,0,209,82a5.65,5.65,0,0,0-3.53,1.24,3.68,3.68,0,0,0-1.61,3q0,2.66,3.06,6a9.06,9.06,0,0,0,6.79,3.34,7.27,7.27,0,0,0,3.9-.89A3.37,3.37,0,0,0,219,91.59Z"/><path class="cls-3" d="M262.33,101.9h-5.56V88.27a10.48,10.48,0,0,0-.86-4.94c-.58-1-1.86-1.5-3.85-1.5-1.81,0-3,.25-3.62.75a3,3,0,0,0-.91,2.47c0,.66.05,1.58.16,2.78s.17,2,.17,2.26V101.9H242V85.15a3,3,0,0,0-1.37-2.57,5.33,5.33,0,0,0-3.15-1c-.16,0-.88.15-2.15.44a10.76,10.76,0,0,0-2.29.68V101.9h-5.55V86.08c0-2.18-.26-3.66-.77-4.44s-1.61-1.16-3.29-1.16V80a4.77,4.77,0,0,1,1.75-1.92q1.56-1.22,3.15-2.34,1.82,0,3.45,2.34c.47.88.95,1.75,1.45,2.62h.51a35,35,0,0,1,3.64-2.78,16.28,16.28,0,0,1,3.5-2.18,8.68,8.68,0,0,1,3,.87,6.76,6.76,0,0,1,2.45,1.43,6.15,6.15,0,0,1,.8,1.61q.38,1.05.93,1c.09,0,1.31-.82,3.64-2.48s3.7-2.48,4.11-2.48a6.75,6.75,0,0,1,4.34,1.8q2.15,1.8,2.15,6Z"/><path class="cls-3" d="M289,87.22a16.59,16.59,0,0,1-3.4,10.26q-3.42,4.51-8,4.51a4.78,4.78,0,0,1-2.24-1c-1-.67-1.82-1.18-2.48-1.53v13.17H267.6V97.47c0-2.49,0-4.38-.05-5.67s-.09-2.45-.18-3.48a19.14,19.14,0,0,0-.75-6.12c-.56-.84-1.12-1.69-1.68-2.56,0-.41.75-.94,2.26-1.59a43.72,43.72,0,0,0,5.07-2.66h.65v4.48a6.73,6.73,0,0,0,3.64-2.38c1.28-1.4,2.29-2.1,3-2.1q3,0,6.2,3.18A11.59,11.59,0,0,1,289,87.22Zm-4.24,3.6a8.45,8.45,0,0,0-2.69-6.39q-2.68-2.55-5.16-2.55a6.4,6.4,0,0,0-1.39.21,13.42,13.42,0,0,0-2.34.87v7.21q0,3.6,2.1,5a7.15,7.15,0,0,0,3.88,1.4q3,0,4.31-1.9A6.79,6.79,0,0,0,284.78,90.82Z"/><path class="cls-3" d="M302.05,98.85c0,.22-.68.8-2,1.73a8.09,8.09,0,0,1-2.45,1.4,9.62,9.62,0,0,1-2.52-2c-1.43-1.37-2.14-2.26-2.14-2.66V73.44a7.57,7.57,0,0,0-.54-3,9.75,9.75,0,0,0-1.7-2.57v-.7l7.14-3.83h.93v29c0,2.18.55,3.72,1.66,4.6S302.05,98.45,302.05,98.85Z"/><path class="cls-3" d="M320.62,95.18c-.78,1.55-1.59,3.09-2.43,4.64s-1.52,2.32-2.05,2.32a16.53,16.53,0,0,1-3.94-.75,12.08,12.08,0,0,1-5.35-3.57q-2.66-2.83-2.66-8.34c0-2.58.31-4.43.94-5.53a22,22,0,0,1,3.57-4.3c1.75-1.76,2.89-2.89,3.4-3.38a2.12,2.12,0,0,1,1.29-.75q2.19,1.55,4.43,3.25a7.74,7.74,0,0,1,2.57,2.64L309.84,91.73a6.37,6.37,0,0,0,2.8,3.15,10.54,10.54,0,0,0,4.15.67,11,11,0,0,0,3.36-.37Zm-11.08-5.71,5-4.89A4.63,4.63,0,0,0,313,82.85a17.4,17.4,0,0,0-1.84-1c-.65,0-1.28.56-1.89,1.66a7.09,7.09,0,0,0-.9,3.43A2.66,2.66,0,0,0,309.54,89.47Z"/><path class="cls-3" d="M338,79.68h-5.6V93.41a3.43,3.43,0,0,0,1.48,3,6.38,6.38,0,0,0,3.66,1v.85q-2.34,1.83-3.67,2.76a4.66,4.66,0,0,1-1.7.91q-1.35,0-3.48-1.83a5.5,5.5,0,0,1-2.12-4.22V80.29a3.29,3.29,0,0,0-1-.47,3.48,3.48,0,0,0-.91-.14h-2.24V77.26l8.17-7.19h1.54c0,.72,0,1.37.08,2l.15,1.77a10.55,10.55,0,0,1-.23,2.06H338Z"/><path class="cls-3" d="M356.65,95.18c-.78,1.55-1.58,3.09-2.42,4.64s-1.53,2.32-2.06,2.32a16.53,16.53,0,0,1-3.94-.75,12.08,12.08,0,0,1-5.35-3.57q-2.65-2.83-2.66-8.34c0-2.58.31-4.43.94-5.53a22,22,0,0,1,3.57-4.3c1.76-1.76,2.89-2.89,3.41-3.38a2.11,2.11,0,0,1,1.28-.75q2.19,1.55,4.43,3.25a7.74,7.74,0,0,1,2.57,2.64L345.87,91.73a6.41,6.41,0,0,0,2.8,3.15,10.56,10.56,0,0,0,4.16.67,11.07,11.07,0,0,0,3.36-.37Zm-11.07-5.71,5-4.89A4.69,4.69,0,0,0,349,82.85a18.55,18.55,0,0,0-1.85-1c-.65,0-1.28.56-1.88,1.66a7,7,0,0,0-.91,3.43A2.64,2.64,0,0,0,345.58,89.47Z"/><path class="cls-3" d="M368,98.06a5.49,5.49,0,0,1-1.17,1.78,15.63,15.63,0,0,1-2.19,2.28c-1-.84-1.93-1.71-2.89-2.61s-1.45-1.53-1.45-1.87c.68-.9,1.41-1.8,2.19-2.71s1.4-1.35,1.87-1.35c.62,0,1.38.59,2.29,1.75A5.24,5.24,0,0,1,368,98.06Zm-2-17.66V86l-.56,2.8-2,1.12-1.68,2.24-1.4,1.4.61-9.61.51-6.06-.28-4.75-.56-6.44,6.72-2.79-.56,8.39a31.58,31.58,0,0,1-.28,4.12C366.45,77.86,366.27,79.19,366.08,80.4Z"/><path class="cls-4" d="M427.92,65.4l-14.19,38.09V104a3.08,3.08,0,0,0,.84,2.17c.56.61,1.75.91,3.55.91a10.49,10.49,0,0,0,4.46-1.44,17.83,17.83,0,0,1,3.76-1.64,9.31,9.31,0,0,1-4.32,6.4,12.32,12.32,0,0,1-6.56,2.42,5.94,5.94,0,0,1-4.46-1.75,6.13,6.13,0,0,1-1.7-4.45,9.62,9.62,0,0,1,.42-2.24c.28-1,.58-2,.89-3q-1-2.94-2.22-6.46t-3.9-11q-2.7-7.47-4.08-10.76c-.92-2.2-2.25-3.29-4-3.29l-3.08,1.3-.28-1.68.28-1.4A10.28,10.28,0,0,1,396,64.87a6.2,6.2,0,0,1,3.5-.82,6.11,6.11,0,0,1,5,2q1.26,1.91,2.52,3.78a17.27,17.27,0,0,0,3-3.81q1.47-2.4,2.31-2.4a11.08,11.08,0,0,1,3.45,1.56,10.4,10.4,0,0,0,5,1.57,5.18,5.18,0,0,0,4.85-2.71h2.24Zm-6.29,6.87c-.72.21-1.5.43-2.34.65a5.19,5.19,0,0,1-1.88.23,20,20,0,0,1-4.91-.93c-.66-.35-1.29-.7-1.92-1.08a2.6,2.6,0,0,0-1.54.66c-.56.43-.93.73-1.12.88a35.77,35.77,0,0,1,1.78,4.41c.9,2.51,1.82,5,2.75,7.56a42.7,42.7,0,0,0,2.15,5.15l5.63-13.9Z"/><path class="cls-4" d="M452.1,90.23a8.82,8.82,0,0,1-2.54,6.3,20.47,20.47,0,0,1-5.58,4.2,17.36,17.36,0,0,1-3.45,1.54c-2.31,0-4.59-1.57-6.86-4.73A16.2,16.2,0,0,1,430.26,88a9.28,9.28,0,0,1,2.63-6.63,20.69,20.69,0,0,1,5.77-4.29,17.39,17.39,0,0,1,3.59-1.54q3.13,0,6.49,4.43A16.55,16.55,0,0,1,452.1,90.23Zm-3.36,1.36q0-2.9-2.94-6.23A9.12,9.12,0,0,0,438.71,82a5.63,5.63,0,0,0-3.53,1.24,3.68,3.68,0,0,0-1.61,3q0,2.66,3.06,6a9.06,9.06,0,0,0,6.79,3.34,7.27,7.27,0,0,0,3.9-.89A3.37,3.37,0,0,0,448.74,91.59Z"/><path class="cls-4" d="M476.6,94.48a2.51,2.51,0,0,0,1.33,2.31c.89.51,1.33,1,1.33,1.47,0,.31-.67,1-2,2.15a11.69,11.69,0,0,1-2.24,1.68c-1.09,0-2.1-.78-3-2.34-.74-1.64-1.15-2.52-1.21-2.61a22.73,22.73,0,0,0-4,2.73c-1.86,1.48-3,2.22-3.45,2.22s-1.85-.69-4-2.08-3.17-2.78-3.17-4.18V86.59a3.24,3.24,0,0,1-.14-.81c0-.36-.05-.67-.05-.91v-2a4.74,4.74,0,0,0-1.33-2c-.76-.8-1.14-1.32-1.14-1.57.81-.87,1.63-1.72,2.47-2.56s1.43-1.26,1.77-1.26a.93.93,0,0,1,.68.32,7.23,7.23,0,0,0,.63.61,6.41,6.41,0,0,1,2.43,2.52,10.07,10.07,0,0,1,.51,3.69v9.85A3.4,3.4,0,0,0,463.58,95a4.83,4.83,0,0,0,2.94,1.21,5.28,5.28,0,0,0,2.17-.56A9.92,9.92,0,0,0,471,94.25V76.37c.84-.19,1.7-.36,2.57-.54a14.77,14.77,0,0,0,1.68-.39h1.59V87.11c0,1,0,2.15-.1,3.57S476.63,93.36,476.6,94.48Z"/><path class="cls-4" d="M512.26,76.23v3.41h.66a17.67,17.67,0,0,0,2.75-2,9.38,9.38,0,0,1,2.66-1.82q3.27,0,6.58,3.59a12.47,12.47,0,0,1,3.31,8.77,14.79,14.79,0,0,1-1.24,5.7,16.55,16.55,0,0,1-3.58,5.34c-1.57,1.57-2.72,2.67-3.47,3.31s-1.22,1-1.41,1a11.27,11.27,0,0,1-1.4-1.36,33.59,33.59,0,0,0,5-6.78,11.94,11.94,0,0,0,1-4.88,9.93,9.93,0,0,0-1.8-5.74,5.91,5.91,0,0,0-5.18-2.61,6.1,6.1,0,0,0-2.77.47,1.89,1.89,0,0,0-.84,1.82v17.5a20.3,20.3,0,0,1-3.47.19q-.71,0-1.23,0a5.91,5.91,0,0,1-1.13-.16V73.8a8.72,8.72,0,0,0-.61-3.5c-.47-.77-.94-1.57-1.4-2.38,0-.18,1-.82,3.1-1.91s3.35-1.79,3.85-2.1h1.36a30.53,30.53,0,0,0-.24,3.59c0,1-.07,2.54-.21,4.72S512.26,75.73,512.26,76.23Z"/><path class="cls-4" d="M552.12,95c0,.44.44,1.09,1.33,1.94a8.19,8.19,0,0,1,1.33,1.42,15.59,15.59,0,0,1-2.22,1.94,13.09,13.09,0,0,1-2.45,1.8,17.23,17.23,0,0,1-2.52-2,3.9,3.9,0,0,1-1.26-3l-.93-.37c-.47.43-1.64,1.37-3.52,2.8a21.94,21.94,0,0,1-3.06,2.15q-2.72,0-5.77-3.53a11.41,11.41,0,0,1-3-7.58,11.21,11.21,0,0,1,1.12-5.18,14.15,14.15,0,0,1,2.45-3.55q1.33-1.35,5.2-4.46t4.39-3.1l5.65,3.17,3.54,1.87c1.09.68,1.64,1.2,1.64,1.54s-.34.82-1,1.45a2.68,2.68,0,0,0-1,2v7.23c-.09.59-.18,1.2-.25,1.82a11.91,11.91,0,0,0-.12,1.35c0,.44.06.66.19.66s.13-.05.21-.14A1.1,1.1,0,0,0,552.12,95Zm-6.25-2.33v-9a10.5,10.5,0,0,0-2.7-2c-1-.52-1.95-1-2.79-1.4-1.13,0-2.16,1-3.12,3a11.91,11.91,0,0,0-1.43,4.48A7.43,7.43,0,0,0,537.9,93q2.05,2.19,3.84,2.19a4.56,4.56,0,0,0,3.09-.89A2.37,2.37,0,0,0,545.87,92.66Z"/><path class="cls-4" d="M581.81,84.4a11.64,11.64,0,0,1-.8,4.48A24.7,24.7,0,0,1,578.73,93,33.08,33.08,0,0,1,576,96.65c-.83.92-1.69,1.88-2.6,2.87a21.15,21.15,0,0,1-1.33,2,2,2,0,0,1-1.56,1q-1.82,0-4.29-8.26A82.83,82.83,0,0,0,562,82.51a11.36,11.36,0,0,0-4.62-5.07V76h7.88c.5.81,1,1.74,1.52,2.78a5.33,5.33,0,0,0,1.33,1.94q1.64-1.64,3.34-3.5c1.13-1.25,1.95-1.87,2.45-1.87q2.24,0,5.06,2.29A8.14,8.14,0,0,1,581.81,84.4Zm-4.48,3.83A6.61,6.61,0,0,0,575.86,84a4.65,4.65,0,0,0-3.76-1.82,5.46,5.46,0,0,0-1.71.26l-1.47.44v.65l5.18,12.88a29.15,29.15,0,0,0,2.36-4.24A9.63,9.63,0,0,0,577.33,88.23Z"/><path class="cls-4" d="M600.62,95.18c-.78,1.55-1.59,3.09-2.43,4.64s-1.53,2.32-2.06,2.32a16.53,16.53,0,0,1-3.94-.75,12,12,0,0,1-5.34-3.57c-1.78-1.89-2.66-4.67-2.66-8.34a12,12,0,0,1,.93-5.53,22,22,0,0,1,3.57-4.3c1.76-1.76,2.89-2.89,3.41-3.38a2.11,2.11,0,0,1,1.28-.75q2.19,1.55,4.44,3.25a7.67,7.67,0,0,1,2.56,2.64L589.83,91.73a6.41,6.41,0,0,0,2.8,3.15,10.6,10.6,0,0,0,4.16.67,11.07,11.07,0,0,0,3.36-.37Zm-11.08-5.71,5-4.89A4.53,4.53,0,0,0,593,82.85a18.45,18.45,0,0,0-1.84-1c-.66,0-1.28.56-1.89,1.66a7,7,0,0,0-.91,3.43A2.64,2.64,0,0,0,589.54,89.47Z"/><path class="cls-4" d="M72.13,144.1a10.56,10.56,0,0,1-1.4,4.84,12.54,12.54,0,0,1-3.36,4.16c-1.31,1-2.93,2.19-4.88,3.53a13.79,13.79,0,0,1-3.38,2l-8.26-6.53c0-.15-.08-1.24-.14-3.26s-.1-4.29-.1-6.81V128.59c-.53-1.31-1-2.27-1.28-2.89s-.65-1.21-1-1.77c0-.22.75-.69,2.24-1.4a32.74,32.74,0,0,0,4.25-2.43H56v16.57h.94c.06,0,1-.77,2.7-2.21s2.79-2.17,3.13-2.17q3.27,0,6.32,3.72A12.48,12.48,0,0,1,72.13,144.1Zm-4.48,2a7.83,7.83,0,0,0-7-7.83,4.53,4.53,0,0,0-3.22,1,4.68,4.68,0,0,0-1,3.48,17.51,17.51,0,0,0,1,6.67q1.05,2.5,4.74,2.51a4.73,4.73,0,0,0,4-1.88A6.45,6.45,0,0,0,67.65,146.14Z"/><path class="cls-4" d="M90.8,151.19c-.78,1.55-1.59,3.09-2.43,4.64s-1.52,2.31-2.05,2.31a16.91,16.91,0,0,1-3.94-.74A12.08,12.08,0,0,1,77,153.83q-2.66-2.84-2.66-8.34A12,12,0,0,1,75.3,140a22.79,22.79,0,0,1,3.57-4.3q2.64-2.64,3.41-3.38a2.12,2.12,0,0,1,1.29-.75q2.19,1.54,4.43,3.25a7.84,7.84,0,0,1,2.57,2.64L80,147.74a6.37,6.37,0,0,0,2.8,3.15,10.54,10.54,0,0,0,4.15.67,11,11,0,0,0,3.36-.37Zm-11.08-5.71,5-4.89a4.56,4.56,0,0,0-1.57-1.73,17.4,17.4,0,0,0-1.84-1c-.65,0-1.28.56-1.89,1.66a7.1,7.1,0,0,0-.91,3.43A2.65,2.65,0,0,0,79.72,145.48Z"/><path class="cls-4" d="M109.28,151.19c-.78,1.55-1.58,3.09-2.42,4.64s-1.53,2.31-2.06,2.31a16.91,16.91,0,0,1-3.94-.74,12.08,12.08,0,0,1-5.35-3.57q-2.66-2.84-2.66-8.34a12,12,0,0,1,.94-5.53,22,22,0,0,1,3.57-4.3c1.76-1.76,2.89-2.89,3.41-3.38a2.11,2.11,0,0,1,1.28-.75q2.19,1.54,4.43,3.25a7.74,7.74,0,0,1,2.57,2.64L98.5,147.74a6.41,6.41,0,0,0,2.8,3.15,10.56,10.56,0,0,0,4.16.67,11.07,11.07,0,0,0,3.36-.37Zm-11.07-5.71,5-4.89a4.62,4.62,0,0,0-1.56-1.73,17.5,17.5,0,0,0-1.85-1c-.65,0-1.28.56-1.88,1.66a7,7,0,0,0-.91,3.43A2.65,2.65,0,0,0,98.21,145.48Z"/><path class="cls-4" d="M135.23,157.35a3.49,3.49,0,0,1-1.44.23c-.25,0-1,0-2.13-.11s-2-.12-2.49-.12v-15a6.44,6.44,0,0,0-.84-3.83c-.56-.72-1.61-1.07-3.13-1.07a8.67,8.67,0,0,0-3.08.6c-1.06.41-1.59.87-1.59,1.4v18.31h-5.65V139.24a2,2,0,0,0-1.07-1.73,15.67,15.67,0,0,0-3.17-1.44v-.66l5.13-3.78a11.61,11.61,0,0,1,3.64,2.29c.5.72,1,1.43,1.54,2.15l6.91-4.68a14.57,14.57,0,0,1,5.76,2.57c1.08,1,1.61,2.63,1.61,5Z"/><path class="cls-4" d="M178.5,151a36.66,36.66,0,0,1-3.13,5.3q-1.35,1.8-5.27,1.8a9.17,9.17,0,0,1-8.68-8.27V139.42c0-.59.53-1.2,1.58-1.82s2.74-1.71,5-3.25a20.92,20.92,0,0,1,3.81-2.31q1.81,1.22,3.8,2.51a17.91,17.91,0,0,1,2.64,1.94,14.66,14.66,0,0,1-1.61,2.38q-1.42,1.86-1.71,1.86a14,14,0,0,1-2.89-2q-2.56-2-3.78-2a1.28,1.28,0,0,0-.89.51,1.56,1.56,0,0,0-.47,1v9.8a4.21,4.21,0,0,0,1.41,3,4.7,4.7,0,0,0,3.5,1.4,7.8,7.8,0,0,0,3.24-.81,9.4,9.4,0,0,0,2.78-1.89h.65Z"/><path class="cls-4" d="M198.76,138.06c0,.62-.7,1.62-2.08,3a10.9,10.9,0,0,1-3.81,2.65c0-.31-.08-1-.12-2s-.06-1.86-.06-2.6v-1.26h-.94a1.74,1.74,0,0,0-1.21.46,1.42,1.42,0,0,0-.51,1.07V158h-5.56V143.61a11.75,11.75,0,0,0-.81-4.94,5,5,0,0,0-3.53-2.38v-.46a28.48,28.48,0,0,1,2.59-2.1,10.75,10.75,0,0,1,2.55-1.68,3.48,3.48,0,0,1,2.66,1.66c.84,1.1,1.54,2,2.1,2.78l3.69-3a8.43,8.43,0,0,1,2.1-1.47c.4,0,1,.59,1.77,1.75A7.5,7.5,0,0,1,198.76,138.06Z"/><path class="cls-4" d="M222.37,146.24a8.82,8.82,0,0,1-2.54,6.3,20.47,20.47,0,0,1-5.58,4.2,17.36,17.36,0,0,1-3.45,1.54c-2.3,0-4.59-1.57-6.86-4.73a16.27,16.27,0,0,1-3.41-9.55,9.25,9.25,0,0,1,2.64-6.63,20.65,20.65,0,0,1,5.76-4.29,17.39,17.39,0,0,1,3.59-1.54q3.14,0,6.49,4.43A16.55,16.55,0,0,1,222.37,146.24ZM219,147.6q0-2.9-2.94-6.24A9.13,9.13,0,0,0,209,138a5.7,5.7,0,0,0-3.53,1.23,3.71,3.71,0,0,0-1.61,3q0,2.67,3.06,6a9.06,9.06,0,0,0,6.79,3.34,7.36,7.36,0,0,0,3.9-.89A3.37,3.37,0,0,0,219,147.6Z"/><path class="cls-4" d="M259.81,139.1a10.42,10.42,0,0,1-1,4.34,30.29,30.29,0,0,1-3.46,5.37q-2.48,3.23-4.48,6c-1.34,1.89-2.26,2.83-2.75,2.83s-1.1-1.62-2.17-4.86-1.71-5-1.89-5.27a36.94,36.94,0,0,0-3.57,5.44c-1.86,3.12-3,4.69-3.53,4.69-.87,0-2.07-2.73-3.62-8.19s-2.74-8.93-3.61-10.41a4,4,0,0,0-3.6-2.22,5.89,5.89,0,0,0-1.49.23v-.65a14.94,14.94,0,0,1,1.35-3c.91-1.74,1.56-2.61,2-2.61a5.42,5.42,0,0,1,3.08.65,41.12,41.12,0,0,1,4.35,4.95,15.47,15.47,0,0,0,2.24-3.15c1-1.63,1.58-2.45,1.86-2.45a6.59,6.59,0,0,1,5.88,3.31c1,2.37,1.51,3.66,1.64,3.88h.46a24.05,24.05,0,0,0,2.48-3.92c1.21-2.18,2-3.27,2.33-3.27q1.92,0,4.71,2.29A7.33,7.33,0,0,1,259.81,139.1ZM243.28,145q0-1.22-1.72-4.46t-2.94-3.24a4.65,4.65,0,0,0-1.5.32l-1,.38v.65l4,11.25c.8-1.43,1.44-2.5,1.91-3.2S242.94,145.47,243.28,145Zm11.9-2a5.93,5.93,0,0,0-1.33-4,3.55,3.55,0,0,0-2.4-1.54,2.81,2.81,0,0,0-1.52.7,13.08,13.08,0,0,0-1.79,1.73l3.73,10.41a16.23,16.23,0,0,0,2.31-3.55A8.59,8.59,0,0,0,255.18,143.07Z"/><path class="cls-4" d="M285.8,157.35a3.49,3.49,0,0,1-1.44.23c-.25,0-1,0-2.13-.11s-2-.12-2.49-.12v-15a6.43,6.43,0,0,0-.85-3.83c-.56-.72-1.6-1.07-3.12-1.07a8.67,8.67,0,0,0-3.08.6c-1.06.41-1.59.87-1.59,1.4v18.31h-5.65V139.24a2.06,2.06,0,0,0-1.07-1.73,15.67,15.67,0,0,0-3.17-1.44v-.66l5.13-3.78a11.73,11.73,0,0,1,3.64,2.29c.5.72,1,1.43,1.54,2.15l6.91-4.68a14.57,14.57,0,0,1,5.76,2.57c1.08,1,1.61,2.63,1.61,5Z"/><path class="cls-4" d="M305.5,151.19c-.78,1.55-1.59,3.09-2.43,4.64s-1.52,2.31-2.05,2.31a17,17,0,0,1-3.95-.74,12,12,0,0,1-5.34-3.57q-2.66-2.84-2.66-8.34A12,12,0,0,1,290,140a22,22,0,0,1,3.57-4.3q2.64-2.64,3.41-3.38a2.11,2.11,0,0,1,1.28-.75q2.21,1.54,4.44,3.25a7.84,7.84,0,0,1,2.57,2.64l-10.55,10.32a6.37,6.37,0,0,0,2.8,3.15,10.51,10.51,0,0,0,4.15.67,11,11,0,0,0,3.36-.37Zm-11.08-5.71,5-4.89a4.46,4.46,0,0,0-1.56-1.73,18.45,18.45,0,0,0-1.84-1c-.65,0-1.28.56-1.89,1.66a7.1,7.1,0,0,0-.91,3.43A2.65,2.65,0,0,0,294.42,145.48Z"/><path class="cls-4" d="M331.82,154.6a28.39,28.39,0,0,0-3.09,2.33q-1.46,1.26-1.83,1.26-1.32,0-3.24-2c-1.15-1.4-1.76-2.14-1.83-2.24-.37.32-1.44,1.1-3.21,2.36a12.53,12.53,0,0,1-3.07,1.89c-1.27,0-3-1.13-5.3-3.41a12.29,12.29,0,0,1-3.4-9.1,11.83,11.83,0,0,1,2.13-6.84,22.19,22.19,0,0,1,4.62-5c1.66-1.29,2.68-1.93,3-1.93a10,10,0,0,1,2,.81,21.08,21.08,0,0,1,2.68,1.85h.51v-4.67a15.87,15.87,0,0,0-.46-4.43l-1.12-2.06c0-.19.66-.66,2-1.42s2.89-1.55,4.69-2.36h.47v30.57c.53.84,1.07,1.68,1.63,2.52a3.76,3.76,0,0,0,2.8.84Zm-10-6v-6a5,5,0,0,0-2-3.62,5.72,5.72,0,0,0-3.62-1.79,4.83,4.83,0,0,0-3.38,1.91,6.25,6.25,0,0,0-1.75,4.34q0,1.68,1.84,5c1.23,2.2,2.78,3.29,4.65,3.29a4.46,4.46,0,0,0,3.12-1A2.87,2.87,0,0,0,321.83,148.62Z"/><path class="cls-4" d="M372.24,135.69h-5.6v13.73a3.42,3.42,0,0,0,1.48,3.05,6.38,6.38,0,0,0,3.66,1v.85q-2.34,1.83-3.67,2.75a4.66,4.66,0,0,1-1.7.92c-.91,0-2.06-.61-3.48-1.84a5.43,5.43,0,0,1-2.12-4.21V136.3a3.29,3.29,0,0,0-1-.47,3.48,3.48,0,0,0-.91-.14H356.7v-2.42l8.17-7.19h1.54c0,.72,0,1.37.07,2s.11,1.18.16,1.77a10.55,10.55,0,0,1-.23,2.06h5.83Z"/><path class="cls-4" d="M396.18,146.24a8.78,8.78,0,0,1-2.54,6.3,20.18,20.18,0,0,1-5.58,4.2,17.36,17.36,0,0,1-3.45,1.54c-2.3,0-4.59-1.57-6.86-4.73a16.27,16.27,0,0,1-3.41-9.55,9.25,9.25,0,0,1,2.64-6.63,20.79,20.79,0,0,1,5.76-4.29,17.6,17.6,0,0,1,3.6-1.54q3.12,0,6.48,4.43A16.55,16.55,0,0,1,396.18,146.24Zm-3.36,1.36q0-2.9-2.94-6.24a9.13,9.13,0,0,0-7.09-3.33,5.65,5.65,0,0,0-3.52,1.23,3.68,3.68,0,0,0-1.61,3c0,1.78,1,3.78,3,6a9.06,9.06,0,0,0,6.79,3.34,7.36,7.36,0,0,0,3.9-.89A3.37,3.37,0,0,0,392.82,147.6Z"/><path class="cls-4" d="M437,135.69h-5.6v13.73a3.44,3.44,0,0,0,1.48,3.05,6.38,6.38,0,0,0,3.66,1v.85q-2.34,1.83-3.67,2.75a4.58,4.58,0,0,1-1.7.92c-.9,0-2.06-.61-3.48-1.84a5.47,5.47,0,0,1-2.12-4.21V136.3a3.29,3.29,0,0,0-1-.47,3.42,3.42,0,0,0-.91-.14h-2.24v-2.42l8.17-7.19h1.54c0,.72,0,1.37.08,2l.15,1.77a10.55,10.55,0,0,1-.23,2.06H437Z"/><path class="cls-4" d="M446.83,132.24v3.41h.65a17.67,17.67,0,0,0,2.75-2,9.53,9.53,0,0,1,2.66-1.82q3.27,0,6.58,3.59a12.47,12.47,0,0,1,3.32,8.77,15,15,0,0,1-1.24,5.7,16.58,16.58,0,0,1-3.59,5.34q-2.34,2.35-3.47,3.31t-1.41,1a12.3,12.3,0,0,1-1.4-1.36,33.88,33.88,0,0,0,5-6.78,11.78,11.78,0,0,0,1-4.88,9.92,9.92,0,0,0-1.81-5.74,5.91,5.91,0,0,0-5.18-2.61,6,6,0,0,0-2.76.47,1.88,1.88,0,0,0-.85,1.82v17.5a21.34,21.34,0,0,1-3.47.19q-.69,0-1.23,0a6,6,0,0,1-1.13-.16v-28.1a8.72,8.72,0,0,0-.61-3.5c-.47-.78-.93-1.57-1.4-2.38,0-.18,1-.82,3.1-1.91s3.36-1.79,3.85-2.1h1.36a30.34,30.34,0,0,0-.23,3.59c0,1-.08,2.54-.21,4.72S446.83,131.74,446.83,132.24Z"/><path class="cls-4" d="M481.18,151.19c-.78,1.55-1.59,3.09-2.43,4.64s-1.53,2.31-2.05,2.31a17,17,0,0,1-3.95-.74,12,12,0,0,1-5.34-3.57c-1.78-1.89-2.66-4.67-2.66-8.34a12,12,0,0,1,.93-5.53,22,22,0,0,1,3.57-4.3q2.64-2.64,3.41-3.38a2.11,2.11,0,0,1,1.28-.75c1.47,1,2.94,2.11,4.44,3.25a7.67,7.67,0,0,1,2.56,2.64L470.4,147.74a6.37,6.37,0,0,0,2.8,3.15,10.51,10.51,0,0,0,4.15.67,11.07,11.07,0,0,0,3.36-.37Zm-11.08-5.71,5-4.89a4.46,4.46,0,0,0-1.56-1.73,18.45,18.45,0,0,0-1.84-1c-.66,0-1.28.56-1.89,1.66a7,7,0,0,0-.91,3.43A2.65,2.65,0,0,0,470.1,145.48Z"/><path class="cls-4" d="M529.34,157.86h-6.25a15.22,15.22,0,0,0-2-7.72,6.23,6.23,0,0,0-5.63-3.52,1.2,1.2,0,0,0-1.12.46,3.36,3.36,0,0,0-.28,1.59v9.19h-5.5v-28.7a5,5,0,0,0-.8-2.24c-.53-.93-1.09-1.82-1.68-2.66,0-.16,1.06-.83,3.18-2a46,46,0,0,1,4.9-2.5c.06.13.21.13.46,0-.14.65-.28,1.33-.39,2a11.27,11.27,0,0,0-.17,1.57v13q1.23.19,3.72-2.24c1.66-1.62,2.67-2.43,3-2.43q2.49,0,5.1,2.94a10.12,10.12,0,0,1,2.6,6.91c0,.78-.72,1.44-2.17,2a13.82,13.82,0,0,0-2.59,1.14,23.08,23.08,0,0,1,4.25,6.91c.72,2.33,1.17,3.78,1.35,4.34Zm-7.18-17.5a2.89,2.89,0,0,0-1-1.87,3.19,3.19,0,0,0-2.29-1,5.06,5.06,0,0,0-3.06,1.05,3.7,3.7,0,0,0-1.42,3.2V143a2.52,2.52,0,0,0,.12.87c.07.2.27.3.58.3q3.38,0,4.82-1.26A12.35,12.35,0,0,0,522.16,140.36Z"/><path class="cls-4" d="M545.82,155.11a30,30,0,0,1-2.82,1.75,12.55,12.55,0,0,1-2.83,1.42q-1.39-1.11-2.82-2.4c-1-.86-1.43-1.56-1.43-2.12v-14a3.06,3.06,0,0,0-1.82-2.71c-1.21-.68-1.82-1.15-1.82-1.4q1.32-1.26,2.7-2.52c.92-.84,1.52-1.26,1.81-1.26a27.87,27.87,0,0,1,3.33,2.64,4.59,4.59,0,0,1,1.64,3.43v8.36a19.67,19.67,0,0,0,.62,5.92c.42,1.15,1.56,1.81,3.44,2Zm-3.32-33.84v1.82a1.54,1.54,0,0,1-1.11,1.54q-2.92.84-6.31,1.87a2.69,2.69,0,0,1-.09-.56v-1a3,3,0,0,1,1.88-2.61l4.8-2.62h.7a4.17,4.17,0,0,1,.13.94v.65Z"/><path class="cls-4" d="M571.26,157.35a3.57,3.57,0,0,1-1.45.23c-.25,0-1,0-2.12-.11s-2-.12-2.5-.12v-15a6.44,6.44,0,0,0-.84-3.83c-.56-.72-1.6-1.07-3.13-1.07a8.72,8.72,0,0,0-3.08.6c-1.06.41-1.59.87-1.59,1.4v18.31h-5.64V139.24a2,2,0,0,0-1.08-1.73,15.41,15.41,0,0,0-3.17-1.44v-.66l5.13-3.78a11.61,11.61,0,0,1,3.64,2.29c.5.72,1,1.43,1.54,2.15l6.91-4.68a14.7,14.7,0,0,1,5.77,2.57c1.07,1,1.61,2.63,1.61,5Z"/><path class="cls-4" d="M598.47,137.61c0,.34-.35.82-1,1.44a2.71,2.71,0,0,0-1,2v7.23a10.79,10.79,0,0,0-.14,1.42c0,.64,0,1,0,1a21.17,21.17,0,0,0,.91,5.55,20.89,20.89,0,0,1,.91,4.48q0,2.89-3.27,6a12,12,0,0,1-8.54,3.08,13,13,0,0,1-7.17-2.09,11.33,11.33,0,0,1-4.59-5.81l5.46-2.23h.65a11,11,0,0,0,2,4.8,4.67,4.67,0,0,0,3.9,1.92,6.09,6.09,0,0,0,4.06-1.33,4.47,4.47,0,0,0,1.59-3.62,21.45,21.45,0,0,0-.79-2.94,16.81,16.81,0,0,1-.8-5h-.65q-.71.66-3.52,2.82a21.24,21.24,0,0,1-3.06,2.17q-2.71,0-5.77-3.53a11.42,11.42,0,0,1-3-7.6,11.28,11.28,0,0,1,1.12-5.19,14.25,14.25,0,0,1,2.45-3.55,68,68,0,0,1,5.2-4.46c2.58-2.08,4-3.11,4.39-3.11l5.65,3.17,3.54,1.87C597.92,136.75,598.47,137.27,598.47,137.61Zm-8.12,11.76v-9a10.5,10.5,0,0,0-2.7-2c-1-.52-1.95-1-2.79-1.4q-1.7,0-3.12,3a11.91,11.91,0,0,0-1.43,4.48,7.46,7.46,0,0,0,2.06,5.28q2.07,2.19,3.85,2.19a4.63,4.63,0,0,0,3.09-.89A2.37,2.37,0,0,0,590.35,149.37Z"/><path class="cls-4" d="M70.59,202.25a8.82,8.82,0,0,1-2.54,6.3,20.47,20.47,0,0,1-5.58,4.2A17.36,17.36,0,0,1,59,214.29q-3.47,0-6.87-4.73a16.26,16.26,0,0,1-3.4-9.55,9.28,9.28,0,0,1,2.63-6.63,20.69,20.69,0,0,1,5.77-4.29,17.39,17.39,0,0,1,3.59-1.54q3.13,0,6.49,4.43A16.55,16.55,0,0,1,70.59,202.25Zm-3.36,1.35q0-2.88-2.94-6.23A9.14,9.14,0,0,0,57.2,194a5.7,5.7,0,0,0-3.53,1.23,3.71,3.71,0,0,0-1.61,3q0,2.67,3.06,6a9.06,9.06,0,0,0,6.79,3.34,7.36,7.36,0,0,0,3.9-.89A3.4,3.4,0,0,0,67.23,203.6Z"/><path class="cls-4" d="M82.4,213.69l-1.91.09-1.54.05c-.63,0-1.13,0-1.52-.05a1.29,1.29,0,0,1-.77-.23V192.12H72.6V188.3h2.24c1.21,0,1.82-.22,1.82-.65a13.73,13.73,0,0,0-.56-4.2c-.44-1-.86-2.09-1.26-3.14,0-.34,1.44-1.12,4.34-2.35s4.67-1.85,5.32-1.85,1.65.67,2.61,2a6.16,6.16,0,0,1,1.45,3.17c0,.19-.21.45-.63.77s-1.56,1.12-3.43,2.36c-.41-.68-.78-1.34-1.12-2s-.78-1.32-1.31-2.1h-.51v.93l.84,6.45q.09.28.57.42a3.79,3.79,0,0,0,1,.14h3.62v3.46a4.31,4.31,0,0,1-1.52.36,2.2,2.2,0,0,1-.81-.16,2,2,0,0,0-.62-.16,4,4,0,0,0-2.28.65v21.24Z"/><path class="cls-4" d="M129.73,191.7h-5.6v13.73a3.42,3.42,0,0,0,1.48,3,6.33,6.33,0,0,0,3.65,1v.85q-2.34,1.83-3.66,2.75a4.67,4.67,0,0,1-1.71.92c-.9,0-2.06-.61-3.47-1.84a5.45,5.45,0,0,1-2.13-4.21V192.31a3.29,3.29,0,0,0-1-.47,3.42,3.42,0,0,0-.91-.14h-2.24v-2.42l8.17-7.19h1.54c0,.71,0,1.37.08,2s.1,1.18.16,1.77a10,10,0,0,1-.24,2.06h5.84Z"/><path class="cls-4" d="M139.53,188.25v3.41h.65a17.67,17.67,0,0,0,2.75-2,9.5,9.5,0,0,1,2.67-1.82c2.17,0,4.37,1.2,6.58,3.59a12.47,12.47,0,0,1,3.31,8.77,14.83,14.83,0,0,1-1.24,5.7,16.58,16.58,0,0,1-3.59,5.34q-2.34,2.36-3.47,3.31c-.75.64-1.21,1-1.4,1a12.79,12.79,0,0,1-1.41-1.36,33.17,33.17,0,0,0,5-6.79,11.73,11.73,0,0,0,1-4.87,9.85,9.85,0,0,0-1.81-5.74,5.9,5.9,0,0,0-5.17-2.61,6,6,0,0,0-2.77.47,1.9,1.9,0,0,0-.85,1.82v17.5a21.25,21.25,0,0,1-3.47.19q-.69,0-1.23,0a6,6,0,0,1-1.13-.16v-28.1a8.52,8.52,0,0,0-.61-3.5c-.46-.78-.93-1.57-1.4-2.38,0-.19,1-.82,3.11-1.91s3.35-1.79,3.85-2.1h1.35a32.64,32.64,0,0,0-.23,3.59q0,1.46-.21,4.71T139.53,188.25Z"/><path class="cls-4" d="M173.88,207.2c-.78,1.55-1.59,3.09-2.43,4.64s-1.52,2.31-2,2.31a16.83,16.83,0,0,1-3.94-.74,12,12,0,0,1-5.35-3.58q-2.66-2.82-2.66-8.33a12,12,0,0,1,.93-5.53,22.79,22.79,0,0,1,3.57-4.3q2.64-2.64,3.41-3.39a2.15,2.15,0,0,1,1.29-.74q2.19,1.54,4.43,3.25a7.84,7.84,0,0,1,2.57,2.64L163.1,203.75a6.46,6.46,0,0,0,2.8,3.15,10.54,10.54,0,0,0,4.15.67,11,11,0,0,0,3.36-.37Zm-11.08-5.71,5-4.89a4.56,4.56,0,0,0-1.57-1.73,17.4,17.4,0,0,0-1.84-1c-.65,0-1.28.55-1.89,1.66a7.1,7.1,0,0,0-.91,3.43A2.65,2.65,0,0,0,162.8,201.49Z"/><path class="cls-4" d="M222.56,199.24a16.6,16.6,0,0,1-3.41,10.26q-3.41,4.51-8,4.51a4.82,4.82,0,0,1-2.24-1c-1-.67-1.82-1.18-2.47-1.53v13.16h-5.32V209.49c0-2.49,0-4.38,0-5.68s-.09-2.45-.19-3.47a19.19,19.19,0,0,0-.74-6.12c-.56-.84-1.12-1.69-1.68-2.56,0-.41.75-.94,2.26-1.59a42.87,42.87,0,0,0,5.06-2.66h.66v4.48a6.76,6.76,0,0,0,3.64-2.38c1.27-1.4,2.29-2.1,3-2.1q3,0,6.21,3.18A11.59,11.59,0,0,1,222.56,199.24Zm-4.25,3.6a8.44,8.44,0,0,0-2.68-6.39q-2.69-2.55-5.16-2.55a6.48,6.48,0,0,0-1.4.21,14.05,14.05,0,0,0-2.33.86v7.21q0,3.62,2.1,5a7.09,7.09,0,0,0,3.87,1.41c2,0,3.46-.63,4.32-1.9A6.77,6.77,0,0,0,218.31,202.84Z"/><path class="cls-4" d="M238.9,211.12a29.35,29.35,0,0,1-2.83,1.75,12.38,12.38,0,0,1-2.82,1.42c-.93-.74-1.88-1.54-2.83-2.4s-1.42-1.56-1.42-2.12v-14a3.08,3.08,0,0,0-1.82-2.71c-1.21-.68-1.82-1.15-1.82-1.4q1.32-1.26,2.7-2.52t1.8-1.26a26.36,26.36,0,0,1,3.33,2.64,4.56,4.56,0,0,1,1.65,3.43v8.36a19.38,19.38,0,0,0,.62,5.92c.41,1.15,1.56,1.81,3.44,2Zm-3.32-33.84v1.82a1.54,1.54,0,0,1-1.11,1.54q-2.92.84-6.31,1.87a2.69,2.69,0,0,1-.09-.56v-1a3,3,0,0,1,1.88-2.61l4.8-2.62h.69a3.74,3.74,0,0,1,.14.94v.65Z"/><path class="cls-4" d="M264.38,193.62c0,.34-.34.82-1,1.44a2.7,2.7,0,0,0-1,2v7.24a9.14,9.14,0,0,0-.14,1.42c0,.64-.05,1-.05,1a21.17,21.17,0,0,0,.91,5.55,20.26,20.26,0,0,1,.91,4.48q0,2.9-3.27,6a11.91,11.91,0,0,1-8.54,3.09,12.9,12.9,0,0,1-7.16-2.1,11.28,11.28,0,0,1-4.6-5.8l5.46-2.23h.65a11,11,0,0,0,2,4.79,4.65,4.65,0,0,0,3.89,1.93,6.17,6.17,0,0,0,4.07-1.33,4.51,4.51,0,0,0,1.58-3.62,19.89,19.89,0,0,0-.79-2.94,16.84,16.84,0,0,1-.79-5h-.66c-.46.44-1.64,1.38-3.52,2.82a20.61,20.61,0,0,1-3.06,2.17c-1.8,0-3.73-1.18-5.76-3.53a11.4,11.4,0,0,1-3.06-7.6,11.28,11.28,0,0,1,1.12-5.19,14.33,14.33,0,0,1,2.45-3.55q1.33-1.35,5.2-4.47t4.39-3.1l5.65,3.17,3.55,1.87C263.83,192.76,264.38,193.27,264.38,193.62Zm-8.12,11.76v-9a10.33,10.33,0,0,0-2.7-2c-1-.53-1.94-1-2.79-1.4q-1.68,0-3.12,3a11.91,11.91,0,0,0-1.43,4.48,7.44,7.44,0,0,0,2.07,5.28q2.06,2.19,3.84,2.19a4.66,4.66,0,0,0,3.1-.89A2.35,2.35,0,0,0,256.26,205.38Z"/><path class="cls-4" d="M276.47,210.87c0,.22-.68.8-2,1.73A8.49,8.49,0,0,1,272,214c-.25,0-1.09-.68-2.52-2.05s-2.15-2.26-2.15-2.67V185.46a7.57,7.57,0,0,0-.54-3,9.51,9.51,0,0,0-1.7-2.57v-.7l7.14-3.83h.93v29c0,2.18.56,3.72,1.66,4.6S276.47,210.47,276.47,210.87Z"/><path class="cls-4" d="M295,207.2c-.77,1.55-1.58,3.09-2.42,4.64s-1.53,2.31-2.06,2.31a16.91,16.91,0,0,1-3.94-.74,12,12,0,0,1-5.35-3.58q-2.65-2.82-2.66-8.33c0-2.58.31-4.43.94-5.53a22,22,0,0,1,3.57-4.3c1.76-1.76,2.89-2.89,3.41-3.39a2.13,2.13,0,0,1,1.28-.74q2.19,1.54,4.43,3.25a7.74,7.74,0,0,1,2.57,2.64l-10.55,10.32a6.51,6.51,0,0,0,2.8,3.15,10.56,10.56,0,0,0,4.16.67,11.07,11.07,0,0,0,3.36-.37ZM284,201.49l5-4.89a4.54,4.54,0,0,0-1.56-1.73,18.45,18.45,0,0,0-1.84-1c-.66,0-1.29.55-1.89,1.66a7,7,0,0,0-.91,3.43A2.65,2.65,0,0,0,284,201.49Z"/><path class="cls-4" d="M312.41,191.7h-5.6v13.73a3.42,3.42,0,0,0,1.48,3,6.33,6.33,0,0,0,3.65,1v.85q-2.34,1.83-3.66,2.75a4.67,4.67,0,0,1-1.71.92c-.9,0-2.06-.61-3.48-1.84A5.47,5.47,0,0,1,301,208V192.31a3.29,3.29,0,0,0-1-.47,3.42,3.42,0,0,0-.91-.14h-2.24v-2.42l8.17-7.19h1.54c0,.71,0,1.37.08,2s.1,1.18.16,1.77a10,10,0,0,1-.24,2.06h5.84Z"/><path class="cls-4" d="M334.76,204.26a9.46,9.46,0,0,1-2.89,7,9.77,9.77,0,0,1-7.19,2.9,13,13,0,0,1-6.93-2.48c-2.54-1.65-3.8-3.22-3.8-4.71,0-.28.67-.77,2-1.47a32.1,32.1,0,0,1,3.52-1.61v2.24a4.87,4.87,0,0,0,1.47,3.66,5.48,5.48,0,0,0,7.35,0,4.6,4.6,0,0,0,1.5-3.5,5.81,5.81,0,0,0-1.33-3.62,3.92,3.92,0,0,0-3.16-1.71,12.47,12.47,0,0,0-4.48,1.22,15.43,15.43,0,0,1-3.36,1.21,21.83,21.83,0,0,1-1.93-3,9.11,9.11,0,0,1-1-4.41,7.75,7.75,0,0,1,3.06-6.21,10.17,10.17,0,0,1,6.6-2.52,11.86,11.86,0,0,1,5.6,1.73,8.17,8.17,0,0,1,4,4.11l-5.65,3.12a24.83,24.83,0,0,0-1.45-4.48c-.5-1-1.65-1.58-3.45-1.58a3.55,3.55,0,0,0-2.71,1.21,4.05,4.05,0,0,0-1.12,2.85,4.72,4.72,0,0,0,1.26,3.26,3.69,3.69,0,0,0,2.8,1.4,12.56,12.56,0,0,0,4.86-1.44c2.05-1,3.12-1.45,3.22-1.45a18.58,18.58,0,0,1,2.07,3A10.88,10.88,0,0,1,334.76,204.26Z"/><path class="cls-4" d="M346.39,210.08a5.4,5.4,0,0,1-1.17,1.77,15.78,15.78,0,0,1-2.19,2.29c-1-.84-1.93-1.71-2.9-2.61s-1.45-1.53-1.45-1.87c.69-.9,1.42-1.8,2.2-2.71s1.4-1.35,1.87-1.35,1.38.58,2.28,1.75A5.28,5.28,0,0,1,346.39,210.08Zm-2-17.66V198l-.55,2.8-2,1.12-1.69,2.24-1.4,1.4.61-9.61.51-6.06-.28-4.75-.56-6.44,6.73-2.79-.56,8.39a33.43,33.43,0,0,1-.28,4.12Q344.71,190.61,344.42,192.42Z"/><path class="cls-4" d="M405.85,203.75c-.41.9-.81,1.78-1.22,2.66a16.59,16.59,0,0,1-5.39,5.46q-3.53,2.28-9.45,2.28A18.64,18.64,0,0,1,371.5,196a19,19,0,0,1,5.67-13.79,18.26,18.26,0,0,1,13.46-5.77,17.59,17.59,0,0,1,7.84,1.71,18.8,18.8,0,0,1,5.6,3.94c-.71.65-1.72,1.52-3,2.59a33.52,33.52,0,0,1-2.87,2.22,13.47,13.47,0,0,0-3.54-5.11,7.83,7.83,0,0,0-5.28-1.89,11.51,11.51,0,0,0-3.5,1,12.38,12.38,0,0,0-4.95,4.32c-1.61,2.2-2.42,5.33-2.42,9.41A16.31,16.31,0,0,0,382,205q3.48,4.38,10,4.38t9.29-2.82Q404.17,203.75,405.85,203.75Z"/><path class="cls-4" d="M430,202.25a8.79,8.79,0,0,1-2.55,6.3,20.28,20.28,0,0,1-5.57,4.2,17.57,17.57,0,0,1-3.46,1.54q-3.45,0-6.86-4.73a16.27,16.27,0,0,1-3.41-9.55,9.25,9.25,0,0,1,2.64-6.63,20.69,20.69,0,0,1,5.77-4.29,17.39,17.39,0,0,1,3.59-1.54c2.08,0,4.25,1.48,6.49,4.43A16.55,16.55,0,0,1,430,202.25Zm-3.36,1.35q0-2.88-2.94-6.23a9.15,9.15,0,0,0-7.1-3.33,5.67,5.67,0,0,0-3.52,1.23,3.71,3.71,0,0,0-1.61,3q0,2.67,3.06,6a9,9,0,0,0,6.79,3.34,7.32,7.32,0,0,0,3.89-.89A3.39,3.39,0,0,0,426.62,203.6Z"/><path class="cls-4" d="M456.07,213.36a3.54,3.54,0,0,1-1.45.23c-.25,0-1,0-2.12-.11s-2-.12-2.5-.12v-15a6.44,6.44,0,0,0-.84-3.83c-.56-.72-1.6-1.07-3.13-1.07a8.72,8.72,0,0,0-3.08.6c-1.06.41-1.58.87-1.58,1.4v18.31h-5.65V195.25a2,2,0,0,0-1.08-1.73,15.41,15.41,0,0,0-3.17-1.44v-.66l5.13-3.78a11.67,11.67,0,0,1,3.65,2.29c.49.72,1,1.43,1.54,2.15l6.9-4.68a14.55,14.55,0,0,1,5.77,2.57c1.07,1,1.61,2.63,1.61,5Z"/><path class="cls-4" d="M483.28,193.62c0,.34-.34.82-1,1.44a2.7,2.7,0,0,0-1,2v7.24a10.24,10.24,0,0,0-.15,1.42c0,.64,0,1,0,1a21.17,21.17,0,0,0,.91,5.55,20.26,20.26,0,0,1,.91,4.48q0,2.9-3.27,6a11.91,11.91,0,0,1-8.54,3.09,12.9,12.9,0,0,1-7.16-2.1,11.28,11.28,0,0,1-4.6-5.8l5.46-2.23h.65a10.9,10.9,0,0,0,2,4.79,4.65,4.65,0,0,0,3.89,1.93,6.12,6.12,0,0,0,4.06-1.33,4.48,4.48,0,0,0,1.59-3.62,19.89,19.89,0,0,0-.79-2.94,16.86,16.86,0,0,1-.8-5h-.65q-.7.66-3.52,2.82a21.24,21.24,0,0,1-3.06,2.17q-2.72,0-5.76-3.53a11.4,11.4,0,0,1-3.06-7.6,11.28,11.28,0,0,1,1.12-5.19,14.33,14.33,0,0,1,2.45-3.55q1.33-1.35,5.2-4.47t4.39-3.1l5.65,3.17,3.55,1.87C482.73,192.76,483.28,193.27,483.28,193.62Zm-8.12,11.76v-9a10.33,10.33,0,0,0-2.7-2c-1-.53-1.95-1-2.79-1.4-1.13,0-2.16,1-3.12,3a11.91,11.91,0,0,0-1.43,4.48,7.44,7.44,0,0,0,2.07,5.28q2.06,2.19,3.84,2.19a4.66,4.66,0,0,0,3.1-.89A2.39,2.39,0,0,0,475.16,205.38Z"/><path class="cls-4" d="M502.69,194.07c0,.62-.69,1.62-2.07,3a10.9,10.9,0,0,1-3.81,2.66c0-.31-.08-1-.12-2s-.06-1.86-.06-2.61v-1.25h-.94a1.74,1.74,0,0,0-1.21.46,1.42,1.42,0,0,0-.51,1.07V214h-5.56V199.62a11.75,11.75,0,0,0-.81-4.94,5,5,0,0,0-3.53-2.38v-.46a27,27,0,0,1,2.59-2.1,10.75,10.75,0,0,1,2.55-1.68,3.48,3.48,0,0,1,2.66,1.66c.84,1.1,1.54,2,2.1,2.78l3.68-3a8.85,8.85,0,0,1,2.1-1.47c.41,0,1,.58,1.78,1.75A7.53,7.53,0,0,1,502.69,194.07Z"/><path class="cls-4" d="M526.54,207c0,.44.45,1.08,1.33,1.94a8.56,8.56,0,0,1,1.34,1.42,15.59,15.59,0,0,1-2.22,1.94,13.89,13.89,0,0,1-2.45,1.8,18,18,0,0,1-2.52-2,3.9,3.9,0,0,1-1.26-3l-.94-.37c-.46.43-1.64,1.37-3.52,2.8a20,20,0,0,1-3.06,2.14q-2.7,0-5.76-3.52a11.38,11.38,0,0,1-3.06-7.59,11.24,11.24,0,0,1,1.12-5.18A14.53,14.53,0,0,1,508,193.9a66.44,66.44,0,0,1,5.21-4.46q3.87-3.1,4.38-3.1l5.65,3.17,3.55,1.87c1.09.68,1.63,1.19,1.63,1.54s-.34.82-1,1.44a2.68,2.68,0,0,0-1,2v7.24c-.09.59-.18,1.2-.26,1.82a11.31,11.31,0,0,0-.11,1.35q0,.66.18.66c.06,0,.13,0,.21-.14A1.4,1.4,0,0,0,526.54,207Zm-6.25-2.33v-9a10.33,10.33,0,0,0-2.7-2c-1-.52-1.94-1-2.79-1.4q-1.68,0-3.11,3a11.72,11.72,0,0,0-1.43,4.48,7.44,7.44,0,0,0,2.06,5.28c1.37,1.46,2.66,2.19,3.85,2.19a4.65,4.65,0,0,0,3.09-.89A2.35,2.35,0,0,0,520.29,204.68Z"/><path class="cls-4" d="M546.66,191.7h-5.6v13.73a3.42,3.42,0,0,0,1.48,3,6.38,6.38,0,0,0,3.66,1v.85q-2.34,1.83-3.67,2.75a4.66,4.66,0,0,1-1.7.92c-.91,0-2.06-.61-3.48-1.84a5.43,5.43,0,0,1-2.12-4.21V192.31a3.29,3.29,0,0,0-1-.47,3.48,3.48,0,0,0-.91-.14h-2.24v-2.42l8.17-7.19h1.54c0,.71,0,1.37.07,2s.11,1.18.16,1.77a10.63,10.63,0,0,1-.23,2.06h5.83Z"/><path class="cls-4" d="M569,204.26a9.47,9.47,0,0,1-2.9,7,9.75,9.75,0,0,1-7.18,2.9,13.05,13.05,0,0,1-6.94-2.48q-3.79-2.48-3.8-4.71c0-.28.68-.77,2-1.47a32.15,32.15,0,0,1,3.53-1.61v2.24a4.87,4.87,0,0,0,1.47,3.66,5.48,5.48,0,0,0,7.35,0,4.63,4.63,0,0,0,1.49-3.5,5.75,5.75,0,0,0-1.33-3.62,3.92,3.92,0,0,0-3.15-1.71,12.42,12.42,0,0,0-4.48,1.22,15.82,15.82,0,0,1-3.36,1.21,21.82,21.82,0,0,1-1.94-3,9.11,9.11,0,0,1-1-4.41,7.75,7.75,0,0,1,3.06-6.21,10.19,10.19,0,0,1,6.61-2.52,11.89,11.89,0,0,1,5.6,1.73,8.19,8.19,0,0,1,4,4.11l-5.65,3.12A24.94,24.94,0,0,0,561,191.7c-.5-1-1.65-1.58-3.46-1.58a3.52,3.52,0,0,0-2.7,1.21,4.05,4.05,0,0,0-1.12,2.85,4.72,4.72,0,0,0,1.26,3.26,3.69,3.69,0,0,0,2.8,1.4,12.48,12.48,0,0,0,4.85-1.44c2.05-1,3.13-1.45,3.22-1.45a18,18,0,0,1,2.08,3A10.88,10.88,0,0,1,569,204.26Z"/><path class="cls-4" d="M580.64,210.08a5.4,5.4,0,0,1-1.17,1.77,15.78,15.78,0,0,1-2.19,2.29c-1-.84-1.93-1.71-2.9-2.61s-1.44-1.53-1.44-1.87c.68-.9,1.41-1.8,2.19-2.71s1.4-1.35,1.87-1.35,1.38.58,2.29,1.75A5.24,5.24,0,0,1,580.64,210.08Zm-2-17.66V198l-.56,2.8-2,1.12-1.68,2.24-1.4,1.4.6-9.61.52-6.06-.28-4.75-.56-6.44,6.72-2.79-.56,8.39a31.58,31.58,0,0,1-.28,4.12C579.05,189.88,578.87,191.21,578.68,192.42Z"/></g></svg>
