<svg xmlns="http://www.w3.org/2000/svg" width="80" height="70" viewBox="0 0 80 70"><defs><style>.cls-1{isolation:isolate;}.cls-2{opacity:0.6;mix-blend-mode:multiply;}.cls-3{fill:#f91919;}</style></defs><title>liv</title><g class="cls-1"><g id="Layer_2" data-name="Layer 2"><g class="cls-2"><path d="M40.92,65.3s25.54-16.89,32.41-29l1.53-2.72a19.45,19.45,0,0,0-34-18.75A19.45,19.45,0,0,0,5.1,25.35a19.19,19.19,0,0,0,1.83,8.19l1.52,2.72c6.88,12.15,32.42,29,32.42,29Z"/></g><path class="cls-3" d="M39.13,64.11s25.54-16.89,32.42-29l1.52-2.72a19.44,19.44,0,0,0-34-18.76,19.45,19.45,0,0,0-34,18.76l1.53,2.72c6.87,12.14,32.41,29,32.41,29Z"/></g></g></svg>
