<svg xmlns="http://www.w3.org/2000/svg" width="170" height="90" viewBox="0 0 170 90"><defs><style>.cls-1{isolation:isolate;}.cls-2{opacity:0.71;}.cls-3{fill:#847070;}.cls-4{opacity:0.6;mix-blend-mode:multiply;}.cls-5{fill:#f91919;}</style></defs><title>liv</title><g class="cls-1"><g id="Layer_2" data-name="Layer 2"><rect class="cls-2" x="3.18" y="1.73" width="165.84" height="87.89" rx="31.83"/><rect class="cls-3" x="0.98" y="0.38" width="165.45" height="86.11" rx="31.83"/><g class="cls-4"><path d="M126.91,74.18s25.54-16.9,32.42-29l1.52-2.72a19.45,19.45,0,0,0-34-18.75,19.44,19.44,0,0,0-34,18.75l1.52,2.72c6.88,12.14,32.42,29,32.42,29Z"/></g><path class="cls-5" d="M125.13,73s25.54-16.89,32.41-29l1.53-2.73a19.45,19.45,0,0,0-34-18.75,19.44,19.44,0,0,0-34,18.75L92.66,44c6.88,12.14,32.42,29,32.42,29Z"/><g class="cls-4"><path d="M46.74,74.18s25.54-16.9,32.41-29l1.53-2.72a19.45,19.45,0,0,0-34-18.75,19.44,19.44,0,0,0-34,18.75l1.52,2.72c6.88,12.14,32.42,29,32.42,29Z"/></g><path class="cls-5" d="M45,73S70.49,56.1,77.37,44l1.52-2.73A19.19,19.19,0,0,0,80.72,33,19.45,19.45,0,0,0,44.93,22.48,19.45,19.45,0,0,0,11,41.23L12.49,44C19.36,56.1,44.91,73,44.91,73Z"/></g></g></svg>
