<svg xmlns="http://www.w3.org/2000/svg" width="70" height="60" viewBox="0 0 70 60"><defs><style>.cls-1{fill:#f40b0b;}.cls-2{fill:#a51313;}.cls-3{fill:#f9f9f9;}.cls-4{opacity:0.65;}.cls-5{fill:#b70000;}</style></defs><title>ondkarakter</title><g id="Layer_2" data-name="Layer 2"><path class="cls-1" d="M64.16,18.38,61.15,31a3.32,3.32,0,0,1-5.52,1.64l-9.44-8.92a3.32,3.32,0,0,1,1.34-5.6L60,14.42A3.33,3.33,0,0,1,64.16,18.38Z"/><path class="cls-2" d="M64.39,16.87,46.18,28.61c-.47,2,3,8.84,1.56,7.44L36.6,25.52a2.65,2.65,0,0,1,1.06-4.47l22.89-6.79C62.5,13.67,64.86,14.88,64.39,16.87Z"/><path class="cls-1" d="M11.13,14.57,20.67,17a4.23,4.23,0,0,1,2,7.05l-6.84,7.08a4.24,4.24,0,0,1-7.12-1.78L6,19.85A4.24,4.24,0,0,1,11.13,14.57Z"/><path class="cls-2" d="M9.68,14.21l12.44,3.11a3.37,3.37,0,0,1,1.61,5.61l-1.22,1.16c-1.71,1.77-5.42,5-6.41,3.16a2.28,2.28,0,0,0-.57-.7L6.41,19.06a2.31,2.31,0,0,1-.86-2.22A3.38,3.38,0,0,1,9.68,14.21Z"/><ellipse class="cls-1" cx="34.65" cy="37.06" rx="20.02" ry="26.53" transform="translate(-3.56 70.44) rotate(-88.07)"/><ellipse class="cls-3" cx="53.46" cy="35.99" rx="5.7" ry="6.79" transform="translate(-8.27 17.47) rotate(-17.25)"/><g class="cls-4"><ellipse class="cls-2" cx="36.91" cy="41.31" rx="9.33" ry="6.75" transform="translate(-0.18 0.16) rotate(-0.25)"/></g><ellipse cx="33.23" cy="40.93" rx="1.31" ry="2.37" transform="matrix(1, 0, 0, 1, -0.18, 0.15)"/><ellipse cx="39.76" cy="40.9" rx="1.36" ry="2.37" transform="translate(-0.18 0.18) rotate(-0.25)"/><path d="M26.88,33.05l-.21,0,0-.34.21,0C39.27,34.06,50,29,50.86,21.44l.35,0c-.44,3.81-3.24,7.1-7.9,9.28A31.33,31.33,0,0,1,26.88,33.05Z"/><path d="M12.33,33.73c-1.15-.13-2.46-.3-3.82-.5l.05-.35c4.55.68,7.37.84,7.65.69a.13.13,0,0,0-.05.09l.34.05c0,.22-.31.26-.8.26s-1,0-1.7-.08C13.5,33.85,12.94,33.8,12.33,33.73Z"/><path d="M5.79,20.3a1.49,1.49,0,0,1-1.18-1.17,1.36,1.36,0,0,1,.82-1.74l0,.08a1.3,1.3,0,0,0-.76,1.64,1.31,1.31,0,0,0,1.46,1.08l0,.08A1.25,1.25,0,0,1,5.79,20.3Z"/><path d="M64,19.68l-.09,0,0-.08a1.3,1.3,0,0,0,1.41-1.13,1.56,1.56,0,0,0-.12-1.05,1,1,0,0,0-.7-.57l0-.08a1.13,1.13,0,0,1,.76.61,1.68,1.68,0,0,1,.13,1.11A1.42,1.42,0,0,1,64,19.68Z"/><rect x="14.75" y="37.64" width="0.09" height="6.97" transform="translate(-24.36 21.7) rotate(-43.82)"/><rect x="16.68" y="44.03" width="0.88" height="0.09" transform="translate(-29.55 51.66) rotate(-78.01)"/><rect x="17.89" y="43.8" width="0.09" height="1.86" transform="translate(-29.86 50.97) rotate(-75.59)"/><rect x="19.05" y="44.94" width="0.09" height="3.27" transform="translate(-7.24 3.67) rotate(-9.25)"/><rect x="33.35" y="25.18" width="4.04" height="0.09" transform="translate(-7.69 30.99) rotate(-43.12)"/><rect x="33.15" y="25.77" width="1.58" height="0.09" transform="translate(6.33 58.32) rotate(-86.9)"/><rect x="31.85" y="25.67" width="2.36" height="0.09" transform="matrix(0.81, -0.58, 0.58, 0.81, -8.8, 24.12)"/><rect x="30.9" y="25.02" width="2.72" height="0.09" transform="translate(2.89 53.46) rotate(-81.87)"/><rect x="28.35" y="24.83" width="4.44" height="0.09" transform="matrix(0.85, -0.52, 0.52, 0.85, -8.49, 19.63)"/><rect x="35.22" y="11.31" width="18.94" height="0.35" transform="translate(9.79 41.66) rotate(-55.26)"/><rect x="48.92" y="5.08" width="2.53" height="0.35" transform="translate(-0.25 6.82) rotate(-7.75)"/><rect x="48.62" y="2.95" width="0.35" height="2.53" transform="translate(-0.15 5.94) rotate(-6.96)"/><rect x="49.35" y="4.47" width="1.81" height="0.35" transform="matrix(0.99, -0.13, 0.13, 0.99, -0.17, 6.82)"/><rect x="49.1" y="2.93" width="0.35" height="1.81" transform="translate(-0.1 6) rotate(-6.96)"/><ellipse class="cls-5" cx="39.33" cy="19.33" rx="0.77" ry="0.96" transform="translate(15.81 56.31) rotate(-83.72)"/><path d="M49.44,30h-.08a3.6,3.6,0,0,1,3.85-3.32v.09A3.52,3.52,0,0,0,49.44,30Z"/><path d="M49.52,30.09l-.26,0V30a3.69,3.69,0,0,1,3.94-3.4h.09l0,.26h-.08A3.43,3.43,0,0,0,49.53,30Z"/><path d="M44.55,31h-.09c.14-.9,2.32-1.3,5-.9v.08C46.86,29.74,44.67,30.11,44.55,31Z"/><path d="M44.62,31.05l-.26,0v-.09c.08-.47.65-.83,1.61-1a11.18,11.18,0,0,1,3.46,0h.08l0,.26H49.4c-2.47-.37-4.65,0-4.77.75Z"/><path d="M21.8,30.41l-.08,0a3.61,3.61,0,0,1,4.88-1.45l-.05.07A3.52,3.52,0,0,0,21.8,30.41Z"/><path d="M21.83,30.53l-.23-.13,0-.08a4,4,0,0,1,2.26-1.79,3.41,3.41,0,0,1,2.73.31l.08.05-.13.22-.08,0A3.18,3.18,0,0,0,24,28.78a3.71,3.71,0,0,0-2.1,1.68Z"/><path d="M21.72,30.52c-2.18-1.4-4.32-2-4.78-1.25l-.07-.05c.49-.76,2.64-.22,4.89,1.23Z"/><path d="M21.74,30.64l-.07-.05a11,11,0,0,0-3-1.4c-.85-.22-1.45-.18-1.64.13l-.05.07-.22-.14.05-.07c.26-.41.92-.5,1.88-.26a11.3,11.3,0,0,1,3.13,1.45l.07.05Z"/><path d="M18.2,30.87l6.79-.4a2.23,2.23,0,0,1,2.12,3.22l-3.05,6.07a2.22,2.22,0,0,1-3.84.23l-3.74-5.67A2.22,2.22,0,0,1,18.2,30.87Z"/><path d="M55,35.75l-.72,1.6a.72.72,0,0,1-1.25.14l-1-1.43a.73.73,0,0,1,.52-1.15l1.75-.18A.73.73,0,0,1,55,35.75Z"/></g></svg>
