<svg xmlns="http://www.w3.org/2000/svg" width="80" height="80" viewBox="0 0 80 80"><defs><style>.cls-1{opacity:0.71;}.cls-2{fill:#847070;}.cls-3{opacity:0.4;}.cls-4{fill:#f91919;}</style></defs><title>playknap</title><g id="Layer_8" data-name="Layer 8"><circle class="cls-1" cx="40.56" cy="40.42" r="34.58"/><circle class="cls-2" cx="39.44" cy="39.58" r="34.58"/><path class="cls-3" d="M26.25,55.36l-.13-31.43a4.11,4.11,0,0,1,6.16-3.59l27.28,15.6a4.12,4.12,0,0,1,0,7.13L32.44,58.9A4.11,4.11,0,0,1,26.25,55.36Z"/><path class="cls-4" d="M25.34,54.6l-.13-31.43a4.12,4.12,0,0,1,6.16-3.59l27.28,15.6a4.11,4.11,0,0,1,0,7.13L31.53,58.14A4.12,4.12,0,0,1,25.34,54.6Z"/></g></svg>
