<svg xmlns="http://www.w3.org/2000/svg" width="100" height="350" viewBox="0 0 100 350"><defs><style>.cls-1{opacity:0.67;}.cls-2{fill:#847070;}</style></defs><title>pointtavle</title><g id="Layer_2" data-name="Layer 2"><path class="cls-1" d="M75.8,1.5H27.2A20.7,20.7,0,0,0,6.5,22.2V328.8a20.7,20.7,0,0,0,20.7,20.7H75.8a20.7,20.7,0,0,0,20.7-20.7V22.2A20.7,20.7,0,0,0,75.8,1.5ZM52.43,322.06c-18.72-.26-33.73-11.92-33.54-26A19.71,19.71,0,0,1,20,289.8L16.69,279a7.8,7.8,0,0,1,9.19-9.9L38.23,272a2.9,2.9,0,0,1,1.48.86,44.08,44.08,0,0,1,26.85.39l10.08-3.35a6.7,6.7,0,0,1,8.67,7.7L83.57,286a20.4,20.4,0,0,1,3.1,11C86.47,311.08,71.14,322.32,52.43,322.06Zm0-61c-18.72-.26-33.73-11.92-33.54-26A19.71,19.71,0,0,1,20,228.8L16.69,218a7.8,7.8,0,0,1,9.19-9.9L38.23,211a2.9,2.9,0,0,1,1.48.86,44.08,44.08,0,0,1,26.85.39l10.08-3.35a6.7,6.7,0,0,1,8.67,7.7L83.57,225a20.4,20.4,0,0,1,3.1,11C86.47,250.08,71.14,261.32,52.43,261.06Zm0-59c-18.72-.26-33.73-11.92-33.54-26A19.71,19.71,0,0,1,20,169.8L16.69,159a7.8,7.8,0,0,1,9.19-9.9L38.23,152a2.9,2.9,0,0,1,1.48.86,44.08,44.08,0,0,1,26.85.39l10.08-3.35a6.7,6.7,0,0,1,8.67,7.7L83.57,166a20.4,20.4,0,0,1,3.1,11C86.47,191.08,71.14,202.32,52.43,202.06Zm0-60c-18.72-.26-33.73-11.92-33.54-26A19.71,19.71,0,0,1,20,109.8L16.69,99a7.8,7.8,0,0,1,9.19-9.9L38.23,92a2.9,2.9,0,0,1,1.48.86,44.08,44.08,0,0,1,26.85.39l10.08-3.35a6.7,6.7,0,0,1,8.67,7.7L83.57,106a20.4,20.4,0,0,1,3.1,11C86.47,131.08,71.14,142.32,52.43,142.06Zm0-60C33.71,81.8,18.7,70.14,18.89,56A19.71,19.71,0,0,1,20,49.8L16.69,39a7.8,7.8,0,0,1,9.19-9.9L38.23,32a2.9,2.9,0,0,1,1.48.86,44.08,44.08,0,0,1,26.85.39l10.08-3.35a6.7,6.7,0,0,1,8.67,7.7L83.57,46a20.4,20.4,0,0,1,3.1,11C86.47,71.08,71.14,82.32,52.43,82.06Z"/><path class="cls-2" d="M72.8.5H24.2A20.7,20.7,0,0,0,3.5,21.2V327.8a20.7,20.7,0,0,0,20.7,20.7H72.8a20.7,20.7,0,0,0,20.7-20.7V21.2A20.7,20.7,0,0,0,72.8.5ZM49.43,321.06c-18.72-.26-33.73-11.92-33.54-26A19.71,19.71,0,0,1,17,288.8L13.69,278a7.8,7.8,0,0,1,9.19-9.9L35.23,271a2.9,2.9,0,0,1,1.48.86,44.08,44.08,0,0,1,26.85.39l10.08-3.35a6.7,6.7,0,0,1,8.67,7.7L80.57,285a20.4,20.4,0,0,1,3.1,11C83.47,310.08,68.14,321.32,49.43,321.06Zm0-61c-18.72-.26-33.73-11.92-33.54-26A19.71,19.71,0,0,1,17,227.8L13.69,217a7.8,7.8,0,0,1,9.19-9.9L35.23,210a2.9,2.9,0,0,1,1.48.86,44.08,44.08,0,0,1,26.85.39l10.08-3.35a6.7,6.7,0,0,1,8.67,7.7L80.57,224a20.4,20.4,0,0,1,3.1,11C83.47,249.08,68.14,260.32,49.43,260.06Zm0-59c-18.72-.26-33.73-11.92-33.54-26A19.71,19.71,0,0,1,17,168.8L13.69,158a7.8,7.8,0,0,1,9.19-9.9L35.23,151a2.9,2.9,0,0,1,1.48.86,44.08,44.08,0,0,1,26.85.39l10.08-3.35a6.7,6.7,0,0,1,8.67,7.7L80.57,165a20.4,20.4,0,0,1,3.1,11C83.47,190.08,68.14,201.32,49.43,201.06Zm0-60c-18.72-.26-33.73-11.92-33.54-26A19.71,19.71,0,0,1,17,108.8L13.69,98a7.8,7.8,0,0,1,9.19-9.9L35.23,91a2.9,2.9,0,0,1,1.48.86,44.08,44.08,0,0,1,26.85.39l10.08-3.35a6.7,6.7,0,0,1,8.67,7.7L80.57,105a20.4,20.4,0,0,1,3.1,11C83.47,130.08,68.14,141.32,49.43,141.06Zm0-60C30.71,80.8,15.7,69.14,15.89,55A19.71,19.71,0,0,1,17,48.8L13.69,38a7.8,7.8,0,0,1,9.19-9.9L35.23,31a2.9,2.9,0,0,1,1.48.86,44.08,44.08,0,0,1,26.85.39l10.08-3.35a6.7,6.7,0,0,1,8.67,7.7L80.57,45a20.4,20.4,0,0,1,3.1,11C83.47,70.08,68.14,81.32,49.43,81.06Z"/></g></svg>
