<svg xmlns="http://www.w3.org/2000/svg" width="80" height="60" viewBox="0 0 80 60"><defs><style>.cls-1{fill:#f7119a;}.cls-2{opacity:0.46;}.cls-3{fill:#bc0a6c;}.cls-4{fill:#f9f9f9;}.cls-5{opacity:0.65;}.cls-6{fill:#ff1ab9;}.cls-7{opacity:0.64;}.cls-8{fill:#f40824;}.cls-9{opacity:0.5;}.cls-10{fill:#f7f5f5;}</style></defs><title>pointgris</title><g id="Layer_2" data-name="Layer 2"><path class="cls-1" d="M14.38,3.64,26.73,6.46a3,3,0,0,1,1.51,4.91L13.93,26.79a3,3,0,0,1-5-1.14L5.19,13.54A7.8,7.8,0,0,1,14.38,3.64Z"/><g class="cls-2"><path class="cls-3" d="M14.47,14.15h0a4.07,4.07,0,0,1-4.82-.05h0A4.1,4.1,0,0,1,13,6.81h0A4.09,4.09,0,0,1,14.47,14.15Z"/></g><path class="cls-1" d="M73.81,12.06,70.75,27a2.61,2.61,0,0,1-4.29,1.43L49.8,13.58a2.61,2.61,0,0,1,.91-4.42l14.43-4.8A6.7,6.7,0,0,1,73.81,12.06Z"/><ellipse class="cls-1" cx="41.28" cy="30.99" rx="25.57" ry="33.89" transform="translate(9.72 71.84) rotate(-89.21)"/><ellipse class="cls-4" cx="62.84" cy="27.9" rx="7.28" ry="8.68" transform="translate(-5.59 21.24) rotate(-18.38)"/><g class="cls-5"><ellipse class="cls-6" cx="41.73" cy="35.1" rx="11.92" ry="8.62" transform="translate(-0.84 1.02) rotate(-1.39)"/></g><ellipse cx="37.01" cy="34.72" rx="1.68" ry="3.02" transform="translate(-0.83 0.91) rotate(-1.39)"/><ellipse cx="45.35" cy="34.51" rx="1.74" ry="3.02" transform="translate(-0.82 1.11) rotate(-1.39)"/><ellipse cx="62.92" cy="27.85" rx="3.86" ry="5.86" transform="translate(-4.91 16.29) rotate(-14.21)"/><ellipse class="cls-4" cx="22.62" cy="28.45" rx="8.68" ry="7.28" transform="translate(-8.42 47.35) rotate(-82.85)"/><g class="cls-7"><circle class="cls-8" cx="24.63" cy="44.58" r="6.1"/></g><g class="cls-7"><circle class="cls-8" cx="57.97" cy="43.87" r="6.1"/></g><g class="cls-9"><path d="M28,18.2a2.68,2.68,0,0,0-2.26-1.36,8.24,8.24,0,0,0-4.25.71l-.48-1.08a.28.28,0,0,1,.15-.36A9.51,9.51,0,0,1,26,15.4a4.08,4.08,0,0,1,3.41,2.22Z"/></g><g class="cls-9"><path d="M58.42,19.37l-.73-.93a.26.26,0,0,1,0-.38,9.56,9.56,0,0,1,4.44-1.91A4.09,4.09,0,0,1,66,17.43l-1.15.9a2.7,2.7,0,0,0-2.54-.73A8.24,8.24,0,0,0,58.42,19.37Z"/></g><ellipse cx="22.59" cy="28.39" rx="5.86" ry="3.86" transform="translate(-11.33 41.27) rotate(-72.28)"/><circle class="cls-10" cx="23.05" cy="22.8" r="1.12"/><g class="cls-2"><path class="cls-3" d="M69.47,14.15h0a4.07,4.07,0,0,1-4.82-.05h0A4.1,4.1,0,0,1,68,6.81h0A4.09,4.09,0,0,1,69.47,14.15Z"/></g><circle class="cls-10" cx="62.05" cy="22.8" r="1.12"/></g></svg>
