<svg xmlns="http://www.w3.org/2000/svg" width="240" height="110" viewBox="0 0 240 110"><defs><style>.cls-1{opacity:0.7;}.cls-2{fill:#847070;}.cls-3{fill:#fcfcfc;}</style></defs><title>retryknap</title><g id="Layer_2" data-name="Layer 2"><g class="cls-1"><rect x="5.1" y="9.26" width="234.16" height="95.85" rx="31.83"/></g><rect class="cls-2" x="0.74" y="4.9" width="234.16" height="95.85" rx="31.83"/><path class="cls-3" d="M91.54,58.37a5.65,5.65,0,0,0,.62-.43,2.67,2.67,0,0,1,1.09-.47c.44-.09.69-.14.76-.14a1.44,1.44,0,0,1,.71.23.82.82,0,0,1,.38.74,1.28,1.28,0,0,1-.26.78,1,1,0,0,1-.74.38l-3.22,3.35a20.48,20.48,0,0,1-3.09,2.11,8.51,8.51,0,0,1-2.89.31,9.12,9.12,0,0,1-6.36-2.85C76.9,60.6,75.25,58.81,73.61,57a9.3,9.3,0,0,0-6.45-2.88q-2.61,0-3.39.66A2.61,2.61,0,0,0,63,56.89V58.3A7.35,7.35,0,0,0,64.52,63c1,1.29,1.59,2,1.69,2.22H53.45a10.58,10.58,0,0,1,1.42-1.71c.86-.93,1.28-1.62,1.28-2.08V44.77a3.24,3.24,0,0,0-.66-2.24A8.73,8.73,0,0,0,53,40.94v-1a25.09,25.09,0,0,0,6-1.28l6.47-2.15a25.94,25.94,0,0,1,7.07-1.08,18.76,18.76,0,0,1,8.56,1.87q3.73,1.88,3.73,5.09c0,2.24-1.28,4-3.84,5.27s-4.6,2.29-6.12,3a24.26,24.26,0,0,1,5.21,4l4.08,4.15A5.24,5.24,0,0,0,87.7,60.4c.88-.41,1.59-.76,2.11-1S90.91,58.74,91.54,58.37ZM77.21,42.68a4,4,0,0,0-2.11-3.54,8.12,8.12,0,0,0-4.34-1.3,8.48,8.48,0,0,0-5,1.61c-1.54,1.07-2.31,2-2.31,2.9v10A48.59,48.59,0,0,0,73,47.78Q77.21,45.13,77.21,42.68Z"/><path class="cls-3" d="M113.65,59.85c-.8,1.2-1.62,2.39-2.47,3.59s-1.55,1.79-2.09,1.79a21.41,21.41,0,0,1-4-.58,12.87,12.87,0,0,1-5.43-2.76A7.78,7.78,0,0,1,97,55.45a7.3,7.3,0,0,1,1-4.28,18.93,18.93,0,0,1,3.63-3.32c1.78-1.36,2.94-2.24,3.46-2.62a2.35,2.35,0,0,1,1.3-.58q2.23,1.2,4.51,2.51a7,7,0,0,1,2.61,2.05l-10.72,8a5.75,5.75,0,0,0,2.84,2.44,13.76,13.76,0,0,0,4.23.52,14.19,14.19,0,0,0,3.41-.29Zm-11.26-4.41,5.08-3.78a4.06,4.06,0,0,0-1.59-1.34,17.94,17.94,0,0,0-1.87-.79,2.5,2.5,0,0,0-1.92,1.28,4.48,4.48,0,0,0-.92,2.65A1.94,1.94,0,0,0,102.39,55.44Z"/><path class="cls-3" d="M131.29,47.87H125.6V58.48a2.52,2.52,0,0,0,1.5,2.37,8.16,8.16,0,0,0,3.72.77v.66c-1.58.95-2.83,1.66-3.73,2.13a5.37,5.37,0,0,1-1.73.71,7,7,0,0,1-3.53-1.42,4,4,0,0,1-2.16-3.26V48.34a3.69,3.69,0,0,0-1-.36,4.52,4.52,0,0,0-.93-.11H115.5V46l8.3-5.56h1.56a13.78,13.78,0,0,0,.08,1.51c0,.46.11.92.16,1.38a5.9,5.9,0,0,1-.24,1.58h5.93Z"/><path class="cls-3" d="M151.74,49.7c0,.48-.71,1.25-2.11,2.31a11.61,11.61,0,0,1-3.87,2.05c0-.24-.08-.74-.13-1.51s-.06-1.44-.06-2v-1h-.95a2.12,2.12,0,0,0-1.23.36,1,1,0,0,0-.52.83V65.12h-5.65V54a7.2,7.2,0,0,0-.83-3.82c-.55-.86-1.75-1.47-3.58-1.83V48a26.64,26.64,0,0,1,2.63-1.63A11.86,11.86,0,0,1,138,45.06a3.81,3.81,0,0,1,2.7,1.28c.86.85,1.57,1.57,2.14,2.15l3.74-2.3a9.56,9.56,0,0,1,2.14-1.13q.62,0,1.8,1.35A4.82,4.82,0,0,1,151.74,49.7Z"/><path class="cls-3" d="M177.21,51.52q0,2.7-3,6.08a110.08,110.08,0,0,1-8.94,8.59c-4,3.47-6.55,5.89-7.78,7.23h-3.89l-.43-.18V73.1l11.1-9.67q-.81-1.41-3.87-8t-7.23-9.76v-.54a11.3,11.3,0,0,1,2.47-.25,20,20,0,0,1,2.08.12c.76.09,1.2.13,1.33.13,1.87,0,2.94.43,3.23,1.3a3.87,3.87,0,0,0,1.28,2c1.07-.87,2.17-1.74,3.3-2.62a5.56,5.56,0,0,1,2.2-1.32,9.87,9.87,0,0,1,5.36,1.84A5.91,5.91,0,0,1,177.21,51.52Zm-4.6,2.6a4.55,4.55,0,0,0-1.31-3.32,4.85,4.85,0,0,0-3.63-1.34,12.94,12.94,0,0,0-1.7.07,5.54,5.54,0,0,0-1.47.58l4.74,9.67a6.8,6.8,0,0,0,2.33-2.63A6.81,6.81,0,0,0,172.61,54.12Z"/></g></svg>
