<svg xmlns="http://www.w3.org/2000/svg" width="720" height="370" viewBox="0 0 720 370"><defs><style>.cls-1{opacity:0.72;}.cls-2{fill:#847070;}.cls-3{fill:#fff;}</style></defs><title>soundfx</title><g id="Layer_2" data-name="Layer 2"><g class="cls-1"><rect x="8.9" y="4.02" width="708.78" height="363.1" rx="47.56"/></g><rect class="cls-2" x="2.32" y="2.88" width="706.72" height="354.63" rx="47.56"/><path class="cls-3" d="M63.52,124a11.55,11.55,0,0,1-3.29,7.88q-3.28,3.63-9.39,3.63a12.21,12.21,0,0,1-7.72-2.32,17.65,17.65,0,0,1-4.79-5.74c-.59-1.28-1.17-2.58-1.73-3.89v-1.89q1.32.6,3.51,1.35c1.46.49,2.52.82,3.19,1a14.88,14.88,0,0,1-.54,1.82,6.65,6.65,0,0,0-.38,1.23q0,2.13,2.49,4.11a9.28,9.28,0,0,0,6,2A7.09,7.09,0,0,0,56.06,131a7,7,0,0,0,2.08-5.13,6.85,6.85,0,0,0-1-4,3.74,3.74,0,0,0-3.25-1.38,44.79,44.79,0,0,0-4.63.78,35,35,0,0,1-5.36.78q-2.28,0-3.83-3.57A16.4,16.4,0,0,1,38.53,112a9,9,0,0,1,3.35-7.1,11.6,11.6,0,0,1,7.8-2.89,12.58,12.58,0,0,1,7,2.31,12,12,0,0,1,4.63,5c-.48.16-1.16.35-2,.58s-1.54.41-2,.54H55.82c-.4-2.35-1.21-4-2.43-4.84a7,7,0,0,0-4.11-1.3,6,6,0,0,0-4.5,1.65,5.66,5.66,0,0,0-1.6,4.13,5.92,5.92,0,0,0,1.3,3.67,4.3,4.3,0,0,0,3.63,1.7l11.16-1.92A10.49,10.49,0,0,1,62,117.25,14.18,14.18,0,0,1,63.52,124Z"/><path class="cls-3" d="M84.34,125a7.61,7.61,0,0,1-2.18,5.42,17.81,17.81,0,0,1-4.8,3.61,15.24,15.24,0,0,1-3,1.32c-2,0-3.94-1.35-5.89-4.07a13.91,13.91,0,0,1-2.93-8.2,8,8,0,0,1,2.26-5.7,17.61,17.61,0,0,1,5-3.69,15.49,15.49,0,0,1,3.09-1.33c1.79,0,3.65,1.28,5.57,3.82A14.17,14.17,0,0,1,84.34,125Zm-2.89,1.17q0-2.49-2.52-5.36a7.87,7.87,0,0,0-6.1-2.87,4.9,4.9,0,0,0-3,1.06,3.19,3.19,0,0,0-1.38,2.59q0,2.29,2.62,5.16a7.81,7.81,0,0,0,5.84,2.87,6.29,6.29,0,0,0,3.35-.77A2.88,2.88,0,0,0,81.45,126.12Z"/><path class="cls-3" d="M105.41,128.6a2.15,2.15,0,0,0,1.14,2q1.14.66,1.14,1.26c0,.27-.57.89-1.72,1.85a9.56,9.56,0,0,1-1.93,1.44c-.94,0-1.8-.67-2.61-2-.64-1.42-1-2.17-1-2.25A19.74,19.74,0,0,0,97,133.24c-1.6,1.27-2.59,1.9-3,1.9s-1.59-.59-3.41-1.78-2.73-2.39-2.73-3.59v-8a3.65,3.65,0,0,1-.12-.7c0-.31,0-.57,0-.78v-1.73a4.07,4.07,0,0,0-1.14-1.74c-.66-.68-1-1.13-1-1.35.69-.74,1.4-1.48,2.12-2.2s1.23-1.09,1.53-1.09a.82.82,0,0,1,.58.28,5.39,5.39,0,0,0,.54.53,5.63,5.63,0,0,1,2.09,2.16,8.73,8.73,0,0,1,.44,3.17v8.47a2.9,2.9,0,0,0,1.32,2.24,4.14,4.14,0,0,0,2.53,1,4.69,4.69,0,0,0,1.87-.48,8.8,8.8,0,0,0,2-1.25V113c.72-.16,1.46-.32,2.21-.46a11.39,11.39,0,0,0,1.44-.35h1.37v10c0,.83,0,1.86-.08,3.07S105.43,127.64,105.41,128.6Z"/><path class="cls-3" d="M130,134.5a3.19,3.19,0,0,1-1.25.2c-.21,0-.82,0-1.82-.1s-1.72-.1-2.15-.1V121.61a5.57,5.57,0,0,0-.72-3.29,3.27,3.27,0,0,0-2.69-.92,7.38,7.38,0,0,0-2.65.52c-.9.35-1.36.75-1.36,1.21v15.73h-4.85V118.93a1.75,1.75,0,0,0-.93-1.48,13,13,0,0,0-2.72-1.24v-.57l4.41-3.25a10.19,10.19,0,0,1,3.13,2c.43.62.87,1.23,1.32,1.85l5.94-4a12.66,12.66,0,0,1,5,2.21c.93.83,1.39,2.26,1.39,4.3Z"/><path class="cls-3" d="M153.71,132.13a25.39,25.39,0,0,0-2.66,2c-.83.72-1.36,1.08-1.57,1.08-.76,0-1.68-.57-2.78-1.72s-1.52-1.85-1.58-1.93c-.32.27-1.24.94-2.76,2a10.76,10.76,0,0,1-2.64,1.62c-1.09,0-2.61-1-4.56-2.93a10.61,10.61,0,0,1-2.92-7.82,10.18,10.18,0,0,1,1.83-5.88,19,19,0,0,1,4-4.33,8.26,8.26,0,0,1,2.63-1.67,9,9,0,0,1,1.7.71,16.29,16.29,0,0,1,2.31,1.58h.44v-4a13.51,13.51,0,0,0-.4-3.81l-1-1.77c0-.16.57-.56,1.7-1.22a44.43,44.43,0,0,1,4-2h.4v26.28c.45.72.92,1.45,1.4,2.17a3.26,3.26,0,0,0,2.41.72ZM145.12,127v-5.18a4.34,4.34,0,0,0-1.7-3.11,4.91,4.91,0,0,0-3.11-1.54,4.15,4.15,0,0,0-2.91,1.64,5.4,5.4,0,0,0-1.5,3.74,10,10,0,0,0,1.58,4.27c1.06,1.88,2.39,2.83,4,2.83a3.83,3.83,0,0,0,2.69-.89A2.44,2.44,0,0,0,145.12,127Z"/><path class="cls-3" d="M189.42,129.21q-1,2-2.09,4c-.72,1.33-1.31,2-1.77,2a14.18,14.18,0,0,1-3.39-.64,10.33,10.33,0,0,1-4.59-3.07c-1.52-1.62-2.29-4-2.29-7.17a10.22,10.22,0,0,1,.81-4.75,18.85,18.85,0,0,1,3.06-3.69c1.52-1.52,2.49-2.48,2.93-2.91a1.85,1.85,0,0,1,1.11-.65q1.88,1.33,3.81,2.8a6.7,6.7,0,0,1,2.21,2.27l-9.07,8.87a5.43,5.43,0,0,0,2.41,2.7,9,9,0,0,0,3.57.59,9.55,9.55,0,0,0,2.88-.32Zm-9.53-4.91,4.3-4.21a3.79,3.79,0,0,0-1.34-1.48,14.38,14.38,0,0,0-1.58-.89c-.56,0-1.1.48-1.63,1.43a6,6,0,0,0-.78,2.94A2.3,2.3,0,0,0,179.89,124.3Z"/><path class="cls-3" d="M199.45,134.78c-.41,0-.95.06-1.65.08l-1.32,0c-.54,0-1,0-1.31,0a1.11,1.11,0,0,1-.66-.2V116.25H191V113H193c1,0,1.56-.19,1.56-.56a11.73,11.73,0,0,0-.48-3.61q-.57-1.35-1.08-2.7c0-.29,1.24-1,3.73-2a18.8,18.8,0,0,1,4.57-1.59c.67,0,1.42.58,2.25,1.73a5.29,5.29,0,0,1,1.24,2.73q0,.24-.54.66c-.36.28-1.34,1-2.95,2-.35-.59-.67-1.15-1-1.69s-.67-1.14-1.13-1.8h-.44v.8l.73,5.54c.05.16.21.28.49.36a3.14,3.14,0,0,0,.89.12h3.11v3a3.81,3.81,0,0,1-1.31.31,2,2,0,0,1-.69-.14,1.63,1.63,0,0,0-.53-.14,3.31,3.31,0,0,0-2,.56v18.25Z"/><path class="cls-3" d="M215.17,134.78c-.4,0-.95.06-1.64.08l-1.33,0c-.53,0-1,0-1.3,0a1.09,1.09,0,0,1-.66-.2V116.25h-3.49V113h1.92c1.05,0,1.57-.19,1.57-.56a11.73,11.73,0,0,0-.48-3.61c-.38-.9-.74-1.8-1.09-2.7,0-.29,1.25-1,3.73-2a19,19,0,0,1,4.58-1.59c.67,0,1.42.58,2.24,1.73a5.32,5.32,0,0,1,1.25,2.73q0,.24-.54.66c-.36.28-1.35,1-3,2-.35-.59-.67-1.15-1-1.69a19.72,19.72,0,0,0-1.12-1.8h-.44v.8l.72,5.54a.67.67,0,0,0,.49.36,3.16,3.16,0,0,0,.9.12h3.1v3a3.76,3.76,0,0,1-1.3.31,2.07,2.07,0,0,1-.7-.14,1.52,1.52,0,0,0-.53-.14,3.35,3.35,0,0,0-2,.56v18.25Z"/><path class="cls-3" d="M236.76,129.21q-1,2-2.09,4c-.72,1.33-1.31,2-1.76,2a14.16,14.16,0,0,1-3.4-.64,10.38,10.38,0,0,1-4.59-3.07c-1.52-1.62-2.29-4-2.29-7.17a10.22,10.22,0,0,1,.81-4.75,18.62,18.62,0,0,1,3.07-3.69c1.51-1.52,2.48-2.48,2.93-2.91a1.81,1.81,0,0,1,1.1-.65q1.89,1.33,3.81,2.8a6.7,6.7,0,0,1,2.21,2.27l-9.07,8.87a5.43,5.43,0,0,0,2.41,2.7,9,9,0,0,0,3.57.59,9.67,9.67,0,0,0,2.89-.32Zm-9.53-4.91,4.3-4.21a3.79,3.79,0,0,0-1.34-1.48,14.38,14.38,0,0,0-1.58-.89c-.56,0-1.1.48-1.62,1.43a6.06,6.06,0,0,0-.79,2.94A2.3,2.3,0,0,0,227.23,124.3Z"/><path class="cls-3" d="M252.84,129a31.65,31.65,0,0,1-2.68,4.56q-1.17,1.54-4.54,1.54a7.88,7.88,0,0,1-7.46-7.1v-8.95c0-.51.46-1,1.36-1.57s2.35-1.46,4.32-2.79a17.55,17.55,0,0,1,3.27-2l3.27,2.15a14.76,14.76,0,0,1,2.26,1.67,12.07,12.07,0,0,1-1.38,2c-.82,1.07-1.3,1.61-1.46,1.61a11.68,11.68,0,0,1-2.49-1.71c-1.47-1.13-2.56-1.7-3.25-1.7a1.09,1.09,0,0,0-.76.44,1.3,1.3,0,0,0-.4.88v8.43a3.64,3.64,0,0,0,1.2,2.6,4,4,0,0,0,3,1.21,6.82,6.82,0,0,0,2.79-.7,7.84,7.84,0,0,0,2.38-1.63h.56Z"/><path class="cls-3" d="M268.05,115.88h-4.81v11.8a3,3,0,0,0,1.27,2.63,5.5,5.5,0,0,0,3.14.86v.73c-1.34,1-2.39,1.85-3.15,2.37a4,4,0,0,1-1.47.79,5.14,5.14,0,0,1-3-1.58,4.68,4.68,0,0,1-1.83-3.62V116.41a2.7,2.7,0,0,0-.82-.4,2.89,2.89,0,0,0-.78-.13h-1.93V113.8l7-6.18H263c0,.62,0,1.18.07,1.68s.09,1,.14,1.53a8.24,8.24,0,0,1-.21,1.76h5Z"/><path class="cls-3" d="M287.27,126.68a8.17,8.17,0,0,1-2.49,6,8.42,8.42,0,0,1-6.18,2.48,11.25,11.25,0,0,1-6-2.12q-3.27-2.13-3.27-4.06c0-.24.59-.66,1.75-1.26a28.13,28.13,0,0,1,3-1.38v1.92a4.18,4.18,0,0,0,1.26,3.15,4.7,4.7,0,0,0,6.32,0,3.92,3.92,0,0,0,1.28-3,5,5,0,0,0-1.14-3.11,3.36,3.36,0,0,0-2.71-1.46,10.77,10.77,0,0,0-3.85,1,13.48,13.48,0,0,1-2.89,1,20.44,20.44,0,0,1-1.66-2.59,7.84,7.84,0,0,1-.83-3.79,6.66,6.66,0,0,1,2.63-5.34,8.79,8.79,0,0,1,5.68-2.17,10.17,10.17,0,0,1,4.81,1.49,7,7,0,0,1,3.45,3.53l-4.85,2.69a21.72,21.72,0,0,0-1.24-3.86c-.43-.9-1.42-1.36-3-1.36a3.07,3.07,0,0,0-2.33,1,3.52,3.52,0,0,0-1,2.45,4.07,4.07,0,0,0,1.08,2.81,3.21,3.21,0,0,0,2.41,1.2,10.66,10.66,0,0,0,4.17-1.24c1.77-.83,2.69-1.24,2.77-1.24a15.73,15.73,0,0,1,1.78,2.58A9.26,9.26,0,0,1,287.27,126.68Z"/><path class="cls-3" d="M40,204.21h7.23c.38.06.75.1,1.13.14a3.26,3.26,0,0,1,1.1.34c.36.19,1.32,2,2.86,5.38s2.74,6,3.61,7.75a10.42,10.42,0,0,0,2.55,3.62L65,207.67a8.13,8.13,0,0,0-1-1.15,7.58,7.58,0,0,0-1.31-.71v-1.12H74.9v1.13a14.07,14.07,0,0,0-1.74,1.44,2.19,2.19,0,0,0-.58,1.6V231.7a4.06,4.06,0,0,0,.74,2.31,3.82,3.82,0,0,0,2.35,1.5l-.2,1.12-11.64,0v-1.16a6,6,0,0,0,2.33-1.86,4.86,4.86,0,0,0,.68-2.71V211.15h-.72L57,231.35l-.73,0-10-20.18h-.72v21.34c-.16,1-.38,2.39-.67,4.14a32.4,32.4,0,0,1-1.5,5.67,8.44,8.44,0,0,1-2.81,4.24v-1.16a33.31,33.31,0,0,0,2-7.26,46.7,46.7,0,0,0,.64-7.57V213q0-4.53-1-5.69c-.43-.37-.78-.69-1.05-.94a2.7,2.7,0,0,1-.62-1A10.61,10.61,0,0,0,40,204.21Z"/><path class="cls-3" d="M97.13,230.13a2.16,2.16,0,0,0,1.14,2c.77.44,1.15.86,1.15,1.26s-.58.88-1.73,1.85a10,10,0,0,1-1.92,1.44q-1.41,0-2.61-2c-.64-1.41-1-2.16-1-2.24a19.13,19.13,0,0,0-3.41,2.34c-1.61,1.27-2.6,1.91-3,1.91s-1.6-.59-3.41-1.79-2.73-2.38-2.73-3.59v-7.94a2.55,2.55,0,0,1-.12-.7c0-.31,0-.57,0-.78v-1.73a4.11,4.11,0,0,0-1.15-1.74c-.65-.69-1-1.13-1-1.35.7-.75,1.41-1.48,2.13-2.21s1.23-1.08,1.52-1.08a.79.79,0,0,1,.58.28,6.67,6.67,0,0,0,.55.52,5.6,5.6,0,0,1,2.08,2.17,8.48,8.48,0,0,1,.44,3.17v8.47a2.88,2.88,0,0,0,1.33,2.24,4.1,4.1,0,0,0,2.52,1,4.65,4.65,0,0,0,1.87-.48,8.81,8.81,0,0,0,2-1.24V214.56l2.2-.46a11,11,0,0,0,1.45-.34h1.36v10c0,.83,0,1.85-.08,3.07S97.16,229.17,97.13,230.13Z"/><path class="cls-3" d="M118.51,228.2a8.18,8.18,0,0,1-2.48,6,8.39,8.39,0,0,1-6.18,2.49,11.19,11.19,0,0,1-6-2.13q-3.27-2.11-3.27-4c0-.24.58-.66,1.75-1.26a29.32,29.32,0,0,1,3-1.39v1.93a4.22,4.22,0,0,0,1.27,3.15,4.73,4.73,0,0,0,6.32,0,4,4,0,0,0,1.28-3,5,5,0,0,0-1.14-3.11,3.35,3.35,0,0,0-2.71-1.46,10.52,10.52,0,0,0-3.85,1,14,14,0,0,1-2.89,1,19.09,19.09,0,0,1-1.67-2.59,7.91,7.91,0,0,1-.82-3.79,6.66,6.66,0,0,1,2.63-5.33,8.72,8.72,0,0,1,5.68-2.17,10.21,10.21,0,0,1,4.81,1.49,7,7,0,0,1,3.45,3.53l-4.85,2.68a21,21,0,0,0-1.25-3.85c-.42-.91-1.41-1.36-3-1.36a3.07,3.07,0,0,0-2.32,1,3.51,3.51,0,0,0-1,2.45,4.08,4.08,0,0,0,1.09,2.81,3.19,3.19,0,0,0,2.41,1.2,10.71,10.71,0,0,0,4.17-1.24c1.76-.83,2.69-1.25,2.77-1.25a16,16,0,0,1,1.78,2.59A9.37,9.37,0,0,1,118.51,228.2Z"/><path class="cls-3" d="M132.4,234.1a27.32,27.32,0,0,1-2.43,1.51,11.25,11.25,0,0,1-2.43,1.22q-1.2-1-2.43-2.07c-.81-.73-1.22-1.34-1.22-1.82v-12a2.61,2.61,0,0,0-1.57-2.32c-1-.59-1.56-1-1.56-1.21.75-.72,1.53-1.44,2.32-2.16s1.31-1.09,1.55-1.09a22.38,22.38,0,0,1,2.86,2.27,3.93,3.93,0,0,1,1.41,2.95v7.18a16.56,16.56,0,0,0,.54,5.09c.36,1,1.34,1.56,3,1.69ZM129.55,205v1.56a1.32,1.32,0,0,1-1,1.32c-1.68.48-3.48,1-5.42,1.61a1.86,1.86,0,0,1-.08-.48v-.89a2.59,2.59,0,0,1,1.61-2.24l4.13-2.25h.6a3.44,3.44,0,0,1,.12.8V205Z"/><path class="cls-3" d="M148,230.57a31.54,31.54,0,0,1-2.69,4.56q-1.15,1.55-4.53,1.54a7.88,7.88,0,0,1-7.46-7.1v-8.95c0-.51.45-1,1.36-1.57s2.35-1.46,4.31-2.79a18.8,18.8,0,0,1,3.27-2l3.27,2.16a15.32,15.32,0,0,1,2.27,1.66,12.22,12.22,0,0,1-1.38,2c-.82,1.07-1.31,1.61-1.47,1.61A12,12,0,0,1,142.5,220c-1.47-1.14-2.55-1.7-3.25-1.7a1.08,1.08,0,0,0-.76.44,1.3,1.3,0,0,0-.4.88v8.42a3.61,3.61,0,0,0,1.21,2.61,4.08,4.08,0,0,0,3,1.21,6.61,6.61,0,0,0,2.79-.71,7.75,7.75,0,0,0,2.39-1.62H148Z"/><rect class="cls-3" x="431.77" y="93.3" width="153.69" height="54.33" rx="27.16"/><rect class="cls-3" x="431.77" y="196.94" width="153.69" height="54.33" rx="27.16"/><rect x="431.77" y="93.3" width="54.33" height="54.33" rx="27.16"/><rect x="431.77" y="196.94" width="54.33" height="54.33" rx="27.16"/><path class="cls-3" d="M389.32,119.16a11.19,11.19,0,0,1-3,7.41,27.21,27.21,0,0,1-6.76,5.73c-2.51,1.5-4.26,2.24-5.25,2.24s-2.86-.64-5.3-1.92a21.13,21.13,0,0,1-6.66-5.73,14.44,14.44,0,0,1-3-9.21q0-5,5.08-10.58t10.29-5.57q4.57,0,9.59,5.35A17.44,17.44,0,0,1,389.32,119.16Zm-4.21,2.72q0-4.25-4.27-9.23t-9.61-5a8.71,8.71,0,0,0-5.4,1.71,6.09,6.09,0,0,0-2.26,5.22q0,4.72,4.23,9.25a13.26,13.26,0,0,0,10,4.53,7.15,7.15,0,0,0,5.22-2.05A6.17,6.17,0,0,0,385.11,121.88Z"/><path class="cls-3" d="M423.26,103.41a9.34,9.34,0,0,0-1.64.48l-1,.64v30.66h-2.29c-.16-1.61-1.32-3.59-3.47-6s-4.19-4.6-6.12-6.68q-6.83-8.39-8.3-10.17a8.3,8.3,0,0,0-3.17-2.47v20.66a25.38,25.38,0,0,1-1.09,8.19q-1.51,3.33-2.36,5.57h-1.17v-1.12a34,34,0,0,0,1.33-4.65,27.88,27.88,0,0,0,1-6.06V116c0-2.94-.08-5.16-.24-6.64a11.43,11.43,0,0,0-.7-3.23,3.16,3.16,0,0,0-1.51-1.53,5.43,5.43,0,0,1-1.36-.84c.83-.26,1.86-.55,3.09-.86l4.13-1,18.78,21,.76.4V107.62c0-2.27-.56-3.55-1.69-3.85-.58-.1-1.17-.22-1.76-.36v-1.16h8.78Z"/><path class="cls-3" d="M389.32,227.81a11.21,11.21,0,0,1-3,7.42,27.21,27.21,0,0,1-6.76,5.73q-3.76,2.23-5.25,2.24c-1.1,0-2.86-.64-5.3-1.92a21.13,21.13,0,0,1-6.66-5.73,14.45,14.45,0,0,1-3-9.22q0-5,5.08-10.58t10.29-5.57q4.57,0,9.59,5.35A17.45,17.45,0,0,1,389.32,227.81Zm-4.21,2.73q0-4.24-4.27-9.23t-9.61-5a8.76,8.76,0,0,0-5.4,1.7,6.12,6.12,0,0,0-2.26,5.23q0,4.73,4.23,9.25a13.28,13.28,0,0,0,10,4.52,7.18,7.18,0,0,0,5.22-2A6.17,6.17,0,0,0,385.11,230.54Z"/><path class="cls-3" d="M423.26,212.07a9.34,9.34,0,0,0-1.64.48l-1,.64v30.65h-2.29c-.16-1.6-1.32-3.59-3.47-6s-4.19-4.6-6.12-6.68q-6.83-8.39-8.3-10.17a8.2,8.2,0,0,0-3.17-2.47v20.66a25.27,25.27,0,0,1-1.09,8.18q-1.51,3.33-2.36,5.58h-1.17v-1.12a34.33,34.33,0,0,0,1.33-4.66,27.81,27.81,0,0,0,1-6.05V224.67q0-4.42-.24-6.64a11.43,11.43,0,0,0-.7-3.23,3.16,3.16,0,0,0-1.51-1.53,5.74,5.74,0,0,1-1.36-.84c.83-.27,1.86-.55,3.09-.86l4.13-1,18.78,21,.76.4V216.28c0-2.27-.56-3.56-1.69-3.85l-1.76-.36v-1.16h8.78Z"/><path class="cls-3" d="M625,119.16a11.24,11.24,0,0,1-3,7.41,27.39,27.39,0,0,1-6.76,5.73c-2.52,1.5-4.27,2.24-5.26,2.24s-2.86-.64-5.29-1.92a20.91,20.91,0,0,1-6.66-5.73,14.38,14.38,0,0,1-3-9.21q0-5,5.07-10.58t10.29-5.57q4.58,0,9.59,5.35A17.4,17.4,0,0,1,625,119.16Zm-4.21,2.72q0-4.25-4.28-9.23t-9.61-5a8.7,8.7,0,0,0-5.39,1.71,6.1,6.1,0,0,0-2.27,5.22q0,4.72,4.23,9.25a13.26,13.26,0,0,0,10,4.53,7.13,7.13,0,0,0,5.22-2.05A6.14,6.14,0,0,0,620.82,121.88Z"/><path class="cls-3" d="M652.51,109.47a22,22,0,0,1-1.89,1.12q-1.32.72-4.33,2.25a14.22,14.22,0,0,0-2.35-3.81,4.37,4.37,0,0,0-3.39-1.45,2.88,2.88,0,0,0-2.44,1.09,12.74,12.74,0,0,0-1.65,3.09v4.85h12.36c-.19.43-.38.88-.56,1.36a7.3,7.3,0,0,0-.28,2.41l-3.17.18q-3,.18-4.38.18c-1.09,0-1.88,0-2.34-.06a10,10,0,0,1-1.63-.3,84.36,84.36,0,0,1-.42,8.85,25.61,25.61,0,0,1-2.35,8.1,13.54,13.54,0,0,1-6,6.36v-.8q1.32-4.17,2.12-6.9a16.23,16.23,0,0,0,.8-4.37V120.74h-4.13c0-.34,0-.79,0-1.32s0-.91,0-1.12v-.49a7,7,0,0,0-.08-.84h4.13v-1.44c-.18-.51-.42-1.32-.7-2.43s-.59-2.19-.94-3.23l15.2-8.27a16.66,16.66,0,0,1,4.08,3Q649.86,106.29,652.51,109.47Z"/><path class="cls-3" d="M625,222a11.26,11.26,0,0,1-3,7.42,27.39,27.39,0,0,1-6.76,5.73q-3.78,2.23-5.26,2.24c-1.09,0-2.86-.64-5.29-1.92a21.17,21.17,0,0,1-6.66-5.73,14.39,14.39,0,0,1-3-9.22q0-5,5.07-10.58t10.29-5.57q4.58,0,9.59,5.35A17.42,17.42,0,0,1,625,222Zm-4.21,2.73q0-4.24-4.28-9.23t-9.61-5a8.75,8.75,0,0,0-5.39,1.7,6.13,6.13,0,0,0-2.27,5.23q0,4.72,4.23,9.25a13.28,13.28,0,0,0,10,4.52,7.16,7.16,0,0,0,5.22-2A6.14,6.14,0,0,0,620.82,224.69Z"/><path class="cls-3" d="M652.51,212.27a19.17,19.17,0,0,1-1.89,1.13q-1.32.72-4.33,2.25a14.22,14.22,0,0,0-2.35-3.81,4.34,4.34,0,0,0-3.39-1.45,2.9,2.9,0,0,0-2.44,1.08,13.13,13.13,0,0,0-1.65,3.09v4.86h12.36c-.19.43-.38.88-.56,1.36a7.26,7.26,0,0,0-.28,2.41l-3.17.18q-3,.18-4.38.18c-1.09,0-1.88,0-2.34-.06a10,10,0,0,1-1.63-.3A84.5,84.5,0,0,1,636,232a25.61,25.61,0,0,1-2.35,8.1,13.54,13.54,0,0,1-6,6.36v-.8q1.32-4.19,2.12-6.9a16.22,16.22,0,0,0,.8-4.38V223.55h-4.13c0-.35,0-.79,0-1.32s0-.91,0-1.13v-.48a7,7,0,0,0-.08-.84h4.13v-1.45c-.18-.5-.42-1.32-.7-2.43s-.59-2.18-.94-3.23l15.2-8.27a16.66,16.66,0,0,1,4.08,3Q649.86,209.11,652.51,212.27Z"/></g></svg>
