<svg xmlns="http://www.w3.org/2000/svg" xmlns:xlink="http://www.w3.org/1999/xlink" width="1920" height="1080" viewBox="0 0 1920 1080"><defs><style>.cls-1{fill:#606060;}.cls-2{fill:#50e2f9;}.cls-3{opacity:0.44;}.cls-4{fill:url(#radial-gradient);}.cls-17,.cls-5{fill:#fff;}.cls-16,.cls-6{fill:#5b4b4b;}.cls-7{fill:#89847d;}.cls-8{fill:#55770c;}.cls-9{fill:#6b4a0f;}.cls-10,.cls-19{fill:#4f350b;}.cls-10{opacity:0.53;}.cls-11{fill:#190f02;}.cls-11,.cls-20{opacity:0.34;}.cls-12{fill:#f9d68f;}.cls-13,.cls-14{fill:#847070;}.cls-14,.cls-16,.cls-17,.cls-18,.cls-27{stroke:#000;stroke-miterlimit:10;}.cls-14{stroke-width:0.5px;}.cls-15{fill:#1688a3;}.cls-17,.cls-18{stroke-width:2px;}.cls-18,.cls-25,.cls-27{fill:none;}.cls-19{opacity:0.6;}.cls-21{fill:#6b882b;}.cls-22{fill:#3184e8;}.cls-23{fill:#6d4a12;}.cls-24{fill:#724416;}.cls-26{fill:#f91919;}</style><radialGradient id="radial-gradient" cx="-571.55" cy="490.86" r="778.48" gradientTransform="translate(1900.88 -31.45) scale(1.65 0.99)" gradientUnits="userSpaceOnUse"><stop offset="0" stop-color="#cce0f4"/><stop offset="0.06" stop-color="#c3dcf2"/><stop offset="0.17" stop-color="#a9d2ee"/><stop offset="0.31" stop-color="#80c2e7"/><stop offset="0.46" stop-color="#47acde"/><stop offset="0.57" stop-color="#1e9cd7"/><stop offset="0.87" stop-color="#0075be"/><stop offset="0.99" stop-color="#005b97"/></radialGradient></defs><title>spilbaggrund</title><g id="Layer_2" data-name="Layer 2"><rect class="cls-1" x="-213" y="-417" width="2261" height="615"/><rect class="cls-2" x="-590.77" y="-54.11" width="3104.58" height="918.44"/><g class="cls-3"><rect class="cls-4" x="-618.5" y="-79.5" width="3158" height="1066"/><path class="cls-5" d="M2539-79V986H-618V-79H2539m1-1H-619V987H2540V-80Z"/></g><rect class="cls-6" x="803.87" y="860.28" width="274.88" height="187.57"/><rect class="cls-7" x="1324.85" y="550.63" width="38.48" height="13.74"/><polygon class="cls-8" points="1624.48 864.33 2538.06 862.71 2551 1692.21 1235.6 1692.21 1087.64 1153.76 1917.15 1153.76 1624.48 864.33"/><path class="cls-9" d="M1540.93,574.08S1635,600,1753,404.3s145.52-215.06,221.52-236.08,177.87-67.91,210.21-135.82,181.1-87.32,181.1-87.32l169,.81,4.85,916.82-909.54.81V574.08L1597,576.51v35.57l-38-.81V574.08Z"/><path class="cls-10" d="M1541.74,653.78s94.06,18.68,212.1-122.55S1899.36,376,1975.36,360.82s177.87-49,210.21-98,182.71-63,182.71-63h147.15l-1.62,663H1631V653.78h-37.19v26.85h-34V653.78Z"/><path class="cls-11" d="M1541.74,719.68s94.06,12.2,212.1-80.11,145.52-101.47,221.52-111.39,177.87-32,210.21-64.09,182.71-41.2,182.71-41.2h147.15l-1.62,433.35H1631V719.68h-37.19v17.54h-34V719.68Z"/><polygon class="cls-12" points="1066.63 1047.04 1242.87 1708.38 647.83 1708.38 822.46 1047.04 1066.63 1047.04"/><polyline class="cls-13" points="488.56 506.17 488.56 302.43 689.06 295.96 689.06 506.17 488.56 506.17"/><polyline class="cls-13" points="1191.13 506.98 1191.13 303.24 1391.63 301.62 1391.63 506.98 1191.13 506.98"/><polyline class="cls-13" points="457.84 574.08 396.39 574.08 396.39 611.27 360.82 611.27 360.82 574.08 323.63 574.08 323.63 611.27 289.67 611.27 289.67 574.08 252.48 574.08 252.48 1047.85 457.84 1047.85 457.84 574.08"/><polyline class="cls-13" points="1426.4 574.08 1487.84 574.08 1487.84 611.27 1523.42 611.27 1523.42 574.08 1560.61 574.08 1560.61 611.27 1594.56 611.27 1594.56 574.08 1631.75 574.08 1631.75 1047.85 1426.4 1047.85 1426.4 574.08"/><polyline class="cls-14" points="731.1 552.79 745.66 552.79 745.66 506.17 774.76 506.17 774.76 553.06 799.02 553.06 799.02 506.17 828.12 506.17 828.12 553.06 852.38 553.06 852.38 506.17 881.48 506.17 881.48 553.06 905.74 553.06 905.74 506.17 934.84 506.17 934.84 553.06 959.1 553.06 959.1 506.17 988.2 506.17 988.2 553.06 1012.46 553.06 1012.46 506.17 1041.56 506.17 1041.56 553.06 1065.82 553.06 1065.82 506.17 1094.92 506.17 1094.92 553.06 1119.18 553.06 1119.18 506.17 1145.05 506.17 1145.05 553.06 1153.13 553.06 1153.13 599.95 731.1 599.95 731.1 552.79"/><polygon class="cls-15" points="1094.92 1153.22 1924.42 1153.22 1631.75 863.52 1631.75 1047.85 1066.63 1047.04 1094.92 1153.22"/><polygon class="cls-15" points="794.42 1153.22 -41 1153 252.48 863.52 252.48 1047.85 823.27 1047.85 794.42 1153.22"/><path class="cls-16" d="M1500.78,803.69h-61.86V701.82a30.69,30.69,0,0,1,30.68-30.69h4.3A26.88,26.88,0,0,1,1500.78,698Z"/><polygon class="cls-8" points="792.55 1152.95 646.21 1710 -594 1698.68 -591.58 863.52 250.87 863.52 -36.95 1152.95 792.55 1152.95"/><path class="cls-9" d="M253,666S-9.47,608-37,515.87-172.78,289.49-250.39,273.33-429.88,215.11-459,171.46s-132.59-110-132.59-110v802L253,864Z"/><path class="cls-17" d="M594.47,107.59l6.47-50.13,53.36,4.85c3.23,8.09,35.57,12.94,43.66,8.09s12.93,11.31,32.34,12.93S761,88.18,761,88.18l-59.83,12.94s6.47,6.47-4.85,0S664,102.74,664,102.74l-32.34-8.09-37.19,6.47"/><path class="cls-17" d="M1298,93.42l1.83-50.51,53.58-.08c4,7.75,36.61,9.61,44.22,4s13.92,10.08,33.39,9.91,31,2,31,2l-58.38,18.39s7,5.84-4.83.44-32.06,4.59-32.06,4.59l-32.94-5.08L1297.44,87"/><line class="cls-18" x1="1296.23" y1="107.59" x2="1297.85" y2="41.29"/><path class="cls-19" d="M251.67,721.91S-8.66,683.69-36.15,621.44-172,468.54-249.59,457.62s-179.48-39.31-208.58-68.8-132.6-74.26-132.6-74.26V856.24H251.67Z"/><path class="cls-20" d="M253.29,769.63S-7,745-34.53,704.85-170.35,606.26-248,599.22s-179.48-25.35-208.59-44.36S-589.15,507-589.15,507V856.24L253,856Z"/><rect class="cls-7" x="1332.94" y="346.9" width="38.48" height="13.74"/><rect class="cls-7" x="1371.75" y="566.8" width="38.48" height="13.74"/><rect class="cls-7" x="1192.26" y="456.85" width="29.59" height="13.74"/><rect class="cls-7" x="1192.26" y="481.11" width="38.48" height="13.74"/><rect class="cls-7" x="692.62" y="528" width="38.48" height="13.74"/><rect class="cls-7" x="692.62" y="539.32" width="38.48" height="13.74"/><rect class="cls-7" x="692.62" y="521.53" width="38.48" height="13.74"/><rect class="cls-7" x="650.58" y="463.32" width="38.48" height="13.74"/><rect class="cls-7" x="650.58" y="424.51" width="38.48" height="13.74"/><rect class="cls-7" x="650.58" y="316.17" width="38.48" height="13.74"/><rect class="cls-7" x="488.88" y="405.11" width="26.36" height="13.74"/><rect class="cls-7" x="501.82" y="424.51" width="34.44" height="13.74"/><rect class="cls-7" x="670.47" y="445.53" width="18.6" height="13.74"/><path class="cls-21" d="M1869.22,896.62a.43.43,0,0,0,0,0S1869.16,896.62,1869.22,896.62Z"/><path class="cls-21" d="M1859.75,896.49l.12,0a.43.43,0,0,0,0-.16Z"/><path class="cls-21" d="M1890.07,894.55a1,1,0,0,1-.33-.24C1889.86,894.51,1888.85,894.63,1890.07,894.55Z"/><path class="cls-21" d="M1889.74,894.31Z"/><path class="cls-21" d="M1882.59,895.44c1-.07.46-.39.66-.62,1.24-.2.6.22,1,.38a15.69,15.69,0,0,1,1.91-.56c0,.05.17.07,0,.15.8-.33,2.43-.14,3.37-.56a.22.22,0,0,1,.13.08.58.58,0,0,1-.17-.5c.47,0,.86-.27,1,0a.57.57,0,0,0-.44.17l.48-.11c.46.33-.66.13-.65.39a14.78,14.78,0,0,1,2.79-.38c.16.34-1.71.16-.72.44l-1.14-.1c.89.51-.69,0,.13.53,1.49.06,1.66-.22,3.14-.16.33-.2-.11-.28.22-.47,2.11-.34,1.66.86,3.21.41.4-.22.57-.68,1.67-.41l-.39.37c1.44.09.84-.52,2.34-.2-.27.14-1.14.08-.92.14,1,.34.7-.2,1.45-.17l.14.35c1.53,0,3.22-.08,4.93,0-.11.1-.41.18,0,.31a27.55,27.55,0,0,1,6.51,1.11l.82-.16c.18,0,.31.19.11.21.77.24.07-.18.47-.22s.57.26.27.3a16.31,16.31,0,0,1,2.73.25,8.59,8.59,0,0,1,2.69.74h-.3c1.08.43,1.42-.22,2.38.33h-.21c1.2.37,2.47.77,3.65,1.19A12.24,12.24,0,0,1,1929,900c.5-.27,2.22,1.14,2.6.66a18.84,18.84,0,0,0,2.53,1.82c.48.26.89,0,1.52.26l-.12.29,1,.11.27.55.6.22c-.22-.13-.41-.37-.34-.43a4.3,4.3,0,0,1,2,1.44l2.19.87c-.11.08-.47-.06-.79-.14,1.25.31,0,.39,1.2.68-.1-.14.16-.13.21-.17a9.53,9.53,0,0,0,2.45,1.44l-.27.1c1.51.88,3.29,1.66,5,2.57-.58-.41-.27-.66.26-.43l.05.4c.43,0-.47-.39.32-.26.63.37.27.56-.16.46l.85.31c0,.11-.21.06-.32.14.42,0,1.24,1,1.87.92v.11c1.77.87,2.63,1.16,4.11,1.81.14-.25.7.06,1.23,0a26.07,26.07,0,0,0,3.51,1.76c1,.23.36-.12.84-.11,0,.26,1.31.75.56.66a30.15,30.15,0,0,0,4.18,1.2c-.19-.18-.43-.31-.27-.34.38.08.81.38.72.48h-.11c2.41.39,5.14,2.36,7.15,2.32h-.11c.67.07,1.33.18,2,.23.88.25-.59.06,0,.37,2.19.08,3.3.86,5.1.93,1.19,1,4.79.89,6.52,1.68l-.07-.19c.5-.09.55.19.89.29,0-.14-.48-.24-.17-.29,4,.47,8.23,1.5,12.33,2.15,1.51.22,1-.82,2.81-.18l-.57.27c3.08-.06,6.22.65,9.23.59-.18.06-.2.16-.49.13a3.69,3.69,0,0,0,2.35,0c.46.07.09.19.37.31.62.2,1.61-.16,1.93.11,0,0-.19.06-.31.07.43-.08,1.92.19,1.55-.12,1.1.23,2.14.06,3,.3.61-.26,1.9.3,2.12-.12-.12.45,1.93.53,2.65.38-.25.11.6.19.31.35.81.06,1.55,0,1.43-.2,1.45.66,3-.2,3.81.56,2.41,0,4.64-.06,6.81,0-.11.44-2.39-.13-2.33.35a32.29,32.29,0,0,1,5.29-.09c.52.09-.31.18-.5.24,2.06-.06,4,.28,5.8.14,0,0-.21.08-.4.1.36,0,.83.12.8-.09l-.35,0c-.56-.33,1.46-.53,1.53-.69-.64.56,1.79.23.79.93.24,0,.54-.11.49-.25.35.05.46.14.09.28,1.3-.06.85-.29,2-.24,0,.1-.25.13-.38.24a4.81,4.81,0,0,1,2.19-.2c-.07,0,.05.14-.25.12,1.7.06,2.91-.42,4.76-.17-.56.41.62.16.71.53l1-.08-.4-.19a20.14,20.14,0,0,1,2.4-.09l-.65.15,1.64-.06-.93-.15c.89-.19-.08-.47,1.08-.36a8.79,8.79,0,0,1,1.33.23h0a3.61,3.61,0,0,1,1.53-.14c.17.12-.14.42,0,.5.43-.32,2-.07,2.59-.42-.18.09-.18.28-.13.32l.36-.26c.41.07.47.11.4.27,1.22,0-.39-.47,1.06-.29-.11,0-.06.06-.29.1,1.45.08,2.8-.21,4.14-.11.4.37-1.17.12-.71.42,1.93-.07,4-.61,5.84-.59l-.34,0c.23-.54,1.4.2,2.32-.1-.22,0-.28.31-.22.25a28.73,28.73,0,0,0,4.51-.64l-.22.16c.76.06,2-.09,2.8-.09.22-.16.69-.19.39-.36,2.57.47,4.7-.92,7-.6-.26,0-.61.22-.4.19l1.86-.42c-.18-.2-.27-.1-.68-.22a2.92,2.92,0,0,1,1.19-.43c-.82.28.06.37.44.44-.07-.06,0-.16,0-.22,1,.25.09-.49,1.47-.42l-.05.13a7.58,7.58,0,0,1,1.47-.42c.27.23-.51.21-.51.43.76-.12,1.4-.75,2.12-.63-.3.14-.76.23-1.06.37a3.05,3.05,0,0,0,1.42,0h-.05l1.3-.12-.34,0c.8-.87,1.89-.5,3.06-1.2-1.14.67-.15.28-.18.6.34,0,.86,0,.73.12.55-.35,1,0,1.8-.59.06.08.64-.15.56.12.76-.27-.22-.12-.18-.26,1.11-.61,2.9-.3,4.49-1.17,1.41-.61,1.59-1,2.88-1.57.5,0-.27.45-.27.45a5.78,5.78,0,0,0,2-.59c-.11.12.05.14.3.18.55-.19.26-.45,1-.53a1.89,1.89,0,0,1-.44.54c.64-.27,1.22-.66,1.85-1,.24.09-.31.39-.51.58.72-.35,1.89-.85,2-1.19l-.51.08c.27-.11.21.17,0,.29-.57.43-1,.25-1,.17l.45-.23c-.67-.36-1.87.77-2.86,1l.27-.52-.88.63c-.25,0-.46-.22,0-.42-.76,0-.57.33-1.24.29-.07,0-.05,0,0-.08l-.64.33c.1-.13-.2-.25.23-.32-1.28.14-1.87.89-2.41.73l.09-.06c-1.65.62-.07.35-1.26,1l-1.06-.51-.09.33c-.18,0-.53.1-.5,0-.6.36.15.1-.19.38-.91-.05-2.31.71-2.61.29-.25.3.85,0,0,.35-.38-.45-1,.37-1.86.27.18-.31.95-.32.12-.4-.38.54-1.55.21-2.19.43,0,.36-1.4.43-2.49.77a3.41,3.41,0,0,0-1.17.07c-.68,0-1.49.12-2,.14l0-.07c-.15.4-1.23.49-2,.69,0-.22.13-.33.53-.49l-.73.11a1.75,1.75,0,0,1-.84.36l.14-.3a13,13,0,0,1-3.2.57c0,.26,1.09.59-.23.92-.06-.14-.14-.37.2-.46a1.61,1.61,0,0,1-.63.13l.51-.3c-.59,0-.28.23-.74.26,0-.19-.36-.1-.31-.26s.41,0,.57-.06a3.49,3.49,0,0,1-1.38-.15c.06.11,0,.27-.35.33-1,.13-.36-.19-.94-.23-.23.16-.86.09-.85.39a.55.55,0,0,1-.47-.17c-.5.19-2.38.23-1.78.51h.14l-.09,0h0c-1.64.42-3.48.1-5.13.36v-.1a23.77,23.77,0,0,0-2.9.41c-.3,0-.7-.15-.58-.27a5.23,5.23,0,0,1-1.94.11c.75-.21-.27-.14.77-.16a5.14,5.14,0,0,0-2.26.12c.35-.26-.75-.3-1.22-.22l.7.17a12,12,0,0,1-1.46,0l.25-.34c-2-.37-3.63.77-5.17.09-.53.23,1.1.17.62.44a14.31,14.31,0,0,1-2.18-.54c-1.27-.19-1.19.48-2.52.35.17.12.33.43-.67.54-.93-.05-1.13-.51-.54-.6.22,0,.32,0,.31.07.31,0,.7-.09.33-.22l-.12.12c-.46-.12-1.73-.12-1.43-.31-.7.09-.3.18.21.26-1.18-.21-1.86-.06-3.08-.21.2.07.37.22.18.21-1.8-.2-.8.2-2,.22-.69-.2.26-.42-1-.31-.74-.14-.15-.32.15-.4a7.87,7.87,0,0,1-2.71-.3l.59-.07a5.84,5.84,0,0,1-.93,0l.32.25c-.34,0-.63-.07-.62-.17-.37.14.25.41-.46.59-.46-.14-1.41.07-1.56-.26,1.45.18-.14-.32,1.09-.31a3.4,3.4,0,0,1-.87,0s.05-.06.14-.08c-1.37-.34-.65.33-2.09.26.2-.17-.31-.35-.55-.33.58,0,.26.32-.27.42-.92-.19-1,0-1.49,0l.55.1c-.2.16-.66.11-1.31.13,0-.14.59-.06.37-.14-.73.27-1.59-.41-2.6-.26-.45-.15,0-.34-.42-.45-1.13.17-1.19-.3-2.37-.2.32.26.38.21-.46.38l1.94,0-1.26.27c.58.05,1.23-.07,1.58,0-.6.16-.54.1-.27.32-.78-.4-1.59.1-2.5-.2l.07-.59c-1.36-.36-2.47.13-4.25-.15l.57.15c-.26.21-1.11,0-1.7,0,.07-.19-.29-.29-.53-.44,0,.15-1.31-.11-1.5.27l-.78-.32c-1.44-.22-1.7.43-3.08.25.43-.18-.19-.37.76-.45-.47,0-.88-.11-.9,0-.26-.14-1.31.16-1.72-.06-.21.07-.29.27-.81.21,0,0,0-.1,0-.1s-.82.06-.39.32c-1.38-.73-4-.29-5.2-.92-1,0-2.25-.06-3.17-.13.07-.05,0-.09.19-.06-1.26-.29-.83.5-2.26.17-.71-.39.78-.11.33-.27-.14-.66-1.75-.06-2.68-.53l.23,0c-.72-.29-1.83.08-3-.08,0,0,.06,0,0-.1a14.76,14.76,0,0,1-3.61.18c.39-.22.54-.08.35-.36-.53,0,.11.42-.94.39-.33-.17-1.07-.38-1.14-.66l1,.09c-.47-.4-1.27-.13-1.78-.25l.08-.14c-1.51-.13-1.58.27-3.19.05l.15.14c-.93.27-.71-.31-1.62-.14l-.22-.42a30.7,30.7,0,0,1-3.14,0,19,19,0,0,1,2.65-.27,8.23,8.23,0,0,0-2.29-.07,1.93,1.93,0,0,1,.76,0,6.93,6.93,0,0,1-2.84.06c.31-.72-3-.65-3.69-1.37-2.07-.05-4-.81-6.31-1.23.71.76-.68-.12-.66.51a2.16,2.16,0,0,1-.8-.18l-1.57-.7c-.35-.26.55,0,.53-.17-1.18-.3-.44-.36-1.19-.7.11.25-.48.21-1.13,0l.88.5c-1.72-.07-1.3-.83-3-.91l.57-.06c-.88-.09-3.11-.83-4.07-.57-.13-.11-.28-.32.1-.27-2-.65-4.62-.8-6.05-1.64l.2-.09c-.38-.09-.74,0-1.15-.25,0-.05.2-.09,0-.16a4.4,4.4,0,0,1-1.52-.34h.47c-1.83-.91-3.07-.7-4.69-1.27.17-.4-1.24-1.17-1.94-1.55l0,0c-2.14-1-3.8-1.34-5.85-2.18-1-1-4-2.32-5.84-3.61.26.23-.21.28-.58.13-.41-.32-1.41-.41-1.14-.73l.16.1c-.16-.54-1.15-.95-1.88-1.36l-.37.41c-1.56-1.72-5.2-2.41-6-3.54-.53-.13-1.13-.4-1.66-.51l.15-.24a26.11,26.11,0,0,0-3.67-1.69l.42,0c-.94-.43-1.51.25-2.4-.08l-.11-.5c-1.68-.61-3.3-1.57-5.11-1.73,0-.06.14-.16.42-.1-.81-.24-3.08-1.16-2.94-.52,0-.18-.4-.32-1-.42s-1.29-.1-1.78-.13l.21-.24a4.29,4.29,0,0,1-2.06.11c-.25-.09-.18-.27.15-.12-.85-.33-.73.09-1.77-.23l.43-.11a2,2,0,0,0-1.39,0c-.59,0-1.71-.36-1.81-.63a1.68,1.68,0,0,1-1.2.11c-.06-.11.14-.14.25-.16-1.51-.37-2.32,0-3.34-.35a.26.26,0,0,0-.16-.19c1.22.16,2.2.29,2.1.3,0-.25-1-.42-.12-.68a11.4,11.4,0,0,1-3.17.15.58.58,0,0,1-.12-.1l.1,0a2.09,2.09,0,0,0-.61,0,5.65,5.65,0,0,0-.79-.13c-.1-.23-1.13-.21-1.63-.25,0,.28-.61.18,0,.46-.08,0,.09,0,.42,0h.21l0,0,1.22.07a1.94,1.94,0,0,1-1.35,0c-.26.16-.55.32-.71.4-.65-.45-1.94-.69-2.11-.94-.76,0-1.65,0-2.47.08a5.36,5.36,0,0,0-2,.45c-.43.06-.49-.16-.65-.24a3.13,3.13,0,0,0,.67-.12c-.86.14-2.54,0-2.73.42-1.08-.13.6-.35-.88-.25l.19-.12c-2.94-.53-4.69,1.1-7.94.53.22,0,.34,0,.39.11-3.7-.07-7.52.91-11.17.81a3.18,3.18,0,0,0-1.73.5l-.25-.27-1,.48c-1.47.44-2.71-.42-4.56.32l.28.17c-.7,0-2.16.41-2.08.16a.48.48,0,0,1-.48.17l0-.16-1.65.5c-1.32.07.12-.65-1.79-.41-.7.16-2,.73-1.67.8s.75,0,.79.15l-.64.17c0,.48-.48,1,1.15,1.12l1.07-.43.39.17-.93.14a1.53,1.53,0,0,0,1.22-.27.72.72,0,0,0,.5.18l1-.59c.16.16-.43.42.31.43.48-.28-.55-.34.28-.59.56.14.42.33,1,.07.1.1,0,.2-.26.28.54-.21,1.46-.25,1.71-.54.59.19,1.86-.31,1.86.14a4.55,4.55,0,0,1,1.44-.55c-.87.64,1.9-.21,1.72.38.63-.56,2.46-.49,3.65-.89a.45.45,0,0,1-.3.12,6.52,6.52,0,0,1,1.35.13c0-.41,1.1-.6,1.66-.89.87.29-.47.5-.17.84-.07-.31,1.43-.46,1.12-.69.66.17.56.06.92.35.07-.5.59-.15,1.1-.49,1,.17.28.44,1.29.21C1883.49,895.2,1882.59,895.44,1882.59,895.44Zm24.28-1h0l-.5,0Zm2,.22-.88-.12c-.06-.1,0-.19.23-.16C1908.13,894.45,1908.61,894.56,1908.9,894.68Zm-4.17-2.34c.34,0,.44,0,.48.11h-.57l-.05,0A.44.44,0,0,1,1904.73,892.34Z"/><path class="cls-21" d="M1904.12,892.66H1904l.19.08.13-.08Z"/><path class="cls-22" d="M414.93,1073.75v0S415,1073.75,414.93,1073.75Z"/><polygon class="cls-22" points="417.63 1074.62 417.6 1074.65 417.63 1074.8 417.63 1074.62"/><path class="cls-22" d="M384.09,1078.19c-.23-.23.29-.37,0-.6C384.08,1077.69,383.82,1078.06,384.09,1078.19Z"/><path class="cls-22" d="M384,1077.59h0l0,0Z"/><path class="cls-22" d="M374.24,1079.68l-.05,0-.05,0Z"/><path class="cls-22" d="M409.49,1074.59a1.12,1.12,0,0,1,.11.25C409.56,1074.64,409.81,1074.55,409.49,1074.59Z"/><path class="cls-22" d="M372,1077.93l.3,0A1.09,1.09,0,0,0,372,1077.93Z"/><path class="cls-22" d="M396.34,1075.16l.06,0S396.35,1075.12,396.34,1075.16Z"/><path class="cls-22" d="M373.14,1077.66a.46.46,0,0,0,.21.15s0,0,0-.08Z"/><path class="cls-22" d="M409.6,1074.84Z"/><path class="cls-22" d="M411.42,1074c-.27,0-.08.38-.12.6-.31.14-.18-.25-.31-.43-.19.12-.31.47-.47.47,0-.06,0-.08,0-.16-.19.31-.64.08-.86.47a.36.36,0,0,1,0-.09,2.12,2.12,0,0,1,.09.5c-.13,0-.21.26-.28,0,.08,0,.07-.1.1-.18l-.12.12c-.15-.33.17-.14.15-.39-.25.13-.52.45-.72.37-.07-.34.44-.15.16-.43l.31.1c-.27-.51.18,0-.07-.53-.4-.06-.43.21-.83.14-.07.19.05.27,0,.47-.54.38-.5-.82-.88-.34-.09.23-.11.66-.41.46l.07-.39c-.38,0-.18.57-.6.33.06-.16.29-.14.23-.19-.27-.29-.17.23-.37.24l-.06-.34c-.4.08-.84.35-1.29.43,0-.1.09-.21,0-.31a2.85,2.85,0,0,1-1.77-.18l-.2.3c-.05,0-.1-.12-.05-.18-.22-.11,0,.18-.1.3s-.17-.16-.1-.25c-.36.26-1.06.56-1.47.26l.07-.09c-.31-.11-.33.61-.63.34l.06-.05c-.68-.11-1.43.17-2-.26-.09.42-.67-.18-.7.42-.4-.29-.29-.4-.84-.58-.15,0-.21.37-.39.43v-.3l-.24.32-.14-.36-.17.08a.25.25,0,0,1,.14.22c-.26.15-.65-.2-.66-.35l-.62.27c0-.12.12-.17.2-.25-.33.32-.07-.32-.37,0,0,.07,0,.19,0,.25a.74.74,0,0,0-.76-.09l.05-.22a14.27,14.27,0,0,0-1.51.15c.19.09.16.46,0,.5l-.07-.32c-.1.2.16.11,0,.37-.2,0-.15-.37,0-.48l-.23.12c0-.09,0-.15,0-.27-.09.2-.42-.31-.55,0l0-.09c-.52,0-.76.14-1.18.17,0,.28-.17.23-.28.46a3.28,3.28,0,0,0-1.06-.23c-.26.15-.06.24-.17.41,0-.25-.41-.2-.23-.4a3.58,3.58,0,0,0-1.14.34c.07.1.14.14.11.23s-.24-.09-.23-.21l0,0c-.61.42-1.55-.62-2,0l0,0-.51.33c-.25,0,.13-.21-.07-.35-.53.48-.92.05-1.36.38-.46-.7-1.29.22-1.85-.17l.05.17c-.1.19-.17-.08-.27-.1,0,.13.16.13.1.24a12.35,12.35,0,0,1-3.4.17c-.41,0-.05.94-.63.63l.07-.35c-.72.56-1.64.33-2.35.83,0-.08,0-.18.08-.2-.22-.19-.61.13-.57.32-.13,0-.07-.16-.16-.24s-.35.39-.49.18c0,0,0-.09.05-.11-.08.13-.51.08-.34.33-.32-.06-.53.25-.8.14-.08.34-.54,0-.48.41-.09-.44-.6-.23-.73,0,0-.15-.2-.1-.17-.3-.21,0-.38.18-.29.4-.51-.44-.67.61-1.05,0a9.83,9.83,0,0,1-1.64.92c-.08-.44.61-.19.47-.64-.48.3-.7.76-1.25.77-.15,0,0-.21.06-.29-.49.3-1,.2-1.45.54,0,0,0-.09.08-.14s-.23,0-.18.18l.08-.07c.21.25-.23.69-.21.85,0-.61-.5,0-.42-.82a.29.29,0,0,0-.06.29c-.1,0-.14-.09-.09-.26-.3.18-.14.37-.44.43,0-.1,0-.15,0-.27-.11.22-.23.44-.5.42,0-.06,0-.13,0-.15-.43.13-.63.67-1.16.59.06-.45-.19-.11-.29-.47l-.23.16.13.16c-.22,0-.37.34-.59.26l.14-.18-.41.15.27.09c-.2.24.11.46-.21.42.05,0-.23,0-.39-.15h0c-.09.14-.18.28-.37.22s0-.41-.08-.48c0,.33-.52.18-.6.53a.65.65,0,0,0,0-.32l0,.27c-.12-.06-.14-.1-.15-.26-.33,0,.18.45-.23.32,0,0,0-.06.06-.11-.4,0-.71.28-1.08.22-.16-.36.29-.15.13-.44-.49.16-1,.6-1.47.58l.09,0c0,.53-.4-.21-.61.07.06,0,0-.3,0-.24-.34,0-.66.23-1.15.43l0-.14c-.21-.1-.53,0-.74-.06-.06.14-.18.13-.09.32-.71-.71-1.23.53-1.85-.1.07,0,.16-.13.1-.13l-.49.15c.05.23.07.14.19.31a.43.43,0,0,1-.32.26c.22-.16,0-.37-.12-.5a1.62,1.62,0,0,1,0,.22c-.27-.4,0,.47-.4.21l0-.12c-.13.06-.25.23-.4.2-.06-.27.14-.13.15-.35-.2,0-.39.52-.58.24.09-.07.21-.07.29-.14-.2-.32-.22-.24-.37-.29h0l-.34-.15.09.08c-.26.7-.52.12-.87.57.35-.42.06-.25.1-.55-.09-.08-.21-.18-.17-.26-.17.24-.26-.2-.5.15,0-.1-.17,0-.12-.26-.21.08,0,.18,0,.3-.34.32-.72-.47-1.21,0-.41.15-.52.47-.91.6-.11-.16.14-.34.14-.34a.45.45,0,0,0-.54-.06c.05-.08,0-.16,0-.27s-.15.33-.33.16a2.24,2.24,0,0,1,.2-.37c-.19.07-.38.22-.58.28,0-.18.15-.24.23-.34-.22,0-.55.07-.66.32l.12.12c-.08,0,0-.23.06-.27.2-.19.24.13.23.23l-.14,0c.05.58.54,0,.8.06l-.16.4.31-.3c.05.11.06.35-.08.39.17.23.19-.13.33.12a.06.06,0,0,1,0,.07l.2-.11c0,.09,0,.3-.1.23.31.26.58-.27.67.06l0,0c.49-.1.08-.3.46-.63l.18.77.07-.3s.14,0,.11.17c.2-.19,0-.14.1-.32.22.3.65-.09.68.39.09-.23-.22-.18,0-.34,0,.53.29-.08.5.16-.08.27-.28.12-.07.37.14-.46.42.11.61,0,0-.36.39-.14.7-.26,0,.13.57.2.86.32v.06c.05-.37.34-.32.55-.4a.46.46,0,0,1-.14.41h.2a.33.33,0,0,1,.23-.23l0,.28c.27,0,.52-.35.88-.18,0-.25-.32-.7,0-.88,0,.13.05.37,0,.43s.1-.12.17-.07l-.13.24c.16.1.07-.2.19-.18,0,.19.11.13.1.29s-.11-.08-.16,0a.53.53,0,0,1,.39.26c0-.11,0-.26.08-.3.27,0,.11.23.28.32,0-.14.23,0,.21-.31.08,0,.1.13.14.21.13-.15.64-.1.46-.4l0,0h0c.42-.33.95.08,1.38-.11v.1c.25-.15.58-.15.74-.39.08,0,.21.16.2.28.19-.1.19-.21.51-.09-.18.2.09.14-.19.15.28,0,.36.2.6-.11-.06.26.25.28.36.18l-.21-.15a.88.88,0,0,1,.39-.05l0,.34c.61.3.86-.85,1.38-.25.1-.25-.32-.11-.24-.4.25,0,.6.43.68.41.37.12.22-.54.59-.48a.45.45,0,0,1,.07-.58c.26,0,.4.43.27.56s-.1,0-.1,0-.17.13-.05.23v-.12c.15.1.48,0,.44.22.17-.15,0-.2-.11-.24.35.11.5-.09.84,0-.06-.06-.14-.18-.08-.19.5,0,.16-.26.47-.38.22.14,0,.43.31.22.22.07.11.29.05.41.25-.29.58,0,.76,0l-.13.12a.39.39,0,0,1,.23-.1l-.14-.22c.1,0,.18,0,.2.11.06-.18-.16-.37,0-.62.15.09.34-.21.45.09-.4,0,.11.3-.2.42a.25.25,0,0,1,.23,0,.07.07,0,0,1,0,.09c.43.2.09-.38.47-.46,0,.19.16.31.22.26-.16,0-.14-.27,0-.44.27.08.23-.16.36-.17l-.15,0c0-.19.13-.19.29-.28,0,.13-.14.12-.06.17.11-.35.49.22.7-.05.15.09.09.32.21.38.24-.29.38.16.64-.1-.14-.21-.15-.15,0-.42l-.47.28.24-.42c-.15,0-.28.22-.38.21.11-.23.11-.17,0-.34.29.3.36-.3.66-.12l.13.57c.42.17.56-.44,1.07-.41l-.18-.06c0-.25.28-.11.41-.23,0,.19.14.24.24.34-.05-.14.34-.07.29-.46l.27.2c.4,0,.3-.65.68-.67-.06.24.13.34-.07.54.12,0,.24,0,.21-.15.1.1.27-.34.42-.18,0-.1,0-.3.14-.32a.15.15,0,0,1,0,.1c0-.1.19-.18,0-.37.51.51,1-.29,1.47.15a5.78,5.78,0,0,1,.79-.33c0,.07,0,.1,0,.09.37.1.08-.6.5-.48.26.26-.16.21,0,.3.2.62.44-.19.77.12l-.05.05c.24.18.42-.34.74-.36a.27.27,0,0,0,0,.1,1.63,1.63,0,0,1,.82-.72c0,.27-.11.16,0,.4.13-.07-.12-.4.14-.53.11.12.33.2.42.46l-.26.07c.2.32.33-.08.48,0v.16c.38-.13.31-.51.74-.57l-.06-.1c.16-.43.23.18.41-.15l.14.37a4.33,4.33,0,0,1,.73-.6c-.1.32-.4.53-.56.73.15,0,.51-.12.55-.33-.05,0-.11.16-.18.11a.8.8,0,0,1,.65-.58c.07.77.82.07,1.14.62.49-.36,1.07-.06,1.68-.17-.3-.56.18,0,.07-.64.14-.06.19,0,.21,0l.49.31c.12.17-.12.15-.09.29.32,0,.16.24.39.37-.07-.21.07-.32.26-.26l-.29-.25c.41-.38.44.46.86.1l-.13.2c.22-.13.85-.07,1-.58.05.07.12.23,0,.28.56,0,1.19-.63,1.64-.35l0,.15c.1,0,.16-.29.3-.15s0,.15,0,.16.26-.28.4-.21l-.11.18c.55.16.81-.47,1.26-.59,0,.44.45.56.67.62v.07c.63,0,1-.42,1.63-.61.38.47,1.24.15,1.84.41-.09-.08,0-.34.11-.39s.37-.32.36.09h-.05c.11.4.39.28.61.29l0-.53c.59.75,1.51-.31,1.84.37.14-.14.31-.14.45-.27v.28a2.66,2.66,0,0,0,1.06,0l-.1.2c.27,0,.33-.82.58-.84l.08.42c.48,0,1,.35,1.42,0,0,.06,0,.19-.09.21.22,0,.87.26.77-.32,0,.38.49,0,.74-.15l0,.28c.21-.36.21-.45.51-.56.07,0,.07.22,0,.15.24.14.18-.27.47-.13l-.1.18c.25,0,.22-.08.35-.29s.47,0,.51.3c0-.15.16-.36.31-.29a.19.19,0,0,1-.06.18c.42.18.6-.34.89-.08,0,.09,0,.14.06.16a2,2,0,0,1-.57,0c0,.26.28.29.08.66.21-.2.55-.64.81-.53a.15.15,0,0,1,0,.08l0,0a.15.15,0,0,0,.17-.05.44.44,0,0,0,.21.07c0,.21.31.1.44.1,0-.28.15-.24,0-.46,0,0,0,0-.11,0l-.06,0v0l-.32,0c.09-.15.2-.27.35-.13.06-.18.12-.37.16-.46.2.38.56.58.62.82.39-.18.94-.17,1.16-.71.11-.08.14.14.19.22s-.14,0-.18.13c.22-.15.68-.1.7-.47.3.15-.13.35.26.26l-.05.12c.84.53,1.18-1.06,2.11-.38-.06,0-.1-.06-.12-.12,1,.23,2-.55,3-.16.29.06.29-.18.43-.39l.1.29.23-.39c.36-.32.83.62,1.25,0l-.1-.18c.19,0,.56-.24.57,0,0,0,0-.22.11-.13l0,.16.39-.36c.37,0,.07.62.59.55.18-.1.44-.56.35-.65a.27.27,0,0,1-.26-.21l.15-.11c-.07-.46-.05-1-.53-1.19l-.23.34-.14-.2.24-.07c-.18-.18-.23,0-.3.17a.4.4,0,0,0-.17-.22l-.19.5c-.07-.18.06-.38-.15-.44-.09.23.21.37,0,.55-.18-.18-.18-.36-.3-.15a.24.24,0,0,1,0-.26c-.11.17-.36.14-.39.4-.19-.22-.47.15-.54-.28a.74.74,0,0,1-.32.42c.15-.56-.5,0-.53-.52-.1.5-.61.31-.89.63,0,0,0-.12.07-.1-.18,0-.26-.15-.38-.23,0,.39-.24.52-.36.78-.27-.35.07-.48,0-.83.05.32-.34.37-.24.62-.19-.21-.16-.09-.28-.41,0,.49-.15.11-.25.42-.28-.21-.12-.44-.37-.26C411.21,1074.18,411.42,1074,411.42,1074Zm-6.36,1.34h0l.14,0Zm-.54,0h.24c0,.1,0,.2-.05.2S404.6,1075.43,404.52,1075.35Zm1.25,1.89c-.09,0-.12,0-.13-.06l.15,0v0C405.79,1077.15,405.78,1077.21,405.77,1077.24Z"/><path class="cls-22" d="M405.91,1076.87l0,0-.05-.06,0,.09Z"/><polygon class="cls-22" points="396.95 1075.01 396.95 1075.08 397 1075.01 396.95 1075.01"/><path class="cls-22" d="M366.9,1079.48l0,0C367,1079.39,367,1079.42,366.9,1079.48Z"/><polygon class="cls-22" points="371.97 1077.93 371.97 1077.94 372 1077.93 371.97 1077.93"/><path class="cls-22" d="M374,1080l-.12-.29C373.78,1079.77,373.85,1080.12,374,1080Z"/><path class="cls-22" d="M379.25,1078.53c.09.14.26.21.32,0C379.45,1078.57,379.3,1078.48,379.25,1078.53Z"/><polygon class="cls-22" points="395.54 1077.56 395.43 1077.67 395.64 1077.58 395.54 1077.56"/><path class="cls-22" d="M203.5,981.2c.07-.06.19-.21.14-.2l-.23.24Z"/><path class="cls-22" d="M203.75,980.61a2.71,2.71,0,0,0-.52.54c.23-.22.15-.12.43-.38,0,0,0,.11-.12.2.06-.06,0,.08.14-.06s.1-.26-.07-.13C203.65,980.72,203.71,980.66,203.75,980.61Z"/><path class="cls-22" d="M201.87,978.44v0A.08.08,0,0,0,201.87,978.44Z"/><path class="cls-22" d="M200.55,977.25s0,0,.06,0A.13.13,0,0,0,200.55,977.25Z"/><path class="cls-22" d="M200.52,976.78v0S200.53,976.76,200.52,976.78Z"/><path class="cls-22" d="M201.87,978.44l0-.11C201.83,978.41,201.87,978.41,201.87,978.44Z"/><path class="cls-22" d="M202.94,981a.15.15,0,0,0,.08-.05l0,0Z"/><path class="cls-22" d="M202.65,978.7h0l.1-.1Z"/><path class="cls-22" d="M203.15,979l-.26.29.14-.13Z"/><path class="cls-22" d="M203.57,980l0,0Z"/><path class="cls-22" d="M202.35,978.39l.06-.08Z"/><path class="cls-22" d="M186.94,972.51l0,0Z"/><polygon class="cls-22" points="186.74 970.97 186.75 970.96 186.8 970.81 186.74 970.97"/><path class="cls-22" d="M200.26,976.16h0S200.28,976.15,200.26,976.16Z"/><path class="cls-22" d="M195.77,973.67c-.07.25-.24.24-.3.53C195.52,974.1,195.75,973.85,195.77,973.67Z"/><path class="cls-22" d="M203,980.94s0,0,0,0Z"/><path class="cls-22" d="M195.47,974.2h0v0Z"/><path class="cls-22" d="M199.09,975.59l-.06.11A.27.27,0,0,0,199.09,975.59Z"/><path class="cls-22" d="M199.67,976.45v0S199.66,976.45,199.67,976.45Z"/><path class="cls-22" d="M198.46,975.66s0-.06,0,0v0S198.47,975.61,198.46,975.66Z"/><path class="cls-22" d="M198,975.39l0,.05h0Z"/><path class="cls-22" d="M188.4,972.88l.07-.24C188.4,972.83,188.31,972.87,188.4,972.88Z"/><path class="cls-22" d="M203,980.85a.24.24,0,0,1-.09.09h0Z"/><path class="cls-22" d="M197.26,977.52l0-.07A.08.08,0,0,0,197.26,977.52Z"/><path class="cls-22" d="M191.69,974.21l0,0Z"/><path class="cls-22" d="M197,977.36a.93.93,0,0,0,.06-.19l0,.06Z"/><path class="cls-22" d="M188.47,972.64Z"/><path class="cls-22" d="M187.75,973.09c.07,0,.16-.33.25-.53s-.06.27-.09.46c.08-.07.24-.37.27-.35a1.31,1.31,0,0,1-.05.15c.16-.25.17,0,.36-.27l0,.09c.05-.18.12-.36.16-.48s.15-.2.07,0c0,0,0,.08-.08.15l.07-.09c-.1.34-.09.1-.18.34.1-.09.28-.33.29-.22-.11.32-.15.07-.19.37l0-.15c-.13.53,0-.05-.18.51.06.13.17-.12.23,0,.09-.17.09-.27.18-.43.27-.26-.19.84.08.46.1-.2.27-.6.26-.36l-.16.35c.08.07.25-.49.26-.21s-.12.08-.12.13c0,.31.12-.18.17-.16l-.11.32c.12,0,.32-.19.46-.21a1,1,0,0,0-.11.29c.2-.1.29.16.35.41l.16-.25a.46.46,0,0,1-.06.18c0,.12.07-.17.14-.27s0,.17-.08.25c.19-.19.48-.38.46-.05l-.06.07c0,.14.33-.52.29-.23l0,0c.12.19.41,0,.36.48.19-.37.09.25.34-.28a1.78,1.78,0,0,0,0,.63s.21-.31.28-.35l-.13.28.2-.27-.13.35.08,0a.51.51,0,0,1,.06-.22c.12-.1.07.27,0,.41l.27-.17a.7.7,0,0,1-.16.2c.22-.25-.12.3.08.08a1.13,1.13,0,0,1,.11-.22c0,.18,0,.22.13.18l-.1.19c.09.1.28,0,.4.08a1,1,0,0,1,.22-.45l-.12.3c.11-.17,0-.13.17-.32,0,.05-.13.34-.2.43l.1-.08c0,.09-.07.13-.13.24.11-.17-.05.34.14,0l0,.09c.13.06.23,0,.34,0,.13-.26.14-.18.27-.37,0,.12,0,.36.12.38s.13-.2.23-.33c-.11.23,0,.25-.14.39.13,0,.16,0,.39-.09a.63.63,0,0,1,.09-.22s0,.12-.06.23v0c.33-.26,0,.84.37.43l0,0,.26-.18c0,.08-.13.16-.16.32.33-.31.18.17.43,0-.28.71.33.12.21.6l.08-.16c.11-.13,0,.11,0,.16.06-.12,0-.16.11-.23.35,0,.38.52.56.8.06.1.51-.76.42-.33l-.2.27c.38-.24.37.23.72,0-.05.06-.1.15-.12.14-.08.22.14.09.24-.08,0,0-.08.16-.12.26s.26-.21.15,0a.22.22,0,0,1-.06.07c.08-.08.1.1.22-.15,0,.15.19,0,.16.14.2-.24,0,.2.28-.16-.24.38-.07.38.08.23-.08.1,0,.14-.15.29,0,0,.14,0,.25-.22-.2.52.42-.25.09.37a1.76,1.76,0,0,1,.69-.17c-.25.37-.17-.06-.42.34.22-.07.51-.35.57-.18s-.13.15-.18.21c.23-.08.21.19.46.06l-.09.08s0,.09.12-.08l0,0c.13-.27.43-.46.52-.58-.36.46,0,.19-.45.77A.67.67,0,0,0,199,978a.46.46,0,0,1-.15.23c.14,0,.23-.23.3-.18s-.09.1-.17.19c.15-.13.29-.27.3-.16s-.07.12-.09.1.47-.31.47-.08c-.28.34,0,.15-.25.46l.12,0,.08-.17s.25-.15.22,0l-.12.1h.13l0-.15c.16-.12.27-.39.28-.26s0,0-.05.24h0c.1-.08.2-.16.18-.06s-.25.33-.29.4c.21-.23.17,0,.4-.23a2.37,2.37,0,0,0-.19.25l.17-.19a.62.62,0,0,1-.14.24c0,.09.25-.4.22-.17l-.07.06c0,.15.25,0,.26.15-.2.32-.12,0-.28.3.15,0,.5-.2.55,0v0c.34-.42-.07.27.13.11a1.09,1.09,0,0,0-.15.18c0,.12.22,0,.44,0l-.1.09c0,.13.07.15.08.23.1-.1.11-.06.22-.23-.33.73.53-.12.26.49,0,0-.11.07-.1.08l.18,0a1.2,1.2,0,0,0,.16-.28c.1-.1.2-.16.22-.13a.87.87,0,0,0-.28.41l.13-.18c-.19.37.3-.35.21-.07l-.08.09c.06,0,.19-.13.2-.08-.15.22-.11.07-.25.24.06,0,.4-.33.28-.09-.07.05-.09,0-.16.07-.15.28-.1.22-.1.29h0v.17l0-.08c.49-.51.19,0,.55-.31-.34.28-.17.18-.36.41a.92.92,0,0,1-.13.24c.19-.16-.06.19.21-.05-.06.08,0,0-.13.23.09,0,.1-.14.18-.24.28-.2-.1.45.29.17.2-.07.43-.31.61-.37a.77.77,0,0,1-.25.25c-.05.15,0,.16.11.1a1.4,1.4,0,0,0-.16.22c.05,0,.25-.25.2-.11l-.28.27c.09,0,.25-.14.34-.18a1.18,1.18,0,0,1-.27.25.63.63,0,0,0,.4-.21l0-.1s-.14.18-.18.21,0-.11.06-.19l.07,0c.34-.46-.17,0-.2-.09l.29-.3-.28.22a1.21,1.21,0,0,1,.26-.31c.09-.19-.13.09,0-.12a.23.23,0,0,1,0-.05l-.12.06c.07-.06.18-.23.17-.17.08-.24-.31.15-.14-.12h0c-.19,0-.2.22-.5.44l.42-.62-.2.22s0-.05.07-.14c-.17.13-.07.11-.22.24.13-.26-.22,0,.07-.39-.16.16-.06.17-.22.25.32-.41-.11,0,0-.2s.14-.05.24-.27c-.31.33,0-.15-.12-.12-.23.28-.18,0-.32.1.08-.1,0-.26,0-.41l0,0c-.23.28-.25.18-.35.2a1.27,1.27,0,0,1,.29-.29l-.05,0a.41.41,0,0,1-.18.13l.18-.2c-.07,0-.32.16-.28,0-.16.2-.38.6-.56.68a1.69,1.69,0,0,1,.28-.33s-.1.07-.07,0l.17-.17c0-.1-.14.15-.15.11s.07-.13.16-.25,0,.08,0,0a.53.53,0,0,1,.1-.3c-.07.09-.16.21-.2.21s.12-.2.15-.31c-.1.1-.05,0-.23.19a1.14,1.14,0,0,1,.11-.19c-.11.08-.16-.08-.32.2v0h0c-.27.16-.1-.29-.28-.26l.06-.08c-.12,0-.17,0-.33.09s.06-.17.14-.26c-.09,0-.16.11-.13-.07s.08-.14.12-.07c0-.11.07-.25-.15-.08.17-.18.14-.29.07-.24l-.06.17c-.06,0-.07,0-.09-.07l.21-.26c.12-.41-.62.4-.32-.21-.17.16,0,.18-.21.38,0-.08.19-.51.17-.52,0-.21-.36.34-.36.18a1.12,1.12,0,0,1-.36.42c0-.07.22-.45.31-.51s0,0,0,.07a.25.25,0,0,0,.15-.17l-.08.1c0-.12,0-.17.09-.31a.22.22,0,0,0-.13.22c0-.2-.11-.09-.12-.24,0,.07-.1.19-.11.18,0-.2-.18.15-.28.14.06-.18.26-.34.1-.27a.69.69,0,0,1,.24-.33c-.2.14,0-.21-.06-.28l.09,0c-.05,0-.07,0-.09,0l-.11.21a.2.2,0,0,1,0-.15,4.2,4.2,0,0,1-.37.49c0-.12-.16,0,0-.22,0,.15.17-.27.27-.26s-.05,0-.05,0l.06-.07c.07-.29-.24.27-.33.21.11-.14.17-.3.14-.28s-.15.26-.26.35c0-.15-.12,0-.14,0v.08c-.11.14-.13.1-.2.12s.09-.06.11-.12c-.22.23.08-.33-.1-.2,0-.12.18-.28.2-.36-.19.14.06-.25-.12-.14a.66.66,0,0,1-.25.32l.21-.06-.27.24s.16-.08.16,0a.6.6,0,0,0-.2.27c.15-.33-.21.11-.13-.13l.32-.49c.06-.28-.32.15-.35,0l0,.11c-.14.18-.09,0-.17,0a1.58,1.58,0,0,0,.17-.36c-.07.13-.07-.06-.29.27l.09-.26c0-.14-.41.41-.46.3.14-.17.18-.31.32-.4,0,0,0-.07-.11,0,0-.12-.22.17-.15,0-.06.07-.17.24-.2.21l.05-.09c-.05.09-.12.08-.2.29.23-.58-.28-.12-.08-.62a.68.68,0,0,1-.28,0c0-.05.06-.09.06-.06,0-.21-.35.45-.33.22s.14-.12.17-.24c.32-.56-.16,0,0-.35l0,0c.07-.22-.24.14-.29.06l0-.09a1,1,0,0,1-.5.33,1.46,1.46,0,0,0,.22-.33c-.06,0-.2.36-.31.39a2.06,2.06,0,0,1,.2-.51l.07,0c.15-.32-.09,0-.09-.11l.08-.13c-.12,0-.32.33-.41.24l-.05.11c-.25.31.06-.22-.14,0l.18-.35a1.92,1.92,0,0,1-.42.28,2.58,2.58,0,0,1,.47-.44s-.14-.05-.26.11c0,0,.1-.1.09,0-.2.24-.34.34-.41.29.39-.66-.1-.28.14-.83-.28.18-.21-.25-.39-.3-.23.56-.06,0-.34.54-.05,0-.06,0-.05,0l.07-.38c.06-.17.1-.1.16-.23s.09-.24.11-.41c-.09.19-.17.26-.18.16l-.07.28c-.27.23.15-.5-.12-.28l.13-.15c-.11.07-.22-.12-.5.29,0-.07.08-.23.13-.25-.11-.14-.55.3-.52,0l.08-.13s-.18.23-.14.07.08-.12.07-.14-.19.2-.18.11l.1-.14c-.05-.24-.39.26-.55.29a.94.94,0,0,0,.13-.67l0-.05c-.14-.13-.44.19-.66.28.11-.48-.23-.33-.26-.65a.81.81,0,0,1-.2.34c0-.1-.22.23,0-.13h0c.15-.37,0-.31,0-.35l-.24.48c.18-.77-.5.08-.29-.58-.1.1-.14.08-.23.18l.12-.25c-.07-.11-.11-.17-.26-.16l.11-.18c-.06,0-.42.71-.49.7l.15-.4c-.12-.05-.09-.44-.37-.14,0-.05.08-.17.11-.17s-.11-.36-.32.18c.15-.35-.11-.08-.24,0l.12-.25c-.2.3-.23.39-.35.45s.07-.21.07-.14c0-.16-.15.23-.17.06l.1-.15c-.06-.05-.09,0-.2.22s-.09-.12,0-.35c-.06.13-.18.31-.18.23a.68.68,0,0,1,.08-.17c0-.22-.28.24-.25,0a.8.8,0,0,0,0-.16c.08,0,.15.08.13.1a2.85,2.85,0,0,1,.23-.62c-.12.16-.37.51-.4.38l0-.09,0,0s0,0-.06,0,0-.08,0-.1c.07-.2,0-.13-.06-.16-.1.27-.13.21-.18.44a0,0,0,0,1,.05,0l0,0v0h.09c-.08.13-.15.23-.13.07l-.21.4c.1-.38.09-.61.16-.84-.16.1-.28,0-.54.46-.05.06,0-.15,0-.23s.06,0,.09-.1c-.1.11-.19,0-.34.32,0-.18.17-.3,0-.28l.06-.1c0-.63-.66.76-.62,0a.32.32,0,0,1,0,.13c-.14-.4-.62.1-.7-.48,0-.13-.12.09-.23.25l.09-.29-.19.3c-.19.21,0-.76-.24-.35l0,.2c0-.06-.2.06-.11-.16,0,0-.09.2-.07.09l.05-.15-.21.22c-.05-.14.21-.6.09-.67a1.31,1.31,0,0,0-.3.5s0,.11,0,.26l-.07.06a4.08,4.08,0,0,0-.32,1.23l.16-.25,0,.23h-.07c0,.21.05,0,.12-.07a.76.76,0,0,0,0,.25l.21-.4a2.24,2.24,0,0,0-.13.44c.1-.18.1-.4.2-.51,0,.22-.1.38,0,.22a.77.77,0,0,1-.09.23c.08-.12.12,0,.21-.25,0,.26.15,0,0,.39a1,1,0,0,1,.22-.31c-.24.48.12.07-.08.6.2-.43.23-.14.4-.36,0,0-.05.1-.05.08s0,.19,0,.29a2.89,2.89,0,0,1,.36-.64,6.43,6.43,0,0,1-.29.77c.1-.3.2-.27.27-.52a1.81,1.81,0,0,1-.08.43c.17-.46.06-.06.2-.33,0,.25-.14.44,0,.32A.66.66,0,0,1,187.75,973.09Zm1.94-.17Zm.14.05-.06,0c0-.09.08-.18.09-.17A.62.62,0,0,0,189.83,973Zm.43-1.93s0,0,0,.08l0,0v0Z"/><path class="cls-22" d="M190.08,971.37h0v.07l0-.08Z"/><path class="cls-22" d="M201.86,978.49h0l0,0Z"/><polygon class="cls-22" points="191.48 974.27 191.51 974.2 191.47 974.25 191.48 974.27"/><path class="cls-22" d="M201.93,979.76l0,.06Z"/><path class="cls-22" d="M202.16,980l0,.11A.31.31,0,0,0,202.16,980Z"/><path class="cls-22" d="M202.29,980.3l.08-.09h0Z"/><path class="cls-22" d="M198.64,978h0Z"/><path class="cls-22" d="M200.06,978.21l-.11.09S200,978.34,200.06,978.21Z"/><polygon class="cls-22" points="197.26 977.53 197.27 977.53 197.26 977.52 197.26 977.53"/><path class="cls-22" d="M199.91,978.26c0,.06,0,.06,0,0S200,978.23,199.91,978.26Z"/><path class="cls-22" d="M203.11,981.15v0l0,0Z"/><path class="cls-22" d="M203.14,981.13h0S203.17,981.11,203.14,981.13Z"/><path class="cls-22" d="M203.25,981.08l-.07,0S203.19,981.14,203.25,981.08Z"/><path class="cls-22" d="M202.92,980.82l-.07.08Z"/><path class="cls-22" d="M202.82,980.77s-.09.21,0,.19l0-.06C202.74,981,203,980.66,202.82,980.77Z"/><path class="cls-22" d="M203.26,979.5l0,.13c.06-.1.14-.22.19-.22C203.58,979.09,203.33,979.62,203.26,979.5Z"/><path class="cls-22" d="M203.14,979.2c.07,0,.09-.12.13-.17A.25.25,0,0,0,203.14,979.2Z"/><path class="cls-22" d="M201.47,977.91l.16-.2C201.57,977.72,201.57,977.79,201.47,977.91Z"/><polygon class="cls-22" points="200.37 978.75 200.31 978.9 200.46 978.72 200.37 978.75"/><polygon class="cls-22" points="201.25 977.13 201.28 977.11 201.17 977.15 201.25 977.13"/><path class="cls-22" d="M198.23,975.23l-.16.27C198.13,975.47,198.32,975.17,198.23,975.23Z"/><path class="cls-22" d="M196.75,974.72c.06-.15.08-.26,0-.14S196.71,974.74,196.75,974.72Z"/><polygon class="cls-22" points="192.9 972.13 192.97 972.05 192.88 972.11 192.9 972.13"/><path class="cls-22" d="M1784.24,1076.89c.06,0,.1,0,.12,0S1784.25,1076.86,1784.24,1076.89Z"/><path class="cls-22" d="M1783.26,1075.75l.06.07S1783.29,1075.74,1783.26,1075.75Z"/><path class="cls-22" d="M1724.81,1038.72l0,0S1724.79,1038.7,1724.81,1038.72Z"/><polygon class="cls-22" points="1722.78 1035.71 1722.82 1035.72 1722.92 1035.6 1722.78 1035.71"/><path class="cls-22" d="M1781.28,1073.92h0C1781.37,1073.94,1781.33,1073.92,1781.28,1073.92Z"/><path class="cls-22" d="M1761,1060.09c.09.36-.55,0-.36.47C1760.69,1060.45,1761.22,1060.42,1761,1060.09Z"/><path class="cls-22" d="M1760.66,1060.56h0l0,0Z"/><path class="cls-22" d="M1776.15,1070.52a.34.34,0,0,0,0,.14A.41.41,0,0,0,1776.15,1070.52Z"/><path class="cls-22" d="M1779.67,1073.48l-.07-.1A.29.29,0,0,0,1779.67,1073.48Z"/><path class="cls-22" d="M1774,1069.48s0-.1-.13-.11a.06.06,0,0,0,0,0S1773.94,1069.4,1774,1069.48Z"/><path class="cls-22" d="M1771.93,1068.07s0,0,0,.07l.07,0Z"/><path class="cls-22" d="M1731.16,1042.75a1.26,1.26,0,0,1,0-.27C1731.13,1042.67,1730.78,1042.53,1731.16,1042.75Z"/><path class="cls-22" d="M1772.62,1071.24l-.3-.26A1.31,1.31,0,0,0,1772.62,1071.24Z"/><path class="cls-22" d="M1745.94,1052.6l-.09,0A.06.06,0,0,0,1745.94,1052.6Z"/><path class="cls-22" d="M1771.34,1070.35a.62.62,0,0,0-.08-.29l-.07,0Z"/><path class="cls-22" d="M1731.2,1042.48Z"/><path class="cls-22" d="M1728.68,1041.6c.3.22.34-.2.53-.34.43.16,0,.35,0,.59.29.07.65-.09.82,0,0,.06,0,.1-.08.14.41-.08.74.47,1.23.36a.16.16,0,0,1,0,.1,1.64,1.64,0,0,1,.24-.46c.14.09.39,0,.31.22-.08-.06-.14,0-.23,0h.21c-.06.37-.27,0-.41.18.35.09.84.08,1,.3-.15.32-.58-.24-.45.2l-.27-.33c0,.62-.19-.17-.27.47.4.38.6.19,1,.56.2-.09.12-.25.33-.34.82.14,0,1,.74,1,.24-.1.53-.43.73,0l-.32.24c.41.32.55-.29.86.23-.17.07-.41-.12-.37,0,.12.44.32,0,.55.1l-.14.32c.49.26,1.13.39,1.67.68-.08.07-.23.1-.17.26a5.29,5.29,0,0,1,1.86,1.53l.39-.08a.11.11,0,0,1-.06.18c.18.26.12-.14.3-.16a.14.14,0,0,1,0,.27c.56.08,1.51.37,1.78.93l-.14,0c.29.33.73-.24.9.21h-.09c.69.61,1.68,1,2,1.7.35-.27.65.67,1,.21.27.53.09.54.59,1.11.14.13.44-.14.68-.06l-.17.26.46-.08-.07.4.24.06a.23.23,0,0,1,0-.29.8.8,0,0,1,.51.8l.84.25c-.08.09-.22.05-.36.05.55,0-.11.32.39.31,0-.09.12-.14.17-.18.06.27.45.53.78.66l-.18.14c.49.39,1.14.65,1.72,1a.27.27,0,0,1,.29-.41l-.11.32c.22-.09-.11-.22.25-.27.2.17-.06.4-.25.41l.33.08c0,.09-.13.09-.22.18.23-.09.27.58.63.4l0,.09c.57.39.9.48,1.38.78.16-.23.31,0,.58-.14a5.51,5.51,0,0,0,1,1c.37.08.22-.14.45-.19-.13.23.3.49,0,.49a5.9,5.9,0,0,0,1.42.66c0-.14-.06-.23,0-.27a.24.24,0,0,1,.11.35h0c.92.16,1.21,1.73,2.07,1.67h0l.74.17c.24.23-.27,0-.16.32.87.08,1,.73,1.64.86,0,.89,1.45.93,1.72,1.7l.07-.17c.24-.05.11.2.19.31.06-.13-.06-.24.08-.26a17.79,17.79,0,0,1,3.42,2.87c.42.35.78-.58,1.09.16l-.34.16c1.12.29,1.82,1.27,2.89,1.61-.1,0-.16.1-.24,0,.05.33.68.49.79.33.12.11-.07.17,0,.31s.64.07.6.33c0,0-.1,0-.14,0,.19,0,.55.42.59.11.25.34.7.34.86.65.35-.13.48.52.79.2-.29.35.36.7.69.67-.14.06.1.24-.09.34.24.16.51.24.6,0,.13.75,1.12.26,1,1a18,18,0,0,1,2.28,1c-.28.36-.72-.45-1,0,.71.27,1.28.19,1.81.7.12.15-.2.1-.3.12.71.27,1.14.85,1.81,1a.25.25,0,0,1-.18,0c.11.06.2.23.31,0l-.14,0c0-.36.78-.21.89-.33-.52.36.44.49-.27.9a.28.28,0,0,0,.3-.12c.07.1.06.19-.13.25.44.17.43-.1.77.14-.06.08-.15.06-.25.13a.81.81,0,0,1,.8.2s-.06.13-.14.06c.51.33,1.13.17,1.57.71-.41.24.1.24-.09.57l.36.11v-.23c.25.19.63.13.78.38h-.28l.52.28-.19-.3c.37,0,.25-.41.52-.08-.09,0,.26.18.26.45h0c.2,0,.4,0,.53.19s-.27.31-.29.4c.31-.17.65.35,1,.19a.43.43,0,0,0-.22.23l.25-.13c.07.15.06.19,0,.31.33.29.17-.47.47,0,0,0,0,0-.14,0,.36.39.91.45,1.22.83-.1.38-.39-.17-.44.18a9.64,9.64,0,0,1,1.91.92l-.08-.11c.39-.38.26.5.67.49-.09,0-.25.18-.2.14a4.14,4.14,0,0,0,1.49.7l-.15.06c.15.26.54.47.74.69.15-.06.27,0,.3-.17.28,1.15,1.63.65,1.9,1.64-.08,0-.25,0-.19,0l.62.29c.09-.22,0-.17,0-.39a.53.53,0,0,1,.5.06c-.34-.06-.21.3-.18.48,0-.07.1-.11.14-.17,0,.54.31-.35.55.16l-.1.08c.19.06.42,0,.55.17-.09.26-.23,0-.36.16.23.14.73-.1.77.26-.13,0-.27-.1-.41-.11,0,.41.11.36.25.52l0,0,.3.39,0-.14c.68-.37.64.3,1.28.2-.62.09-.21.16-.41.39,0,.13.14.31,0,.35.31-.07.18.37.64.26,0,.09.18.14,0,.31.27.1,0-.17.13-.26.55,0,.6.93,1.37.92.55.16.83,0,1.33.12,0,.22-.32.2-.32.2a.76.76,0,0,0,.59.44c-.09,0-.09.13-.09.26.18.1.32-.21.46.07a1.36,1.36,0,0,1-.4.2c.25.07.55.06.81.14,0,.17-.27.12-.41.15.27.11.68.31.91.14l-.09-.18c.09,0-.09.22-.18.21-.32,0-.23-.28-.18-.37l.18.06c.18-.57-.64-.35-.92-.59l.37-.25-.5.07c0-.14.09-.36.27-.3-.09-.32-.27,0-.32-.33,0,0,0-.06.05-.06l-.28,0c.09-.05.14-.27.23-.13-.23-.46-.78-.17-.73-.53h.05c-.6-.25-.23.22-.83.23l.19-.8-.23.21s-.14-.14,0-.22c-.32,0,0,.13-.27.21-.09-.41-.78-.4-.55-.84-.23.13.14.32-.23.26.23-.48-.37-.15-.46-.51.23-.17.37.1.27-.26-.4.27-.39-.41-.64-.48-.22.29-.51-.18-.91-.32.09-.08-.5-.6-.73-.93l0,0c-.27.26-.55,0-.82-.13a.41.41,0,0,1,.41-.2l-.22-.16a.44.44,0,0,1-.39,0l.22-.19c-.3-.19-.77-.15-1-.56-.17.19-.12.79-.62.65.07-.13.19-.33.33-.3,0,0-.19,0-.22-.09l.29-.08c-.11-.2-.2.1-.32,0,.11-.15,0-.18.09-.3s.07.16.17.13a.77.77,0,0,1-.23-.53c0,.1-.15.22-.28.16-.29-.2,0-.27-.07-.47-.15.06-.25-.18-.42,0-.09-.06,0-.18,0-.27-.22,0-.72-.46-.73-.09l0,.05h0c-.66-.11-.92-.86-1.47-1.1l0-.08c-.35-.12-.68-.41-1-.38a.25.25,0,0,1,0-.36c-.27-.1-.36,0-.58-.39.32,0,0-.18.3.06-.24-.27-.21-.45-.68-.45.25-.13,0-.41-.21-.45l.09.29a1.6,1.6,0,0,1-.42-.3l.27-.22c-.36-.75-1.46-.19-1.52-1.06-.29.08.22.36-.07.48-.25-.23-.25-.82-.34-.88-.26-.41-.63.15-.94-.23a.37.37,0,0,1-.51.31c-.25-.22-.05-.64.18-.6.07,0,.08.1,0,.13s.26.06.23-.12l-.11.07c-.06-.19-.44-.44-.24-.54-.27,0-.2.1-.09.25-.25-.38-.54-.39-.83-.73,0,.09,0,.24-.07.2-.44-.49-.36,0-.74-.19-.1-.29.32-.3-.13-.43-.15-.25.13-.29.28-.31-.46,0-.53-.55-.69-.72l.23.05a.82.82,0,0,1-.31-.15l0,.26c-.07-.1-.16-.16-.1-.24-.19,0-.15.38-.48.4-.06-.19-.48-.18-.35-.47.37.39.14-.29.53-.08a.44.44,0,0,1-.26-.18.07.07,0,0,1,.09,0c-.24-.52-.39.16-.81-.15.16-.1.1-.34,0-.36.17.13-.09.3-.32.3-.19-.3-.36-.12-.49-.23l.13.17c-.16.1-.28,0-.5-.1.06-.12.22,0,.19,0-.39.11-.29-.6-.7-.63-.06-.2.18-.28.11-.43-.46,0-.22-.45-.67-.54,0,.27,0,.23-.36.25l.66.26-.56,0c.17.12.44.13.52.23-.28,0-.23,0-.26.23,0-.46-.58-.16-.72-.54l.35-.48c-.25-.5-.89-.26-1.34-.75l.12.2c-.21.15-.35-.2-.57-.24.12-.15.06-.28.06-.43-.08.12-.38-.28-.66,0l-.08-.38c-.37-.39-.81.12-1.18-.22.25-.09.14-.34.5-.27-.13-.1-.24-.21-.32-.1,0-.16-.53,0-.54-.29-.11,0-.25.19-.39.07a.11.11,0,0,1,0-.08c0,.08-.31-.06-.3.21-.07-.8-1.21-.78-1.27-1.47a8,8,0,0,1-1-.53s0-.08.09,0c-.27-.41-.55.31-.86-.16,0-.41.33,0,.26-.17.31-.58-.57-.29-.64-.8l.1,0c-.1-.33-.68-.17-1-.46a.14.14,0,0,0,.06-.08,2.42,2.42,0,0,1-1.36-.29c.25-.13.23,0,.32-.26-.18-.07-.19.37-.54.22,0-.18-.18-.44,0-.68l.3.19c.05-.4-.39-.26-.5-.41l.1-.12c-.47-.26-.7.06-1.16-.3l0,.13c-.48.14-.1-.33-.52-.27l.14-.38a6,6,0,0,1-1.17-.26,3.18,3.18,0,0,1,1.11,0c-.17-.12-.6-.38-.8-.28.09,0,.24,0,.27.1a1.22,1.22,0,0,1-1.09-.2c.5-.59-.78-.78-.69-1.43-.76-.19-1.13-.93-1.86-1.38-.09.67-.22-.12-.52.41-.19-.08-.24-.13-.23-.17l-.3-.65c0-.22.24,0,.3-.12-.33-.29,0-.32-.15-.62-.08.22-.3.17-.46,0l.13.43c-.69-.07-.15-.72-.83-.8l.26,0c-.32-.08-.95-.66-1.49-.43,0-.09,0-.27.17-.23-.58-.48-1.68-.51-2-1.09l.13-.09c-.14,0-.36.09-.42-.13,0,0,.13-.09.08-.14s-.46,0-.56-.17l.23,0c-.5-.57-1.17-.29-1.73-.56.25-.36-.15-.8-.35-1l0,0a7.25,7.25,0,0,0-2.16-.82c-.14-.67-1.26-1.1-1.77-1.77.06.14-.21.28-.35.24s-.59,0-.34-.36l.05,0c.1-.41-.27-.54-.51-.71l-.34.41c-.21-1.08-1.85-.91-1.81-1.72-.23,0-.43-.13-.65-.12l.16-.23a4.49,4.49,0,0,0-1.16-.83l.23-.09c-.29-.22-.84.42-1.13.24l.16-.4c-.53-.35-.86-1-1.59-1.05,0,0,.12-.14.22-.09-.24-.18-.8-.88-1-.34.2-.32-.52-.4-.9-.45l.2-.2c-.44.14-.5.21-.89.07-.06-.08.05-.23.12-.1-.18-.3-.35.08-.59-.26l.22-.07c-.26-.2-.3-.1-.56,0a.55.55,0,0,1-.38-.64c-.12.1-.38.17-.5,0s.12-.1.17-.11c-.35-.46-.86-.18-1-.61a.29.29,0,0,0,0-.18,5.64,5.64,0,0,1,.6.45c.14-.21-.13-.44.3-.58-.34,0-1,.09-1.19-.21a.31.31,0,0,1,0-.09h.05a.28.28,0,0,0-.21-.08.87.87,0,0,0-.19-.23c.08-.2-.27-.31-.41-.42-.15.24-.31.08-.26.39,0,0,0,0,.15,0a.11.11,0,0,0,.08,0l0,0,.38.22c-.2,0-.39.06-.46-.17-.18.1-.36.2-.46.24,0-.46-.25-.89-.16-1.13-.54-.17-1.11-.61-1.68-.36-.17,0-.07-.22-.07-.33s.19.07.27,0c-.33-.06-.78-.46-1-.19-.23-.35.36-.17-.11-.41l.12,0c-.54-1.07-1.92-.15-2.46-1.41,0,.08.06.12,0,.18-.91-1-2.42-1.23-3.21-2.38-.25-.29-.41-.12-.7-.09l.1-.3-.51.08c-.59-.09-.38-1.14-1.22-1.11l0,.22c-.18-.17-.72-.33-.55-.51,0,0-.19.14-.21,0l.08-.13-.65-.11c-.33-.35.4-.48-.15-.89-.25-.09-.86,0-.84.13a.3.3,0,0,1,.08.36l-.24-.06c-.29.37-.7.67-.4,1.26l.49,0,0,.26-.29-.18c.05.29.25.2.44.16a.39.39,0,0,0,0,.3l.57-.15c-.06.17-.35.2-.18.43.27-.07.08-.44.4-.38.05.28-.09.39.19.36a.19.19,0,0,1-.22.15c.24,0,.47.24.7.09,0,.33.6.32.34.67a1.07,1.07,0,0,1,.64,0c-.57.26.56.41.17.83.47-.26.87.32,1.38.34,0,0-.13.05-.14,0,.18.17.16.33.24.49.25-.31.62-.17.92-.26,0,.49-.4.29-.52.64.16-.27.61,0,.67-.25.06.32.1.2,0,.54.31-.38.23,0,.55-.09.15.38-.18.43.21.51C1729.05,1041.64,1728.68,1041.6,1728.68,1041.6Zm7.76,4.14h0l-.16-.09Zm.61.41a2,2,0,0,0-.26-.19c0-.09.11-.16.17-.12S1737,1046,1737.05,1046.15Zm-.21-2.49c.12,0,.12.1.1.16l-.19-.09,0,0A.53.53,0,0,1,1736.84,1043.66Z"/><path class="cls-22" d="M1736.46,1043.85h0a.3.3,0,0,0,0,.1l.08,0Z"/><polygon class="cls-22" points="1745.18 1052.26 1745.22 1052.2 1745.13 1052.22 1745.18 1052.26"/><path class="cls-22" d="M1778.67,1075.07l-.05,0C1778.49,1075,1778.57,1075.06,1778.67,1075.07Z"/><path class="cls-22" d="M1784.25,1078.2a.64.64,0,0,1-.24,0C1784.09,1078.28,1784.16,1078.33,1784.25,1078.2Z"/><polygon class="cls-22" points="1772.65 1071.27 1772.65 1071.27 1772.62 1071.24 1772.65 1071.27"/><path class="cls-22" d="M1783.77,1078a.32.32,0,0,0,.24.17A.51.51,0,0,0,1783.77,1078Z"/><path class="cls-22" d="M1788.71,1080.06l.17-.2C1788.7,1079.78,1788.82,1079.94,1788.71,1080.06Z"/><polygon class="cls-22" points="1786.48 1077.86 1786.56 1077.88 1786.25 1077.77 1786.48 1077.86"/><path class="cls-22" d="M1772.44,1068.11l-.14.3C1772.44,1068.43,1772.66,1068.16,1772.44,1068.11Z"/><path class="cls-22" d="M1766.19,1064.17c0-.17-.09-.37-.28-.32C1766,1064,1766.1,1064.16,1766.19,1064.17Z"/><polygon class="cls-22" points="1748.22 1051.26 1748.4 1051.26 1748.12 1051.17 1748.22 1051.26"/><path class="cls-22" d="M1655.41,944.59c-.08,0-.22.17-.13.21l.29-.17Z"/><path class="cls-22" d="M1655.34,945.43a1.06,1.06,0,0,0,.67-.38c-.31.14-.23,0-.59.2-.08,0,0-.18.08-.25-.08,0,0-.15-.22,0s0,.37.23.34C1655.48,945.36,1655.39,945.39,1655.34,945.43Z"/><path class="cls-22" d="M1660.92,952v-.06S1660.91,952,1660.92,952Z"/><path class="cls-22" d="M1664.79,955.65a.07.07,0,0,0-.09,0S1664.78,955.68,1664.79,955.65Z"/><path class="cls-22" d="M1665.26,956.52l0,0S1665.23,956.53,1665.26,956.52Z"/><path class="cls-22" d="M1660.92,952l0,.18C1661,952.07,1661,952,1660.92,952Z"/><path class="cls-22" d="M1656.72,945.77a.22.22,0,0,0-.11,0,.11.11,0,0,1,.07,0Z"/><path class="cls-22" d="M1659,950.52l0,0-.12.07Z"/><path class="cls-22" d="M1657.74,949.27s.23-.15.33-.23c-.1.07-.16.09-.2.07Z"/><path class="cls-22" d="M1656.14,946.83h0Z"/><path class="cls-22" d="M1659.92,951.48l-.06.08A.21.21,0,0,0,1659.92,951.48Z"/><path class="cls-22" d="M1704.53,972.84v0S1704.54,972.84,1704.53,972.84Z"/><polygon class="cls-22" points="1706.29 974.62 1706.26 974.63 1706.22 974.79 1706.29 974.62"/><path class="cls-22" d="M1666.35,957.84h0S1666.32,957.84,1666.35,957.84Z"/><path class="cls-22" d="M1679.34,966.15c0-.3.4-.14.31-.51C1679.61,965.74,1679.23,965.91,1679.34,966.15Z"/><path class="cls-22" d="M1656.73,945.83l0,.06S1656.75,945.84,1656.73,945.83Z"/><path class="cls-22" d="M1679.65,965.64h0v0Z"/><path class="cls-22" d="M1669.55,960a.93.93,0,0,0,0-.13A.28.28,0,0,0,1669.55,960Z"/><path class="cls-22" d="M1667.48,958l0,.08A.15.15,0,0,0,1667.48,958Z"/><path class="cls-22" d="M1671,960.59s0,.08.07.08a.08.08,0,0,0,0,0S1671,960.65,1671,960.59Z"/><path class="cls-22" d="M1672.28,961.45v-.06h0Z"/><path class="cls-22" d="M1700,971.91a1.13,1.13,0,0,1,0,.26C1700.05,972,1700.28,972,1700,971.91Z"/><path class="cls-22" d="M1656.61,945.88a.19.19,0,0,1,.12,0l0,0Z"/><path class="cls-22" d="M1672.31,958.81l.17.17A.69.69,0,0,0,1672.31,958.81Z"/><path class="cls-22" d="M1689.68,968.5h.07A.06.06,0,0,0,1689.68,968.5Z"/><path class="cls-22" d="M1673.1,959.34a.48.48,0,0,0,0,.24l.07-.05Z"/><path class="cls-22" d="M1700,972.18h0Z"/><path class="cls-22" d="M1701.72,971.92c-.22-.06-.19.32-.29.52-.29,0,0-.3-.1-.5-.19,0-.4.35-.52.3s0-.09,0-.15c-.25.24-.53-.12-.83.18v-.09a2.94,2.94,0,0,1-.1.5c-.1,0-.25.17-.22-.07.06,0,.09-.07.14-.14l-.14.08c0-.36.18-.08.24-.33-.23.06-.54.28-.68.14.06-.33.4,0,.27-.36l.21.19c0-.57.14.07.12-.53-.29-.17-.41.09-.69-.1-.12.16-.05.28-.18.44-.54.19-.12-.93-.57-.59-.14.19-.3.59-.47.3l.19-.34c-.29-.13-.33.48-.58.13.1-.13.28,0,.25-.11-.13-.35-.21.17-.37.12l.06-.33c-.34,0-.77.08-1.15,0,.05-.09.15-.17.09-.3a1.92,1.92,0,0,1-1.32-.68l-.25.23s0-.16,0-.19c-.13-.17-.07.17-.19.25s-.07-.2,0-.27c-.38.14-1,.22-1.23-.19l.09-.06c-.2-.19-.48.47-.61.14l.06,0c-.49-.3-1.17-.25-1.41-.83-.22.37-.44-.38-.69.16-.19-.39-.07-.45-.41-.8-.1-.07-.3.28-.47.28l.11-.29-.3.23,0-.38-.15,0a.27.27,0,0,1,0,.25c-.25,0-.41-.39-.36-.54l-.57,0c.05-.11.15-.12.24-.17-.37.2.08-.31-.26-.14,0,.08-.09.16-.12.22,0-.22-.3-.34-.52-.35l.12-.18a10.64,10.64,0,0,0-1.17-.41c.1.15-.08.48-.21.46l.09-.32c-.16.15.07.16-.18.32-.14-.1,0-.38.18-.44l-.23,0c0-.09.09-.12.15-.23-.15.16-.17-.43-.42-.16l0-.09c-.39-.17-.61-.15-.93-.28-.13.26-.23.14-.42.31-.19-.2-.35-.52-.64-.64-.25,0-.16.19-.32.3.1-.24-.19-.36,0-.45a2.3,2.3,0,0,0-1-.19c0,.12,0,.19,0,.25s-.13-.18-.06-.29h0c-.64.11-.75-1.2-1.36-.92h0l-.51,0c-.16-.14.19-.11.14-.33-.61.16-.62-.41-1.1-.34.11-.81-1-.46-1.07-1.08l-.07.17c-.17.1-.06-.15-.1-.22-.06.12,0,.19-.09.24-.88-.23-1.43-1.15-2.12-1.74-.26-.22-.64.68-.78.11l.27-.22c-.78,0-1.15-.72-1.87-.81.07,0,.13-.12.18-.09,0-.28-.42-.29-.53-.13-.07-.07.08-.16.08-.27s-.46.06-.39-.18c0,0,.08,0,.11,0-.14,0-.33-.25-.42,0-.13-.25-.46-.16-.53-.4-.28.18-.26-.36-.54,0,.27-.36-.16-.53-.4-.46.12-.08,0-.19.13-.31a.28.28,0,0,0-.44.08c.05-.63-.78,0-.53-.7a7.47,7.47,0,0,1-1.51-.45c.29-.36.46.27.72-.13-.47-.11-.92,0-1.21-.3-.06-.12.17-.12.25-.16-.48-.11-.66-.56-1.13-.61a.21.21,0,0,1,.14,0c-.07,0-.1-.17-.22,0h.09c-.08.32-.62.3-.73.41.47-.38-.22-.36.4-.81a.31.31,0,0,0-.25.15c0-.08,0-.16.15-.23-.29-.09-.34.14-.54,0,.06-.08.13-.07.22-.15-.22.07-.45.14-.56-.06,0,0,.07-.11.12-.07-.31-.21-.82,0-1-.39.37-.26,0-.2.2-.5l-.24,0,0,.19c-.14-.13-.44,0-.49-.23l.21,0-.32-.18.06.24c-.27,0-.29.37-.41.13.06,0-.15-.13-.08-.37h0c-.15,0-.31.06-.35-.1s.29-.3.32-.37c-.27.17-.4-.23-.71-.06a.7.7,0,0,0,.23-.22l-.23.14c0-.11,0-.15.12-.26-.17-.21-.25.41-.35.05,0,0,0,0,.11,0-.17-.29-.58-.28-.72-.57.19-.34.26.1.39-.2-.37-.22-1-.24-1.2-.59l0,.08c-.4.36,0-.4-.37-.36.07,0,.25-.17.2-.13-.15-.26-.5-.3-.93-.47l.13-.06c0-.21-.27-.35-.36-.52-.13.06-.19,0-.28.16.14-.94-1.07-.41-1-1.23,0,0,.18,0,.15,0l-.38-.21c-.14.19-.06.14-.13.33a.35.35,0,0,1-.36,0c.24,0,.26-.27.29-.42,0,.06-.11.1-.16.16.14-.45-.35.3-.37-.11l.1-.08c-.12,0-.31,0-.37-.1.16-.23.18,0,.34-.15-.13-.11-.6.11-.51-.18.1,0,.17.07.28.07.1-.34,0-.3,0-.42h0l-.1-.3v.11c-.65.34-.39-.22-.92-.1.5-.11.21-.14.44-.34,0-.11,0-.25.09-.29-.27.07,0-.29-.41-.18.06-.07-.09-.11.11-.26-.18-.07-.1.15-.2.22-.43,0-.13-.74-.72-.71-.36-.12-.65.05-1-.07.05-.18.32-.17.32-.17,0-.23-.11-.3-.3-.35.09,0,.12-.1.17-.21-.11-.08-.32.17-.33,0a1.45,1.45,0,0,1,.38-.16c-.17-.06-.4,0-.57-.1.09-.15.25-.1.37-.14-.17-.08-.42-.23-.66-.09v.14s.15-.17.22-.17c.26,0,.07.22,0,.29l-.12,0c-.35.46.37.27.49.46l-.37.21.41-.06c-.05.11-.2.29-.32.25,0,.25.21,0,.13.26,0,0,0,0-.06,0l.2,0c-.08,0-.2.22-.22.1,0,.38.54.13.38.42h0c.37.2.25-.17.71-.2l-.42.66.25-.18a.13.13,0,0,1,0,.19c.25,0,.08-.11.28-.18-.08.34.46.3.14.66.22-.11,0-.25.26-.21-.34.4.23.11.19.4-.24.15-.25-.07-.3.22.4-.24.17.32.34.36.26-.24.34.13.6.23-.1.07.19.48.26.74l0,0c.29-.23.42,0,.59.06a.51.51,0,0,1-.38.2l.12.11a.32.32,0,0,1,.3,0l-.23.16c.17.15.54.09.62.42.19-.17.33-.66.67-.58-.09.11-.25.28-.34.27s.14,0,.14.06l-.25.08c0,.17.18-.09.24,0-.14.14,0,.15-.16.25s0-.12-.09-.09a.5.5,0,0,1,0,.43c.07-.09.19-.2.27-.16s-.11.23-.09.39c.14-.06.14.14.35-.07,0,0,0,.15-.08.22.17,0,.42.34.54,0v0h0c.48,0,.46.66.82.82l-.07.07c.24.07.4.29.66.24.05,0,0,.24-.11.31.18.06.26,0,.34.28-.24,0-.06.15-.22,0,.11.22.05.36.41.32a.19.19,0,0,0,0,.36V954a.6.6,0,0,1,.25.22l-.27.21c.08.6,1.07,0,.89.75.24-.1-.08-.28.18-.42.13.17,0,.67,0,.72.1.32.52-.2.66.09,0-.11.23-.38.47-.32s-.13.55-.29.53a.05.05,0,0,1,0-.09c-.08,0-.18,0-.2.12l.1-.07c0,.16.23.33.05.44.19,0,.18-.11.13-.23.09.3.31.28.45.54,0-.08.07-.21.1-.19.22.37.28-.06.53.07,0,.24-.32.3,0,.35.06.2-.17.27-.28.3.34,0,.28.41.36.53h-.16a.28.28,0,0,1,.2.08l.09-.23c0,.08.08.12,0,.2.16-.07.2-.35.46-.41,0,.15.32.09.16.36-.19-.29-.17.27-.42.14a.16.16,0,0,1,.15.12.07.07,0,0,1-.08.05c.08.42.34-.19.59,0-.14.12-.15.32-.09.32-.1-.08.14-.27.31-.31.08.24.24.06.32.14l-.06-.13c.14-.11.21,0,.36,0-.08.11-.16,0-.16.07.31-.15.09.48.39.45,0,.16-.19.27-.17.4.34,0,.07.35.4.36.08-.24,0-.2.32-.28l-.45-.12.44-.11c-.11-.08-.32,0-.36-.12.23-.08.18,0,.25-.24-.07.4.41,0,.43.36l-.36.47c.1.39.63.08.87.43l0-.15c.18-.16.22.11.38.11a.67.67,0,0,0-.13.39c.08-.12.23.19.49-.11v.32c.2.27.62-.24.84,0-.2.12-.17.32-.43.32.09.07.14.15.22,0,0,.14.39-.05.36.16.08,0,.21-.21.3-.12a.19.19,0,0,1-.06.08c.06-.08.23,0,.27-.25-.08.69.77.46.71,1a4.07,4.07,0,0,1,.67.27s-.06.08-.08.05c.14.31.46-.38.62,0,0,.36-.24.05-.22.21-.32.56.37.14.35.58h-.07c0,.28.48,0,.68.21a.21.21,0,0,0,0,.08,1.39,1.39,0,0,1,1,0c-.21.17-.17,0-.27.3.12,0,.19-.37.43-.31a1.15,1.15,0,0,1,0,.59l-.2-.1c-.09.36.25.14.32.25l-.1.12c.32.14.53-.2.83,0l0-.12c.37-.24,0,.27.34.12l-.15.37a3.15,3.15,0,0,1,.83,0,2.17,2.17,0,0,1-.81.23c.11.07.4.2.55.07-.06,0-.17.06-.18,0a.67.67,0,0,1,.77-.07c-.43.64.48.52.35,1.11.55,0,.75.55,1.24.77.12-.61.15.06.41-.49.13,0,.17.05.16.09l.15.51c0,.2-.16.06-.22.18.22.18,0,.29.06.52.07-.21.23-.23.33-.08l-.06-.36c.49-.1,0,.61.54.52l-.2.11c.23,0,.65.35,1,0,0,.08,0,.25-.14.25.4.28,1.19,0,1.38.44l-.1.11c.1,0,.26-.18.3,0s-.1.12-.07.15.33-.13.39,0l-.16.1c.33.39.81-.05,1.2,0a.72.72,0,0,0,.21.83l0,.05c.47.27,1,0,1.52.08.08.57.87.61,1.22,1.06,0-.11.15-.31.24-.32s.42-.15.24.22l0,0c-.07.4.18.41.36.49l.23-.48c.16.89,1.29.21,1.28.94.16-.08.3,0,.46-.1l-.11.26a1.94,1.94,0,0,0,.82.37l-.15.16c.2.1.56-.66.76-.6l-.09.42c.37.14.62.61,1.13.38,0,.06-.08.17-.15.17.17.07.59.5.72-.06-.12.35.38.16.63.08l-.12.25c.29-.28.32-.37.59-.38.05.05,0,.23-.07.14.14.2.23-.2.41,0l-.14.14c.19.08.2,0,.37-.17s.35.19.3.44c.07-.14.24-.3.33-.19a.2.2,0,0,1-.1.16c.27.29.59-.16.73.17a.25.25,0,0,0,0,.17,1.48,1.48,0,0,1-.44-.17c-.08.24.12.35-.16.64.23-.14.65-.45.82-.27v.09l0,0s.09,0,.14,0a.33.33,0,0,0,.15.12c0,.21.21.19.31.23.07-.27.2-.19.14-.45,0,0,0,0-.11,0h0v0l-.26-.06c.12-.11.24-.2.31,0l.28-.39c0,.42.25.71.22,1,.37-.06.79.13,1.13-.32.11,0,.07.18.08.27s-.13,0-.18.07c.22-.08.56.11.7-.23.18.23-.22.29.11.32l-.07.1c.48.73,1.26-.65,1.77.25a.16.16,0,0,1,0-.14c.71.51,1.7.12,2.37.8.2.15.28-.07.45-.22v.31l.31-.3c.38-.18.42.85.94.46v-.21c.14.07.5,0,.43.21,0,0,.09-.2.13-.08l0,.15.42-.19c.27.18-.16.61.26.73.16,0,.53-.36.49-.48a.24.24,0,0,1-.12-.29l.16,0c.11-.45.3-.9,0-1.29l-.29.23,0-.23.2,0c-.07-.23-.18-.06-.29,0a.38.38,0,0,0,0-.26l-.32.38c0-.18.17-.33,0-.46-.15.18,0,.42-.19.52-.07-.24,0-.4-.17-.25a.26.26,0,0,1,.11-.23c-.15.12-.33,0-.44.22-.07-.28-.42,0-.32-.44-.06.09-.28.29-.4.29.32-.48-.4-.12-.23-.66-.25.43-.58.1-.9.3,0,0,.07-.1.09-.08-.14-.07-.16-.21-.23-.32-.11.37-.36.4-.53.61-.1-.42.21-.42.24-.79-.07.31-.39.23-.39.5a.84.84,0,0,1-.09-.47c-.13.47-.14.05-.33.31-.14-.29.06-.46-.2-.37C1701.49,972,1701.72,971.92,1701.72,971.92Zm-5.39-.62h0l.11,0Zm-.44-.13a.75.75,0,0,0,.18.07c0,.1-.06.19-.1.17S1695.93,971.27,1695.89,971.17Zm.35,2.14c-.08,0-.09,0-.08-.1h.13l0,0A.76.76,0,0,1,1696.24,973.31Z"/><path class="cls-22" d="M1696.47,973l0,0,0-.07,0,.08Z"/><path class="cls-22" d="M1660.91,951.89h0a.09.09,0,0,1,0,0Z"/><polygon class="cls-22" points="1690.2 968.55 1690.17 968.62 1690.23 968.58 1690.2 968.55"/><path class="cls-22" d="M1659.77,949.44a.09.09,0,0,0,0-.07A.24.24,0,0,0,1659.77,949.44Z"/><path class="cls-22" d="M1659.06,948.63l0-.18A.59.59,0,0,0,1659.06,948.63Z"/><path class="cls-22" d="M1658.58,947.94l-.1.07h0Z"/><path class="cls-22" d="M1668.58,956.48h0C1668.71,956.49,1668.65,956.47,1668.58,956.48Z"/><path class="cls-22" d="M1665.12,954.52l.18,0C1665.26,954.44,1665.22,954.4,1665.12,954.52Z"/><polygon class="cls-22" points="1672.29 958.79 1672.29 958.79 1672.31 958.81 1672.29 958.79"/><path class="cls-22" d="M1665.44,954.63a.15.15,0,0,0-.14-.13S1665.36,954.62,1665.44,954.63Z"/><path class="cls-22" d="M1656.25,945.21l0,0,0,0Z"/><path class="cls-22" d="M1656.19,945.2h0A0,0,0,0,0,1656.19,945.2Z"/><path class="cls-22" d="M1656,945.16l.12,0S1656.1,945.13,1656,945.16Z"/><path class="cls-22" d="M1656.89,946.11l.08-.06Z"/><path class="cls-22" d="M1657.13,946.34c0-.08,0-.3-.09-.34l-.07,0C1657.12,946,1657,946.4,1657.13,946.34Z"/><path class="cls-22" d="M1657.14,948.23,1657,948c0,.11-.11.26-.21.18C1656.8,948.64,1656.92,947.93,1657.14,948.23Z"/><path class="cls-22" d="M1657.65,949c-.15-.07-.12.11-.17.15C1657.62,949.12,1657.66,949.12,1657.65,949Z"/><path class="cls-22" d="M1662.2,953.41l-.18.18C1662.13,953.64,1662.09,953.51,1662.2,953.41Z"/><polygon class="cls-22" points="1663.99 953.22 1664.01 953.02 1663.82 953.16 1663.99 953.22"/><polygon class="cls-22" points="1663.34 955.05 1663.27 955.05 1663.48 955.11 1663.34 955.05"/><path class="cls-22" d="M1671.91,961.51l.15-.28C1672,961.23,1671.75,961.51,1671.91,961.51Z"/><path class="cls-22" d="M1676,963.73c0,.16,0,.31.17.22C1676.07,963.88,1676.05,963.72,1676,963.73Z"/><polygon class="cls-22" points="1688.12 970.45 1687.99 970.51 1688.19 970.5 1688.12 970.45"/><polygon class="cls-14" points="457.84 574.08 457.84 1047.04 731.1 1047.85 731.1 506.17 457.84 506.17 457.84 574.08"/><polyline class="cls-23" points="1032.67 856.24 1032.67 991.52 1043.96 1017.13 1059.35 993.12 1060.16 856.24"/><polyline class="cls-24" points="992.24 856.24 992.24 991.52 1003.53 1017.13 1018.92 993.12 1019.73 856.24"/><polyline class="cls-23" points="950.2 856.24 950.2 991.52 961.49 1017.13 976.88 993.12 977.69 856.24"/><polyline class="cls-24" points="908.16 856.24 908.16 991.52 919.45 1017.13 934.84 993.12 935.65 856.24"/><polyline class="cls-23" points="867.74 856.24 867.74 991.52 879.02 1017.13 894.42 993.12 895.23 856.24"/><polyline class="cls-23" points="827.31 898.64 827.31 993.06 838.6 1017.13 853.99 994.57 854.8 865.94"/><path class="cls-14" d="M731.1,600v447.9l92.17-.35V924.24c0-33.53,30.42-60.72,64-60.72h112.9c33.48,0,67.3,27.14,67.3,60.62v123.71h85.7V600Z"/><rect class="cls-25" x="731.1" y="599.95" width="422.03" height="447.09"/><polygon class="cls-26" points="692.3 302.43 488.56 302.43 593.66 106.78 692.3 302.43"/><line class="cls-27" x1="593.66" y1="106.78" x2="543.54" y2="302.43"/><line class="cls-27" x1="619.53" y1="302.43" x2="593.66" y2="106.78"/><line class="cls-27" x1="507.96" y1="266.86" x2="673.7" y2="265.24"/><line class="cls-27" x1="520.9" y1="240.99" x2="659.96" y2="237.75"/><line class="cls-27" x1="535.45" y1="215.11" x2="647.02" y2="211.88"/><line class="cls-27" x1="551.62" y1="186.01" x2="632.47" y2="184.39"/><line class="cls-27" x1="564.56" y1="160.14" x2="619.53" y2="158.52"/><polygon class="cls-14" points="1153.13 574.08 1153.13 1047.04 1426.4 1047.85 1426.4 506.17 1153.13 506.17 1153.13 574.08"/><polygon class="cls-26" points="1393.25 303.24 1190.32 304.05 1295.42 108.39 1393.25 303.24"/><line class="cls-27" x1="1295.43" y1="106.78" x2="1233.98" y2="302.43"/><line class="cls-27" x1="1319.68" y1="302.43" x2="1295.43" y2="106.78"/><line class="cls-27" x1="1209.73" y1="266.86" x2="1375.87" y2="266.45"/><line class="cls-27" x1="1224.28" y1="240.99" x2="1362.13" y2="238.96"/><line class="cls-27" x1="1237.21" y1="215.11" x2="1347.17" y2="211.88"/><line class="cls-27" x1="1253.38" y1="186.01" x2="1332.62" y2="184.39"/><line class="cls-27" x1="1267.94" y1="160.14" x2="1319.68" y2="158.52"/><rect class="cls-23" x="820.85" y="943.56" width="244.16" height="17.79"/><circle cx="836.21" cy="952.45" r="2.43"/><circle cx="847.53" cy="952.45" r="2.43"/><circle cx="876.63" cy="952.45" r="2.43"/><circle cx="887.95" cy="952.45" r="2.43"/><circle cx="917.06" cy="952.45" r="2.43"/><circle cx="928.37" cy="952.45" r="2.43"/><circle cx="1001.14" cy="952.45" r="2.43"/><circle cx="1012.46" cy="952.45" r="2.43"/><circle cx="1043.18" cy="952.45" r="2.43"/><circle cx="1054.5" cy="952.45" r="2.43"/><circle cx="959.1" cy="952.45" r="2.43"/><circle cx="970.42" cy="952.45" r="2.43"/><rect class="cls-7" x="459.78" y="903.13" width="26.36" height="13.74"/><rect class="cls-7" x="420.97" y="948.41" width="36.06" height="13.74"/><rect class="cls-7" x="252.81" y="971.05" width="36.06" height="13.74"/><rect class="cls-7" x="420.97" y="631.48" width="36.06" height="13.74"/><rect class="cls-7" x="252.81" y="637.95" width="36.06" height="13.74"/><rect class="cls-7" x="264.12" y="655.74" width="36.06" height="13.74"/><rect class="cls-7" x="420.97" y="658.97" width="36.06" height="13.74"/><rect class="cls-7" x="408.52" y="673.52" width="48.51" height="14.55"/><rect class="cls-7" x="459.78" y="922.54" width="36.06" height="13.74"/><rect class="cls-7" x="467.86" y="560.34" width="36.06" height="13.74"/><rect class="cls-7" x="459.78" y="539.32" width="36.06" height="13.74"/><rect class="cls-7" x="733.04" y="880.5" width="36.06" height="13.74"/><rect class="cls-7" x="747.6" y="896.67" width="36.06" height="13.74"/><rect class="cls-7" x="1116.27" y="817.43" width="36.06" height="13.74"/><rect class="cls-7" x="1104.95" y="833.6" width="36.06" height="13.74"/><rect class="cls-7" x="1116.27" y="560.34" width="36.06" height="13.74"/><rect class="cls-7" x="1095.24" y="579.74" width="36.06" height="13.74"/><rect class="cls-7" x="733.04" y="560.34" width="36.06" height="13.74"/><rect class="cls-7" x="1116.27" y="1001.77" width="36.06" height="13.74"/><rect class="cls-7" x="1116.27" y="849.77" width="36.06" height="13.74"/><rect class="cls-7" x="1387.92" y="579.74" width="36.06" height="13.74"/><rect class="cls-7" x="1373.36" y="599.14" width="36.06" height="13.74"/><rect class="cls-7" x="1155.07" y="579.74" width="36.06" height="13.74"/><rect class="cls-7" x="1163.16" y="599.14" width="36.06" height="13.74"/><rect class="cls-7" x="1155.07" y="883.73" width="36.06" height="13.74"/><rect class="cls-7" x="1163.16" y="899.9" width="36.06" height="13.74"/><rect class="cls-7" x="1387.92" y="954.88" width="36.06" height="13.74"/><rect class="cls-7" x="1439.66" y="906.37" width="36.06" height="13.74"/><rect class="cls-7" x="1596.5" y="633.1" width="36.06" height="13.74"/><rect class="cls-7" x="1578.72" y="649.27" width="36.06" height="13.74"/><rect class="cls-7" x="1428.34" y="938.71" width="36.06" height="13.74"/><rect class="cls-7" x="1428.34" y="922.54" width="29.59" height="13.74"/><rect class="cls-7" x="1381.45" y="971.05" width="36.06" height="13.74"/><rect class="cls-7" x="674.83" y="859.48" width="36.06" height="13.74"/><path class="cls-16" d="M1326.78,754.69h-61.86V652.82a30.69,30.69,0,0,1,30.68-30.69h4.3A26.88,26.88,0,0,1,1326.78,649Z"/><path class="cls-16" d="M1323.78,467.69h-61.86V365.82a30.69,30.69,0,0,1,30.68-30.69h4.3A26.88,26.88,0,0,1,1323.78,362Z"/><path class="cls-16" d="M613.78,467.69H551.92V365.82a30.69,30.69,0,0,1,30.68-30.69h4.3A26.88,26.88,0,0,1,613.78,362Z"/><path class="cls-16" d="M334.78,818.69H272.92V716.82a30.69,30.69,0,0,1,30.68-30.69h4.3A26.88,26.88,0,0,1,334.78,713Z"/><path class="cls-16" d="M439.78,813.69H377.92V711.82a30.69,30.69,0,0,1,30.68-30.69h4.3A26.88,26.88,0,0,1,439.78,708Z"/><path class="cls-16" d="M613.78,760.69H551.92V658.82a30.69,30.69,0,0,1,30.68-30.69h4.3A26.88,26.88,0,0,1,613.78,655Z"/><path class="cls-16" d="M851.78,788.69H789.92V686.82a30.69,30.69,0,0,1,30.68-30.69h4.3A26.88,26.88,0,0,1,851.78,683Z"/><path class="cls-16" d="M1095.78,784.69h-61.86V682.82a30.69,30.69,0,0,1,30.68-30.69h4.3A26.88,26.88,0,0,1,1095.78,679Z"/><path class="cls-16" d="M1605.78,802.69h-61.86V700.82a30.69,30.69,0,0,1,30.68-30.69h4.3A26.88,26.88,0,0,1,1605.78,697Z"/></g></svg>
