<svg xmlns="http://www.w3.org/2000/svg" width="170" height="90" viewBox="0 0 170 90"><defs><style>.cls-1{opacity:0.71;}.cls-2{fill:#847070;}.cls-3{fill:#fffdfd;}</style></defs><title>tid</title><g id="Layer_2" data-name="Layer 2"><g class="cls-1"><rect x="5.92" y="2.78" width="161.52" height="84.7" rx="31.83"/></g><rect class="cls-2" x="2.56" y="2.52" width="161.54" height="81.05" rx="31.83"/><path class="cls-3" d="M52.73,45.62c0,3.27-.71,5.85-2.15,7.72a14.91,14.91,0,0,1-6.18,4.55c-.35.3-.77.63-1.26,1a2.31,2.31,0,0,1-1.19.56c-1.88,0-3.84-1.48-5.9-4.45S33,48.22,33,43.52a13.72,13.72,0,0,1,2.36-8.17,17.77,17.77,0,0,1,5-4.93,11.34,11.34,0,0,1,3.22-1.63c.67,0,1.76.65,3.26,2A17.55,17.55,0,0,1,50.9,36.5,20.86,20.86,0,0,1,52.73,45.62Zm-2.81,1.73q0-3.15-3-7.09t-6.62-3.94a4.41,4.41,0,0,0-3.4,1.47,5.17,5.17,0,0,0-1.35,3.64q0,2.9,3,6.74T45.13,52a5.8,5.8,0,0,0,3.44-1C49.47,50.41,49.92,49.17,49.92,47.35Z"/><path class="cls-3" d="M74.31,45.62c0,3.27-.72,5.85-2.16,7.72A14.91,14.91,0,0,1,66,57.89c-.34.3-.77.63-1.26,1a2.31,2.31,0,0,1-1.19.56c-1.88,0-3.84-1.48-5.9-4.45s-3.07-6.79-3.07-11.49a13.72,13.72,0,0,1,2.35-8.17,17.77,17.77,0,0,1,5-4.93,11.34,11.34,0,0,1,3.22-1.63c.67,0,1.76.65,3.26,2a17.55,17.55,0,0,1,4.08,5.75A20.72,20.72,0,0,1,74.31,45.62Zm-2.82,1.73q0-3.15-3-7.09t-6.62-3.94a4.41,4.41,0,0,0-3.4,1.47,5.17,5.17,0,0,0-1.35,3.64q0,2.9,3,6.74T66.7,52a5.8,5.8,0,0,0,3.44-1C71,50.41,71.49,49.17,71.49,47.35Z"/><path class="cls-3" d="M81.27,43.39c.72.92,1.43,1.8,2.11,2.66a7.24,7.24,0,0,1,1,1.45c0,.37-.49,1.12-1.47,2.23s-1.66,1.67-2,1.67a9.87,9.87,0,0,1-1.65-1.83,9.29,9.29,0,0,1-1.49-2.07A26,26,0,0,1,79.11,45,3.25,3.25,0,0,1,81.27,43.39Zm3.14,12.68a4.73,4.73,0,0,1-1,1.53,13.4,13.4,0,0,1-1.89,2c-.83-.72-1.66-1.47-2.5-2.25S77.77,56,77.77,55.71q.89-1.17,1.89-2.34c.67-.77,1.21-1.16,1.61-1.16s1.19.5,2,1.51A4.47,4.47,0,0,1,84.41,56.07Z"/><path class="cls-3" d="M108.55,51.29a38.38,38.38,0,0,1-3.74,5.29c-1.5,1.81-2.56,2.72-3.18,2.72H85.74V58a58,58,0,0,0,4.56-4.34,71.72,71.72,0,0,0,6.12-7.07Q99.14,43,99.14,41a3.21,3.21,0,0,0-1.59-3.06A7.72,7.72,0,0,0,93.74,37a11.31,11.31,0,0,0-5,1.33v-.8a43.8,43.8,0,0,0,2.6-4.89c1.17-2.43,2.15-3.65,3-3.65a11.9,11.9,0,0,1,7.34,2.58,8.08,8.08,0,0,1,3.4,6.76q0,4.06-4.06,8.21l-6.52,6h1.37l12-1.25Z"/><path class="cls-3" d="M130.17,45.62c0,3.27-.72,5.85-2.16,7.72a14.91,14.91,0,0,1-6.18,4.55c-.34.3-.77.63-1.26,1a2.31,2.31,0,0,1-1.19.56c-1.88,0-3.84-1.48-5.9-4.45s-3.07-6.79-3.07-11.49a13.72,13.72,0,0,1,2.35-8.17,17.77,17.77,0,0,1,5-4.93A11.34,11.34,0,0,1,121,28.79c.67,0,1.76.65,3.26,2a17.55,17.55,0,0,1,4.08,5.75A20.86,20.86,0,0,1,130.17,45.62Zm-2.82,1.73q0-3.15-3-7.09t-6.62-3.94a4.41,4.41,0,0,0-3.4,1.47A5.17,5.17,0,0,0,113,41.43q0,2.9,3,6.74T122.56,52a5.8,5.8,0,0,0,3.44-1C126.9,50.41,127.35,49.17,127.35,47.35Z"/></g></svg>
