<svg xmlns="http://www.w3.org/2000/svg" width="70" height="140" viewBox="0 0 70 140"><defs><style>.cls-1{fill:#724416;}</style></defs><title>vindue</title><g id="Layer_2" data-name="Layer 2"><path class="cls-1" d="M66.46,137H3.54V34A31.11,31.11,0,0,1,34.75,3h4.37A27.25,27.25,0,0,1,66.46,30.19Z"/><path d="M67,137.47H3V34A31.65,31.65,0,0,1,34.75,2.53h4.37A27.78,27.78,0,0,1,67,30.19ZM4,136.47H66V30.19A26.78,26.78,0,0,0,39.12,3.53H34.75A30.65,30.65,0,0,0,4,34Z"/><rect x="9.78" y="16.43" width="1" height="120.54"/><rect x="18.77" y="7.5" width="1" height="129.47"/><rect x="25.51" y="5.27" width="1" height="131.7"/><rect x="34.5" y="3.03" width="1" height="133.93"/><rect x="41.24" y="3.03" width="1" height="133.93"/><rect x="47.99" y="5.27" width="1" height="131.7"/><rect x="56.97" y="11.96" width="1" height="125"/></g></svg>
